<svg xmlns="http://www.w3.org/2000/svg" xmlns:xlink="http://www.w3.org/1999/xlink" version="1.1"><metadata>Created by FontForge 20201107 at Thu Nov 19 17:18:05 2020 By Unknown Copyright (c) 2011 by Dieter Hofrichter. All rights reserved.</metadata><defs><font id="Argos-Bold" horiz-adv-x="772"><font-face x-height="1040" ascent="1638" bbox="-227 -647 2648 2048" cap-height="1448" descent="-410" font-family="Argos" font-stretch="normal" font-weight="700" panose-1="2 0 5 0 0 0 0 2 0 4" underline-position="-358" underline-thickness="102" unicode-range="U+000D-FB04" units-per-em="2048"/><glyph d="M1300 1495q-37 0 -59.5 -12.5t-41.5 -51.5t-27.5 -116.5t-8.5 -200.5v-110h187q41 0 41 -37v-52q0 -36 -41 -36h-189v-639q0 -91 29 -111q10 -7 29.5 -16t49 -20.5t36.5 -14.5q30 -12 30 -41q0 -21 -11 -30t-24 -9q-4 0 -48.5 1.5t-109 3t-116.5 1.5q-54 0 -154.5 -3 t-105.5 -3q-14 0 -24.5 9t-10.5 26q0 34 27 43q72 25 90 45q20 20 20 98q0 222 -12 660h-356v-639q0 -92 28 -111q10 -7 29.5 -16t49 -20.5t36.5 -14.5q31 -12 31 -41q0 -21 -11 -30t-24 -9q-4 0 -48.5 1.5t-109 3t-116.5 1.5q-54 0 -155 -3t-106 -3q-14 0 -24 9t-10 26 q0 34 26 43q72 25 90 45q21 21 21 98q0 222 -12 660h-84q-26 0 -39 9t-13 36q0 29 29 45q65 35 85.5 60t27.5 83q24 231 158 348t343 117q58 0 107 -14q27 -8 39 -24t16 -54q13 -119 13 -172q0 -22 -15 -33.5t-37 -11.5q-24 0 -37 10t-26 35q-58 100 -72 114q-31 31 -72 31 q-21 0 -35.5 -5t-31 -25t-26.5 -55.5t-16.5 -101t-6.5 -157.5v-110h268q44 0 63 12.5t23 52.5q14 138 62 244t120 170.5t160.5 97.5t190.5 33q53 0 106 -15q27 -8 38 -20t15 -41q17 -104 17 -184q0 -23 -15 -36t-39 -13q-21 0 -34 10t-27 31q-56 79 -82 114q-32 35 -68 35z" glyph-name="f_f" horiz-adv-x="1384" unicode="ff"/><glyph d="M1145 223q0 -74 24 -98q14 -14 91 -49q32 -12 32 -41q0 -22 -9 -29.5t-28 -7.5q-4 0 -39 1.5t-91 3t-111 1.5q-57 0 -154 -3t-102 -3q-37 0 -37 35q0 34 24 43q64 23 86 45q21 21 21 100q0 317 -4 418q-3 140 -33 172q-26 30 -69.5 43.5t-145.5 13.5h-100v-628 q0 -92 28 -111q14 -10 111 -51q31 -12 31 -41q0 -21 -11 -30t-24 -9q-3 0 -46 1.5t-107 3t-117 1.5q-54 0 -155 -3t-106 -3q-14 0 -24 9t-10 26q0 34 26 43q72 25 90 45q21 21 21 98q0 211 -12 649h-84q-26 0 -39 9t-13 36q0 29 29 45q63 34 84.5 62.5t28.5 89.5 q12 118 65 215.5t132.5 159.5t175.5 95.5t198 33.5q111 0 203 -21q27 -6 38 -21t17 -56q19 -174 19 -205q0 -56 -58 -56q-42 0 -71 50q-8 12 -24.5 39t-25.5 41t-23 33.5t-26 33.5q-37 43 -94 43q-23 0 -45.5 -5.5t-49 -19t-49 -42t-41.5 -68.5t-29.5 -104t-10.5 -144v-121 h182q140 0 246 27q34 10 89.5 32.5t76.5 22.5q57 0 57 -61q0 -12 -4 -324t-4 -465z" glyph-name="fi" horiz-adv-x="1312" unicode="fi"/><glyph d="M502 1122v-129h207q41 0 41 -37v-51q0 -37 -41 -37h-209v-628q0 -92 28 -111q10 -7 29.5 -16t49 -20.5t36.5 -14.5q31 -12 31 -41q0 -21 -11 -30t-24 -9q-4 0 -48.5 1.5t-109 3t-116.5 1.5q-54 0 -155 -3t-106 -3q-14 0 -24 9t-10 26q0 34 26 43q72 25 90 45q21 21 21 98 q0 211 -12 649h-84q-26 0 -39 9t-13 36q0 29 29 45q65 35 85.5 60t27.5 84q24 233 174 372.5t352 139.5q155 0 258 -37q94 49 133 49q21 0 36 -11t15 -34q0 -5 -3 -243t-6 -565.5t-3 -549.5q0 -73 25 -98q15 -15 90 -49q33 -12 33 -41q0 -22 -9 -29.5t-28 -7.5q-4 0 -39 1.5 t-91.5 3t-111.5 1.5q-57 0 -157 -3t-105 -3q-37 0 -37 35q0 34 25 43q73 26 92 45q20 20 20 100q0 576 -8 977q-3 187 -31 244q-32 63 -110 63q-213 0 -213 -383z" glyph-name="fl" horiz-adv-x="1325" unicode="fl"/><glyph d="M1251 879h-90v-639q0 -91 29 -111q28 -20 102 -51q35 -15 35 -41q0 -21 -12.5 -30t-26.5 -9q-4 0 -45.5 1.5t-103 3t-113.5 1.5q-53 0 -155.5 -3t-106.5 -3q-14 0 -24.5 9t-10.5 26q0 34 27 43q75 25 92 45q20 20 20 98q0 222 -12 660h-356v-639q0 -92 28 -111 q10 -7 29.5 -16t49 -20.5t36.5 -14.5q31 -12 31 -41q0 -21 -11 -30t-24 -9q-4 0 -48.5 1.5t-109 3t-116.5 1.5q-54 0 -155 -3t-106 -3q-14 0 -24 9t-10 26q0 34 26 43q72 25 90 45q21 21 21 98q0 222 -12 660h-84q-26 0 -39 9t-13 36q0 29 29 45q65 35 85.5 60t27.5 83 q24 231 158 348t343 117q58 0 107 -14q27 -8 39 -22.5t16 -51.5q13 -128 13 -176q0 -19 -14.5 -32t-37.5 -13t-36 11t-27 34q-11 18 -27.5 46.5t-27 45t-17.5 22.5q-36 31 -72 31q-19 0 -33.5 -5t-31 -25t-27 -55.5t-17.5 -101.5t-7 -157v-110h268q44 0 63 12.5t23 52.5 q7 110 45.5 203t96 155t130 105t145 62.5t142.5 19.5q139 0 219 -23q28 -8 40 -23.5t16 -54.5q2 -27 7 -75.5t8 -82t3 -44.5q0 -56 -57 -56q-43 0 -72 50q-8 13 -23.5 38t-25.5 40.5t-24.5 35t-28.5 33.5q-43 43 -93 43q-27 0 -52.5 -6t-57.5 -29.5t-55.5 -61.5 t-39.5 -109.5t-16 -166.5v-121h174q156 0 254 25q30 9 66 22t57.5 19t38.5 6q27 0 44.5 -16.5t17.5 -44.5q0 -12 -4.5 -323.5t-4.5 -465.5q0 -73 25 -98q15 -15 90 -49q33 -12 33 -41q0 -22 -9 -29.5t-28 -7.5q-4 0 -39 1.5t-91.5 3t-111.5 1.5q-57 0 -154 -3t-102 -3 q-37 0 -37 35q0 33 29 43q6 3 16 7q40 17 54 27t23 35.5t9 75.5q0 327 -4 428q-3 141 -32 172q-25 31 -73 44.5t-153 13.5z" glyph-name="f_f_i" horiz-adv-x="1974" unicode="ffi"/><glyph d="M856 1067q8 105 42.5 194.5t87 153.5t120 109.5t142.5 67.5t153 22q143 0 246 -37q94 49 133 49q21 0 36 -11t15 -34q0 -5 -3 -243t-6 -565.5t-3 -549.5q0 -74 24 -98q15 -15 90 -49q33 -12 33 -41q0 -22 -9 -29.5t-28 -7.5q-4 0 -39 1.5t-91 3t-111 1.5q-57 0 -157.5 -3 t-105.5 -3q-36 0 -36 35q0 34 24 43q75 28 92 45q21 21 21 100q0 576 -8 977q-3 187 -31 244q-32 63 -111 63q-28 0 -50 -4t-54.5 -25.5t-54.5 -58.5t-38 -110t-16 -174v-129h207q41 0 41 -37v-52q0 -36 -41 -36h-209v-639q0 -91 29 -111q11 -8 113 -51q30 -12 30 -41 q0 -21 -11 -30t-24 -9q-4 0 -47.5 1.5t-107.5 3t-117 1.5q-54 0 -154.5 -3t-105.5 -3q-14 0 -24.5 9t-10.5 26q0 34 27 43q72 25 90 45q20 20 20 98q0 222 -12 660h-356v-639q0 -92 28 -111q10 -7 29.5 -16t49 -20.5t36.5 -14.5q31 -12 31 -41q0 -21 -11 -30t-24 -9 q-4 0 -48.5 1.5t-109 3t-116.5 1.5q-54 0 -155 -3t-106 -3q-14 0 -24 9t-10 26q0 34 26 43q72 25 90 45q21 21 21 98q0 222 -12 660h-84q-26 0 -39 9t-13 36q0 29 29 45q66 35 86 58.5t27 82.5q24 232 158 349.5t343 117.5q58 0 107 -14q26 -8 38.5 -25t16.5 -55 q13 -110 13 -170q0 -19 -14.5 -32t-37.5 -13q-40 0 -63 45q-52 94 -72 114q-29 31 -72 31q-21 0 -36 -5.5t-31 -26t-26 -56.5t-16.5 -101.5t-6.5 -156.5v-108h268q45 0 63.5 11.5t22.5 51.5z" glyph-name="f_f_l" horiz-adv-x="1986" unicode="ffl"/><glyph d="M1739 911q241 164 364 164q125 0 197 -96q40 -55 55 -172.5t15 -331.5q0 -19 -2.5 -120t-2.5 -132q0 -73 25 -98q15 -15 90 -49q33 -12 33 -41q0 -22 -9 -29.5t-28 -7.5q-4 0 -37 1.5t-87 3t-109 1.5q-56 0 -160.5 -3t-110.5 -3q-37 0 -37 35q0 34 25 43q77 30 92 45 q21 21 21 100q0 316 -12.5 440t-39.5 166q-38 50 -110 50q-88 0 -170 -35q-8 -272 -8 -619q0 -74 24 -98q15 -15 90 -49q33 -12 33 -41q0 -22 -9 -29.5t-28 -7.5q-4 0 -39 1.5t-91 3t-111 1.5q-57 0 -157.5 -3t-105.5 -3q-36 0 -36 35q0 34 24 43q73 26 92 45q21 21 21 100 q0 48 -4 393t-4 516q0 135 -50 164q-53 37 -381 37q-65 0 -86.5 -4t-29.5 -16q-12 -17 -15 -74q-8 -98 -8 -997q0 -85 21 -109q18 -21 143 -61q29 -10 29 -35q0 -37 -33 -37q-6 0 -64 1.5t-135.5 3t-130.5 1.5q-69 0 -182.5 -3t-116.5 -3q-35 0 -35 37q0 26 27 35 q16 6 44.5 15.5t39.5 14t25 12t22 15.5q16 16 16 100q0 111 -5 544t-5 464q-3 61 -14 76q-7 12 -33 16t-92 4q-71 0 -102.5 -8t-61.5 -37q-35 -35 -86 -180q-9 -27 -41 -27q-49 0 -49 37q0 6 4.5 55t9 118t4.5 122q0 37 35 37q18 0 238.5 -2t359.5 -2q75 0 302.5 1t326.5 1 q85 0 166 43q23 12 54.5 30t52.5 29t42.5 22.5t37 17t24.5 5.5q45 0 45 -45q0 -209 -6 -637z" glyph-name="T_h" horiz-adv-x="2523" unicode="Th"/><glyph d="M1739 911q241 164 364 164q125 0 197 -96q40 -55 55 -172.5t15 -331.5q0 -19 -2.5 -120t-2.5 -132q0 -73 25 -98q15 -15 90 -49q33 -12 33 -41q0 -22 -9 -29.5t-28 -7.5q-4 0 -37 1.5t-87 3t-109 1.5q-56 0 -160.5 -3t-110.5 -3q-37 0 -37 35q0 34 25 43q77 30 92 45 q21 21 21 100q0 316 -12.5 440t-39.5 166q-38 50 -110 50q-88 0 -170 -35q-8 -272 -8 -619q0 -74 24 -98q15 -15 90 -49q33 -12 33 -41q0 -22 -9 -29.5t-28 -7.5q-4 0 -39 1.5t-91 3t-111 1.5q-57 0 -157.5 -3t-105.5 -3q-36 0 -36 35q0 34 24 43q73 26 92 45q21 21 21 100 q0 48 -4 393t-4 516q0 135 -50 164q-53 37 -381 37q-65 0 -86.5 -4t-29.5 -16q-12 -17 -15 -74q-8 -98 -8 -997q0 -85 21 -109q18 -21 143 -61q29 -10 29 -35q0 -37 -33 -37q-6 0 -64 1.5t-135.5 3t-130.5 1.5q-69 0 -182.5 -3t-116.5 -3q-35 0 -35 37q0 26 27 35 q16 6 44.5 15.5t39.5 14t25 12t22 15.5q16 16 16 100q0 111 -5 544t-5 464q-3 61 -14 76q-7 12 -33 16t-92 4q-71 0 -102.5 -8t-61.5 -37q-35 -35 -86 -180q-9 -27 -41 -27q-49 0 -49 37q0 6 4.5 55t9 118t4.5 122q0 37 35 37q18 0 238.5 -2t359.5 -2q75 0 302.5 1t326.5 1 q85 0 166 43q23 12 54.5 30t52.5 29t42.5 22.5t37 17t24.5 5.5q45 0 45 -45q0 -209 -6 -637zM375 1841q0 14 11.5 26.5t27.5 12.5q9 0 37 -12q45 -24 130.5 -69.5t116.5 -61.5q125 63 248 131q20 12 35 12q17 0 27 -12.5t10 -26.5q0 -12 -14 -26q-19 -18 -259 -236 q-32 -29 -53 -29q-26 0 -51 25q-134 128 -254 237q-12 12 -12 29z" glyph-name="Tcaron_h" horiz-adv-x="2523" unicode="Ťh"/><glyph d="M1141 856q-6 -318 -6 -512q0 -152 32 -184q65 -58 142 -58q123 0 179 90.5t56 288.5q0 112 -22 195.5t-59.5 129.5t-81 67.5t-93.5 21.5q-64 0 -147 -39zM836 1198q-3 190 -31 244q-32 63 -103 63q-27 0 -49 -5.5t-52 -28t-50 -61.5t-34.5 -113t-14.5 -175v-118h207 q41 0 41 -37v-52q0 -36 -41 -36h-209v-639q0 -92 28 -111q10 -7 29.5 -16t49 -20.5t36.5 -14.5q31 -12 31 -41q0 -21 -11 -30t-24 -9q-4 0 -48.5 1.5t-109 3t-116.5 1.5q-54 0 -155 -3t-106 -3q-14 0 -24 9t-10 26q0 34 26 43q72 25 90 45q21 21 21 98q0 222 -12 660h-84 q-26 0 -39 9t-13 36q0 29 29 45q66 35 86 58.5t27 82.5q24 233 168 368.5t346 135.5q147 0 250 -37q94 49 133 49q21 0 36 -11t15 -34q0 -81 -8 -649q187 137 305 137q200 0 309 -140t109 -368q0 -165 -70 -298t-195 -208t-280 -75q-213 0 -334 55q-20 -33 -51 -64 q-24 -24 -47 -24q-45 0 -45 41q0 3 1 112.5t1 161.5q0 535 -8 936z" glyph-name="f_b" horiz-adv-x="1933" unicode="fb"/><glyph d="M1802 856q-6 -318 -6 -512q0 -151 33 -184q65 -58 141 -58q123 0 179.5 90.5t56.5 288.5q0 112 -22 195.5t-59.5 129.5t-81 67.5t-93.5 21.5q-65 0 -148 -39zM1370 1505q-28 0 -50 -4.5t-53.5 -26.5t-52 -60t-36 -111.5t-15.5 -174.5v-124h207q41 0 41 -37v-52 q0 -36 -41 -36h-209v-639q0 -91 29 -111q10 -7 29.5 -16t49 -20.5t36.5 -14.5q30 -12 30 -41q0 -21 -11 -30t-24 -9q-4 0 -48.5 1.5t-109 3t-116.5 1.5q-54 0 -154.5 -3t-105.5 -3q-14 0 -24.5 9t-10.5 26q0 34 27 43q72 25 90 45q20 20 20 98q0 222 -12 660h-356v-639 q0 -92 28 -111q10 -7 29.5 -16t49 -20.5t36.5 -14.5q31 -12 31 -41q0 -21 -11 -30t-24 -9q-4 0 -48.5 1.5t-109 3t-116.5 1.5q-54 0 -155 -3t-106 -3q-14 0 -24 9t-10 26q0 34 26 43q72 25 90 45q21 21 21 98q0 222 -12 660h-84q-26 0 -39 9t-13 36q0 29 29 45 q66 35 86 58.5t27 82.5q24 232 158 349.5t343 117.5q58 0 107 -14q28 -8 39.5 -21.5t15.5 -50.5q13 -110 13 -178q0 -19 -14.5 -32t-37.5 -13t-36 11t-27 34q-10 16 -27 44.5t-27.5 44.5t-17.5 23q-33 33 -67 33q-22 0 -37 -4.5t-32.5 -23.5t-27.5 -53.5t-17 -99t-7 -155.5 v-118h268q44 0 63 12.5t23 52.5q13 175 90 300.5t190 185t248 59.5q147 0 242 -37q94 49 133 49q21 0 36 -11t15 -34q0 -81 -8 -649q187 137 305 137q200 0 309 -140t109 -368q0 -165 -70 -298t-195 -208t-280 -75q-212 0 -333 55q-19 -31 -52 -64q-24 -24 -47 -24 q-45 0 -45 41q0 3 1 112.5t1 161.5q0 535 -8 936q-3 187 -31 244q-32 63 -96 63z" glyph-name="f_f_b" horiz-adv-x="2594" unicode="ffb"/><glyph d="M1378 1505q-19 0 -35 -2t-39 -10.5t-41 -23t-37.5 -42.5t-32.5 -66.5t-21.5 -97.5t-8.5 -133v-126h207q41 0 41 -37v-52q0 -36 -41 -36h-209v-639q0 -91 29 -111q10 -7 29.5 -16t49 -20.5t36.5 -14.5q30 -12 30 -41q0 -21 -11 -30t-24 -9q-4 0 -48.5 1.5t-109 3 t-116.5 1.5q-54 0 -154.5 -3t-105.5 -3q-14 0 -24.5 9t-10.5 26q0 34 27 43q72 25 90 45q20 20 20 98q0 222 -12 660h-356v-639q0 -92 28 -111q10 -7 29.5 -16t49 -20.5t36.5 -14.5q31 -12 31 -41q0 -21 -11 -30t-24 -9q-4 0 -48.5 1.5t-109 3t-116.5 1.5q-54 0 -155 -3 t-106 -3q-14 0 -24 9t-10 26q0 34 26 43q72 25 90 45q21 21 21 98q0 222 -12 660h-84q-26 0 -39 9t-13 36q0 29 29 45q65 35 85.5 60t27.5 83q24 231 158 348t343 117q58 0 107 -14q26 -8 38.5 -25t16.5 -55q13 -110 13 -170q0 -19 -14.5 -32t-37.5 -13q-40 0 -63 45 q-52 94 -72 114q-29 31 -72 31q-21 0 -36 -5.5t-31 -26t-26 -56.5t-16.5 -101.5t-6.5 -156.5v-108h268q44 0 63 12.5t23 52.5q8 106 42 195.5t86.5 153t120 108.5t142.5 66.5t154 21.5q145 0 248 -37q94 49 133 49q21 0 36 -11t15 -34q0 -242 -6 -670q241 164 364 164 q125 0 197 -96q40 -55 55 -172.5t15 -331.5q0 -19 -2 -119.5t-2 -132.5q0 -74 24 -98q15 -15 90 -49q33 -12 33 -41q0 -22 -9 -29.5t-28 -7.5q-4 0 -37 1.5t-87 3t-109 1.5q-56 0 -160.5 -3t-110.5 -3q-37 0 -37 35q0 34 25 43q77 30 92 45q21 21 21 100q0 316 -12.5 440 t-39.5 166q-38 50 -110 50q-88 0 -170 -35q-8 -272 -8 -619q0 -74 24 -98q15 -15 90 -49q33 -12 33 -41q0 -22 -9 -29.5t-28 -7.5q-4 0 -39 1.5t-91 3t-111 1.5q-57 0 -157.5 -3t-105.5 -3q-36 0 -36 35q0 34 24 43q73 26 92 45q21 21 21 100q0 576 -8 977q-3 187 -31 244 q-32 63 -111 63z" glyph-name="f_f_h" horiz-adv-x="2611" unicode="ffh"/><glyph d="M1239 879h-78v-639q0 -91 29 -111q10 -7 29.5 -16t49 -20.5t36.5 -14.5q30 -12 30 -41q0 -21 -11 -30t-24 -9q-4 0 -48.5 1.5t-109 3t-116.5 1.5q-54 0 -154.5 -3t-105.5 -3q-14 0 -24.5 9t-10.5 26q0 34 27 43q72 25 90 45q20 20 20 98q0 222 -12 660h-356v-639 q0 -92 28 -111q10 -7 29.5 -16t49 -20.5t36.5 -14.5q31 -12 31 -41q0 -21 -11 -30t-24 -9q-4 0 -48.5 1.5t-109 3t-116.5 1.5q-54 0 -155 -3t-106 -3q-14 0 -24 9t-10 26q0 34 26 43q72 25 90 45q21 21 21 98q0 222 -12 660h-84q-26 0 -39 9t-13 36q0 29 29 45 q67 36 86.5 58t26.5 81q24 232 158 350.5t343 118.5q58 0 107 -14q27 -8 39 -22.5t16 -49.5q13 -115 13 -178q0 -19 -14.5 -32t-37.5 -13q-40 0 -63 45q-48 90 -72 114q-29 31 -69 31q-21 0 -35.5 -5t-31.5 -25t-27.5 -55.5t-17.5 -101t-7 -157.5v-110h268q44 0 63 12.5 t23 52.5q9 116 52.5 211.5t104.5 156t136 102t145.5 58.5t135.5 17q116 0 176 -17q27 -8 37.5 -22t17.5 -55q7 -35 12.5 -107t5.5 -94q0 -53 -53 -53q-50 0 -74 47q-53 100 -96 143q-39 39 -94 39q-21 0 -42.5 -5.5t-51 -27.5t-51.5 -57.5t-38 -103.5t-16 -158v-142h162 q143 0 246 25q29 8 67 21.5t60 19.5t39 6q57 0 57 -61q0 -12 -1 -334t-1 -475q0 -165 -30 -283t-99 -246q-45 -89 -143.5 -149t-208.5 -60q-51 0 -101 11q-26 6 -37.5 21.5t-15.5 53.5q-8 73 -8 123q0 41 45 41q23 0 47 -37q39 -59 68 -88q22 -22 61 -22q63 0 93 101.5 t30 344.5q0 532 -4 635q-3 140 -33 172q-26 31 -70 44.5t-147 13.5z" glyph-name="f_f_j" horiz-adv-x="1931" unicode="ffj"/><glyph d="M1378 1505q-19 0 -35 -2t-39 -10.5t-41 -23t-37.5 -42.5t-32.5 -66.5t-21.5 -97.5t-8.5 -133v-126h207q41 0 41 -37v-52q0 -36 -41 -36h-209v-639q0 -91 29 -111q10 -7 29.5 -16t49 -20.5t36.5 -14.5q30 -12 30 -41q0 -21 -11 -30t-24 -9q-4 0 -48.5 1.5t-109 3 t-116.5 1.5q-54 0 -154.5 -3t-105.5 -3q-14 0 -24.5 9t-10.5 26q0 34 27 43q72 25 90 45q20 20 20 98q0 222 -12 660h-356v-639q0 -92 28 -111q10 -7 29.5 -16t49 -20.5t36.5 -14.5q31 -12 31 -41q0 -21 -11 -30t-24 -9q-4 0 -48.5 1.5t-109 3t-116.5 1.5q-54 0 -155 -3 t-106 -3q-14 0 -24 9t-10 26q0 34 26 43q72 25 90 45q21 21 21 98q0 222 -12 660h-84q-26 0 -39 9t-13 36q0 29 29 45q66 35 86 58.5t27 82.5q24 232 158 349.5t343 117.5q58 0 107 -14q26 -8 38.5 -25t16.5 -55q13 -110 13 -170q0 -19 -14.5 -32t-37.5 -13q-40 0 -63 45 q-52 94 -72 114q-29 31 -72 31q-21 0 -36 -5.5t-31 -26t-26 -56.5t-16.5 -101.5t-6.5 -156.5v-108h268q45 0 63.5 11.5t22.5 51.5q8 105 42.5 194.5t87 153.5t120 109.5t142.5 67.5t153 22q145 0 248 -37q94 49 131 49q21 0 36 -11t15 -34q0 -7 -0.5 -53t-1.5 -135.5 t-2 -173.5q-8 -388 -8 -996q0 -74 24 -98q15 -15 90 -49q33 -12 33 -41q0 -22 -9 -29.5t-28 -7.5q-4 0 -39 1.5t-91 3t-111 1.5q-58 0 -156.5 -3t-104.5 -3q-36 0 -36 35q0 34 24 43q73 26 92 45q21 21 21 100q0 576 -8 977q-3 187 -31 244q-32 63 -111 63zM2134 631 q64 -99 165 -231t159 -199q54 -63 79 -80q16 -14 74 -29q22 -6 29.5 -16t7.5 -29q0 -34 -37 -37q-105 -16 -291 -16q-35 0 -58 11t-48 40q-89 107 -281 379q-35 49 -51 65q-2 3 -7 9t-7 8.5t-5 7t-4.5 7.5t-3 7t-2 8t-0.5 9q0 27 29 43q8 6 19.5 13t26 15t22.5 13 q71 53 178 166q39 45 52 67.5t13 42.5t-18 31t-76 31q-31 12 -31 39q0 21 11.5 31t25.5 10q8 0 90 -3.5t127 -3.5q53 0 101 2t76.5 3.5t35.5 1.5q35 0 35 -39q0 -19 -11.5 -30t-40.5 -24t-38 -18q-22 -12 -51 -33q-38 -27 -88.5 -72.5t-89 -83t-117.5 -116.5z" glyph-name="f_f_k" horiz-adv-x="2650" unicode="ffk"/><glyph d="M1300 1495q-49 0 -76 -25.5t-44 -111.5t-17 -248v-106h187q41 0 41 -37v-52q0 -36 -41 -36h-189v-639q0 -91 29 -111q10 -7 29.5 -16t49 -20.5t36.5 -14.5q30 -12 30 -41q0 -21 -11 -30t-24 -9q-4 0 -48.5 1.5t-109 3t-116.5 1.5q-54 0 -154.5 -3t-105.5 -3 q-14 0 -24.5 9t-10.5 26q0 34 27 43q72 25 90 45q20 20 20 98q0 222 -12 660h-356v-639q0 -92 28 -111q10 -7 29.5 -16t49 -20.5t36.5 -14.5q31 -12 31 -41q0 -21 -11 -30t-24 -9q-4 0 -48.5 1.5t-109 3t-116.5 1.5q-54 0 -155 -3t-106 -3q-14 0 -24 9t-10 26q0 34 26 43 q72 25 90 45q21 21 21 98q0 222 -12 660h-84q-26 0 -39 9t-13 36q0 29 29 45q67 36 86.5 58t26.5 81q24 232 158 350.5t343 118.5q58 0 107 -14q27 -8 39 -24t16 -54q13 -119 13 -172q0 -22 -15 -33.5t-37 -11.5q-24 0 -37 10t-26 35q-58 100 -72 114q-31 31 -72 31 q-21 0 -36 -5.5t-31 -26.5t-26 -57.5t-16.5 -102t-6.5 -156.5v-106h268q44 0 63 12.5t23 52.5q14 138 62 244t120 170.5t160.5 97.5t190.5 33q53 0 106 -15q27 -8 38 -20t15 -41q17 -104 17 -184q0 -23 -15 -36t-39 -13q-21 0 -34 10t-27 31q-56 79 -82 114q-32 35 -68 35z" glyph-name="f_f_t" horiz-adv-x="1384" unicode="fft"/><glyph d="M1167 1577q0 -240 -6 -666q241 164 369 164q124 0 196 -96q40 -55 55 -172.5t15 -331.5q0 -19 -2 -119.5t-2 -132.5q0 -73 25 -98q15 -15 90 -49q32 -12 32 -41q0 -22 -8.5 -29.5t-27.5 -7.5q-4 0 -37 1.5t-87.5 3t-109.5 1.5q-56 0 -160 -3t-110 -3q-37 0 -37 35 q0 34 24 43q6 2 19.5 7.5t19.5 7.5t16 6.5t15.5 7.5t12 7.5t10.5 8.5q20 20 20 100q0 317 -12 440.5t-39 165.5q-38 50 -111 50q-92 0 -174 -35q-4 -136 -4 -619q0 -73 25 -98q15 -15 90 -49q33 -12 33 -41q0 -22 -9 -29.5t-28 -7.5q-4 0 -39 1.5t-91.5 3t-111.5 1.5 q-58 0 -156 -3t-104 -3q-37 0 -37 35q0 34 25 43q70 25 90 45t20 100q0 576 -8 977q-3 187 -31 244q-32 63 -112 63q-213 0 -213 -383v-118h207q41 0 41 -37v-52q0 -36 -41 -36h-209v-639q0 -92 28 -111q10 -7 29.5 -16t49 -20.5t36.5 -14.5q31 -12 31 -41q0 -21 -11 -30 t-24 -9q-4 0 -48.5 1.5t-109 3t-116.5 1.5q-54 0 -155 -3t-106 -3q-14 0 -24 9t-10 26q0 34 26 43q72 25 90 45q21 21 21 98q0 222 -12 660h-84q-26 0 -39 9t-13 36q0 29 29 45q67 36 86.5 57.5t26.5 75.5q16 155 93.5 273t192.5 178.5t250 60.5q38 0 68.5 -1.5t59.5 -6.5 t41.5 -7.5t44 -10.5t36.5 -9q90 47 129 47q21 0 36 -12.5t15 -36.5z" glyph-name="f_h" horiz-adv-x="1949" unicode="fh"/><glyph d="M578 879h-78v-639q0 -92 28 -111q10 -7 29.5 -16t49 -20.5t36.5 -14.5q31 -12 31 -41q0 -21 -11 -30t-24 -9q-4 0 -48.5 1.5t-109 3t-116.5 1.5q-54 0 -155 -3t-106 -3q-14 0 -24 9t-10 26q0 34 26 43q72 25 90 45q21 21 21 98q0 222 -12 660h-84q-26 0 -39 9t-13 36 q0 29 29 45q63 34 84.5 62t28.5 89q14 118 69 214t134 156t171.5 92t188.5 32q114 0 180 -17q27 -8 38 -20.5t17 -46.5q7 -38 13 -114t6 -97q0 -53 -55 -53q-48 0 -72 47q-53 100 -96 143q-22 22 -40.5 30.5t-49.5 8.5q-203 0 -203 -373v-121h162q142 0 245 25q29 8 67 21.5 t60 19.5t39 6q58 0 58 -61q0 -12 -1.5 -333.5t-1.5 -475.5q0 -165 -30 -283t-99 -246q-45 -89 -143.5 -149t-208.5 -60q-51 0 -100 11q-26 6 -37.5 21.5t-15.5 53.5q-9 82 -9 123t45 41q24 0 48 -37q40 -62 67 -88q22 -22 62 -22q41 0 67.5 41t40.5 140.5t14 264.5 q0 532 -4 635q-3 141 -32 172q-26 31 -70 44.5t-147 13.5z" glyph-name="f_j" horiz-adv-x="1269" unicode="fj"/><glyph d="M1167 1581q0 -7 -0.5 -53t-1.5 -135.5t-2 -173.5q-8 -388 -8 -996q0 -73 25 -98q15 -15 90 -49q33 -12 33 -41q0 -22 -9 -29.5t-28 -7.5q-4 0 -39 1.5t-91.5 3t-111.5 1.5q-58 0 -156 -3t-104 -3q-37 0 -37 35q0 34 25 43q73 26 92 45q20 20 20 100q0 576 -8 977 q-3 187 -31 244q-32 63 -110 63q-213 0 -213 -383v-118h207q41 0 41 -37v-52q0 -36 -41 -36h-209v-639q0 -92 28 -111q10 -7 29.5 -16t49 -20.5t36.5 -14.5q31 -12 31 -41q0 -21 -11 -30t-24 -9q-4 0 -48.5 1.5t-109 3t-116.5 1.5q-54 0 -155 -3t-106 -3q-14 0 -24 9t-10 26 q0 34 26 43q72 25 90 45q21 21 21 98q0 222 -12 660h-84q-26 0 -39 9t-13 36q0 29 29 45q65 35 85.5 60t27.5 85q29 233 175 366.5t351 133.5q155 0 258 -37q94 49 131 49q21 0 36 -11t15 -34zM1470 631q64 -99 165 -231t159 -199q53 -62 80 -80q16 -14 74 -29 q22 -6 29.5 -16t7.5 -29q0 -34 -37 -37q-105 -16 -291 -16q-36 0 -59 11t-48 40q-83 99 -280 379q-35 49 -51 65q-2 3 -7 9t-7 8.5t-5 7t-4.5 7.5t-3 7t-2 8t-0.5 9q0 27 29 43q1 1 67 41q71 53 178 166q40 46 53 68t13 42t-18 31t-76 31q-31 12 -31 39q0 21 11.5 31 t25.5 10q8 0 90 -3.5t127 -3.5q53 0 101 2t76.5 3.5t35.5 1.5q35 0 35 -39q0 -19 -11.5 -30t-40.5 -24t-38 -18q-26 -14 -52 -33q-38 -27 -88.5 -72.5t-89 -83t-117.5 -116.5z" glyph-name="f_k" horiz-adv-x="1986" unicode="fk"/><glyph d="M831 889h-331v-649q0 -92 28 -111q10 -7 29.5 -16t49 -20.5t36.5 -14.5q31 -12 31 -41q0 -21 -11 -30t-24 -9q-4 0 -48.5 1.5t-109 3t-116.5 1.5q-54 0 -155 -3t-106 -3q-14 0 -24 9t-10 26q0 34 26 43q72 25 90 45q21 21 21 98q0 232 -12 670h-84q-26 0 -39 9t-13 36 q0 29 29 45q65 35 85.5 60t27.5 83q12 116 59.5 210.5t118.5 155.5t160.5 93.5t187.5 32.5q55 0 107 -15q27 -8 38 -20t15 -41q16 -91 16 -184q0 -23 -14.5 -36t-38.5 -13q-36 0 -62 41q-77 109 -81 114q-27 35 -64 35q-23 0 -40 -5t-37.5 -25.5t-33.5 -56.5t-21.5 -103 t-8.5 -160v-131h170q106 0 153 28q26 16 50.5 36.5t49.5 47.5t39 43.5t40.5 50.5t33.5 42q24 30 62 30q43 0 43 -49v-239h186q33 0 33 -33v-64q0 -28 -35 -28h-186q-6 -178 -6 -592q0 -81 28 -108t72 -27t88 14q17 10 37 10q15 0 24 -18q9 -9 9 -27q0 -11 -23 -31 q-53 -49 -146.5 -84.5t-166.5 -35.5q-127 0 -187 98q-41 67 -41 289q0 47 1 230t1 292z" glyph-name="f_t" horiz-adv-x="1394" unicode="ft"/><glyph d="M752 4l-50 -117q99 -10 145 -56t46 -118q0 -157 -223 -235q-85 -29 -154 -29q-25 0 -38 11.5t-13 29.5q0 19 13.5 32t47.5 23q160 50 160 136q0 39 -21.5 63.5t-74.5 34.5q-23 3 -23 16t6 25l80 184q-63 0 -161 -3t-99 -3q-35 0 -35 37q0 26 27 35q16 6 44.5 15.5 t39.5 14t25 12t22 15.5q16 16 16 100q0 111 -5 544t-5 464q-3 61 -14 76q-7 12 -33 16t-92 4q-71 0 -102.5 -8t-61.5 -37q-35 -35 -86 -180q-9 -27 -41 -27q-49 0 -49 37q0 6 4.5 55t9 118t4.5 122q0 37 35 37q18 0 238.5 -2t359.5 -2q75 0 302.5 1t326.5 1q85 0 166 43 q23 12 54.5 30t52.5 29t42.5 22.5t37 17t24.5 5.5q45 0 45 -45q0 -209 -6 -637q241 164 364 164q125 0 197 -96q40 -55 55 -172.5t15 -331.5q0 -19 -2.5 -120t-2.5 -132q0 -73 25 -98q15 -15 90 -49q33 -12 33 -41q0 -22 -9 -29.5t-28 -7.5q-4 0 -37 1.5t-87 3t-109 1.5 q-56 0 -160.5 -3t-110.5 -3q-37 0 -37 35q0 34 25 43q77 30 92 45q21 21 21 100q0 316 -12.5 440t-39.5 166q-38 50 -110 50q-88 0 -170 -35q-8 -272 -8 -619q0 -74 24 -98q15 -15 90 -49q33 -12 33 -41q0 -22 -9 -29.5t-28 -7.5q-4 0 -39 1.5t-91 3t-111 1.5 q-57 0 -157.5 -3t-105.5 -3q-36 0 -36 35q0 34 24 43q73 26 92 45q21 21 21 100q0 48 -4 393t-4 516q0 135 -50 164q-53 37 -381 37q-65 0 -86.5 -4t-29.5 -16q-12 -17 -15 -74q-8 -98 -8 -997q0 -85 21 -109q18 -21 143 -61q29 -10 29 -35q0 -37 -33 -37q-5 0 -49 1.5 t-107 3t-114 1.5z" glyph-name="uni0162_h" horiz-adv-x="2523" unicode="Ţh"/><glyph d="M1739 911q241 164 364 164q125 0 197 -96q40 -55 55 -172.5t15 -331.5q0 -19 -2.5 -120t-2.5 -132q0 -73 25 -98q15 -15 90 -49q33 -12 33 -41q0 -22 -9 -29.5t-28 -7.5q-4 0 -37 1.5t-87 3t-109 1.5q-56 0 -160.5 -3t-110.5 -3q-37 0 -37 35q0 34 25 43q77 30 92 45 q21 21 21 100q0 316 -12.5 440t-39.5 166q-38 50 -110 50q-88 0 -170 -35q-8 -272 -8 -619q0 -74 24 -98q15 -15 90 -49q33 -12 33 -41q0 -22 -9 -29.5t-28 -7.5q-4 0 -39 1.5t-91 3t-111 1.5q-57 0 -157.5 -3t-105.5 -3q-36 0 -36 35q0 34 24 43q73 26 92 45q21 21 21 100 q0 48 -4 393t-4 516q0 135 -50 164q-53 37 -381 37q-65 0 -86.5 -4t-29.5 -16q-12 -17 -15 -74q-8 -98 -8 -997q0 -85 21 -109q18 -21 143 -61q29 -10 29 -35q0 -37 -33 -37q-6 0 -64 1.5t-135.5 3t-130.5 1.5q-69 0 -182.5 -3t-116.5 -3q-35 0 -35 37q0 26 27 35 q16 6 44.5 15.5t39.5 14t25 12t22 15.5q16 16 16 100q0 111 -5 544t-5 464q-3 61 -14 76q-7 12 -33 16t-92 4q-71 0 -102.5 -8t-61.5 -37q-35 -35 -86 -180q-9 -27 -41 -27q-49 0 -49 37q0 6 4.5 55t9 118t4.5 122q0 37 35 37q18 0 238.5 -2t359.5 -2q75 0 302.5 1t326.5 1 q85 0 166 43q23 12 54.5 30t52.5 29t42.5 22.5t37 17t24.5 5.5q45 0 45 -45q0 -209 -6 -637zM866 -305q0 -95 -63 -177.5t-170 -138.5q-48 -26 -74 -26q-16 0 -25.5 13t-9.5 26q0 17 25 33q46 27 75 52t40 47t13.5 34t2.5 30q0 15 -12.5 34t-34.5 30q-32 19 -47 41t-15 61 q0 45 38 80t96 35q76 0 118.5 -45t42.5 -129z" glyph-name="uni021A_h" horiz-adv-x="2523" unicode="Țh"/><glyph d="M0 0v1503h1073v-1503h-1073zM537 848l364 547h-729zM600 752l367 -547v1093zM172 106h729l-364 549zM106 1298v-1093l367 547z" glyph-name=".notdef" horiz-adv-x="1073"/><glyph glyph-name="uni0000" horiz-adv-x="0"/><glyph glyph-name="uni000D" horiz-adv-x="512"/><glyph glyph-name="space" horiz-adv-x="423"/><glyph d="M391 532q-4 -16 -8 -24.5t-16.5 -16.5t-32.5 -8q-26 0 -36.5 13t-16.5 36q-15 88 -39.5 225.5t-36 203.5t-25 148.5t-19 130t-5.5 77.5q0 68 45 110.5t143 42.5q197 0 197 -147q0 -33 -6 -81.5t-22 -130t-30 -148.5t-43.5 -203t-48.5 -228zM500 152q0 -74 -46 -125.5 t-122 -51.5q-84 0 -131 48.5t-47 123.5q0 71 47 121.5t123 50.5q77 0 126.5 -45.5t49.5 -121.5z" glyph-name="exclam" horiz-adv-x="626" unicode="!"/><glyph d="M285 1415q0 -59 -70 -393q-6 -28 -15.5 -37.5t-29.5 -9.5q-22 0 -31 10.5t-14 38.5q-13 78 -32 172t-29.5 147t-10.5 72q0 94 123 94q49 0 79 -24t30 -70zM596 1415q0 -59 -70 -393q-6 -28 -15.5 -37.5t-29.5 -9.5q-22 0 -31 10.5t-14 38.5q-13 77 -32 171.5t-29 147.5 t-10 72q0 94 122 94q49 0 79 -24t30 -70z" glyph-name="quotedbl" horiz-adv-x="649" unicode="&quot;"/><glyph d="M942 408h-207l-96 -394q-6 -22 -29 -22h-65q-25 0 -25 24q0 9 6 33l88 359h-202l-97 -394q-6 -22 -28 -22h-66q-24 0 -24 24q0 9 6 33l88 359h-203q-12 0 -19.5 6.5t-7.5 17.5q0 3 1 7.5t2 11t2 12.5l22 102q4 9 5 12t5 9t10 8t15 2h215l57 231h-202q-12 0 -19.5 7 t-7.5 18q0 3 4 31l23 102q0 1 1.5 5t2 5.5t2 4.5t3 4.5t3 4t3.5 3.5t5 2t6.5 1.5t7.5 0.5h215l82 327q6 27 31 27h70q22 0 22 -20q0 -5 -4 -25l-78 -309h201l82 327q6 27 31 27h69q23 0 23 -20q0 -5 -4 -25l-78 -309h186q31 0 31 -25q0 -7 -4 -35l-21 -100q-10 -29 -34 -29 h-205l-58 -231h187q30 0 30 -25q0 -6 -4 -34l-20 -101q-9 -28 -35 -28zM518 827l-57 -231h201l57 231h-201z" glyph-name="numbersign" horiz-adv-x="1167" unicode="#"/><glyph d="M580 1268v-418q118 -58 194 -113t115 -112t53 -109t14 -121q0 -139 -98.5 -254t-277.5 -143v-166q0 -37 -33 -37h-41q-31 0 -31 35v160h-14q-87 0 -172 13.5t-123 33.5q-23 10 -32.5 26t-16.5 50q-27 165 -27 215q0 57 49 57q20 0 32.5 -10t29.5 -41q47 -91 72.5 -127.5 t50.5 -52.5q58 -43 151 -52v435q-197 95 -277.5 192.5t-80.5 245.5q0 143 97 251t261 140v168q0 37 31 37h43q18 0 24.5 -7t6.5 -30v-160h30q168 0 242 -24q27 -10 36.5 -32t14.5 -71q15 -135 15 -162q0 -47 -46 -47q-19 0 -33 11t-36 49q-38 73 -61.5 104.5t-47.5 42.5 q-38 20 -114 23zM580 479v-368q141 37 141 178q0 101 -141 190zM475 903v354q-61 -19 -99 -60.5t-38 -104.5q0 -54 28 -98t109 -91z" glyph-name="dollar" horiz-adv-x="1032" unicode="$"/><glyph d="M727 985q0 -221 -95.5 -345t-248.5 -124q-155 0 -246.5 115t-91.5 311q0 202 102.5 324.5t249.5 122.5q148 0 239 -110t91 -294zM504 952q0 203 -28 284t-87 81q-121 0 -121 -354q0 -206 28.5 -291.5t92.5 -85.5q58 0 86.5 81t28.5 285zM1065 1366h70q26 0 26 -16 q0 -15 -8 -31l-518 -1290q-4 -10 -5.5 -14.5t-6 -8.5t-11 -5t-18.5 -1h-68q-20 0 -20 18q0 16 8 29l518 1294q4 9 6.5 13t9 8t17.5 4zM1616 442q0 -221 -95.5 -345t-248.5 -124q-155 0 -246.5 115t-91.5 311q0 202 102.5 324.5t249.5 122.5q148 0 239 -110t91 -294z M1393 410q0 203 -28 283.5t-87 80.5q-121 0 -121 -354q0 -206 28.5 -291.5t92.5 -85.5q58 0 86.5 81.5t28.5 285.5z" glyph-name="percent" horiz-adv-x="1660" unicode="%"/><glyph d="M752 834q72 -91 188 -214.5t186 -185.5q69 100 105 203q20 61 20 117q0 33 -22 49q-27 21 -113 43q-35 9 -35 43q0 15 9 28t30 13q9 0 106.5 -2t141.5 -2q29 0 113 2t96 2q39 0 39 -39q0 -32 -31 -41q-47 -15 -72 -28.5t-47 -37.5q-9 -11 -17.5 -22.5t-17.5 -26.5 t-13.5 -23t-15 -28.5t-13.5 -26.5q-102 -186 -183 -295q103 -91 161.5 -118t113.5 -27q43 0 102 35q19 14 35 14q17 0 30 -12t13 -29q0 -18 -43 -69q-82 -95 -153 -142t-152 -47q-43 0 -73 4.5t-73 19.5t-92 49.5t-108 90.5q-96 -76 -202.5 -120t-258.5 -44q-60 0 -121 12.5 t-122.5 42.5t-109 73.5t-77 112t-29.5 152.5q0 136 87 230t263 162q-127 174 -127 319q0 46 14.5 94t48.5 96t83 85t124 60.5t165 23.5q152 0 245.5 -67t93.5 -198q0 -58 -26 -110t-73.5 -93.5t-91 -69.5t-101.5 -58zM698 901q158 113 158 279q0 66 -40 108.5t-111 42.5 q-51 0 -94.5 -41.5t-43.5 -118.5q0 -110 131 -270zM459 672q-46 -49 -66 -104.5t-20 -141.5q0 -115 77.5 -194.5t190.5 -79.5q158 0 240 61q-114 104 -241 240.5t-181 218.5z" glyph-name="ampersand" horiz-adv-x="1683" unicode="&amp;"/><glyph d="M285 1415q0 -59 -70 -393q-6 -28 -15.5 -37.5t-29.5 -9.5q-22 0 -31 10.5t-14 38.5q-13 78 -32 172t-29.5 147t-10.5 72q0 94 123 94q49 0 79 -24t30 -70z" glyph-name="quotesingle" horiz-adv-x="337" unicode="'"/><glyph d="M559 -375q-473 391 -473 973q0 293 129.5 544.5t345.5 428.5q30 24 55 24q19 0 31 -12q15 -15 15 -33q0 -17 -19 -39q-164 -195 -225.5 -404t-61.5 -509q0 -266 71 -502t220 -415q17 -24 17 -35q0 -18 -13 -31q-14 -14 -37 -14q-24 0 -55 24z" glyph-name="parenleft" horiz-adv-x="671" unicode="("/><glyph d="M113 1571q473 -391 473 -973q0 -293 -129.5 -543t-345.5 -430q-30 -24 -56 -24q-18 0 -30 12q-15 15 -15 33q0 17 19 39q164 195 225 403.5t61 509.5q0 267 -70.5 503t-219.5 415q-17 24 -17 34q0 19 12 31q14 14 37 14q25 0 56 -24z" glyph-name="parenright" horiz-adv-x="671" unicode=")"/><glyph d="M487 1116q35 -16 114.5 -28t109.5 -29q28 -12 28 -49q0 -36 -28 -76.5t-62 -40.5q-32 0 -71 39q-10 10 -33 36t-45 47.5t-47 39.5q5 -47 30 -124.5t25 -111.5q0 -61 -92 -61t-92 57q0 39 26 115.5t29 124.5q-17 -11 -36 -30t-44.5 -48t-36.5 -41q-43 -49 -82 -49 q-33 0 -62.5 35.5t-29.5 78.5q0 37 31 52q34 17 111.5 31t113.5 30q-50 23 -120.5 35.5t-104 25t-33.5 44.5q0 49 30 88t66 39q22 0 43 -22t61.5 -67t92.5 -81q-3 47 -29 128.5t-26 108.5q0 57 92 57q46 0 69 -12t23 -45q0 -15 -26 -105.5t-29 -131.5q23 13 46 33.5t36.5 36 t35.5 42.5q44 55 78 55q26 0 47 -18q43 -40 43 -90q0 -46 -41 -57q-27 -8 -71 -16.5t-76 -18.5t-64 -27z" glyph-name="asterisk" horiz-adv-x="827" unicode="*"/><glyph d="M848 537v-461q0 -31 -31 -31h-135q-31 0 -31 31v461h-428q-30 0 -30 30v123q0 31 30 31h426v461q0 30 31 30h137q31 0 31 -30v-461h426q31 0 31 -31v-123q0 -30 -31 -30h-426z" glyph-name="plus" horiz-adv-x="1497" unicode="+"/><glyph d="M436 57q0 -127 -74.5 -238.5t-201.5 -185.5q-61 -36 -101 -36q-15 0 -22.5 13t-7.5 28q0 20 28 36q56 37 92.5 73t51.5 68t19.5 54t4.5 49q0 66 -59 96q-78 45 -78 133q0 59 43 101.5t107 42.5q90 0 144 -62t54 -172z" glyph-name="comma" horiz-adv-x="530" unicode=","/><glyph d="M86 473v139q0 41 37 41h438q37 0 37 -35v-143q0 -33 -35 -33h-448q-29 0 -29 31z" glyph-name="hyphen" horiz-adv-x="684" unicode="-"/><glyph d="M446 152q0 -75 -45.5 -126t-121.5 -51q-84 0 -131.5 48.5t-47.5 123.5q0 71 47 121.5t123 50.5q77 0 126.5 -45.5t49.5 -121.5z" glyph-name="period" horiz-adv-x="546" unicode="."/><glyph d="M4 -102l672 1607q7 16 15 23.5t24 7.5h80q24 0 24 -23q0 -6 -6 -24l-674 -1612q-12 -27 -37 -27h-79q-25 0 -25 23q0 10 6 25z" glyph-name="slash" horiz-adv-x="862" unicode="/"/><glyph d="M1098 729q0 -187 -38.5 -333t-108 -240t-163.5 -142.5t-208 -48.5q-238 0 -378.5 183.5t-140.5 508.5q0 173 44 315t119 234t172.5 141.5t205.5 49.5q225 0 360.5 -178.5t135.5 -489.5zM770 606q0 354 -46.5 519t-148.5 165q-186 0 -186 -540q0 -362 47 -520t160 -158 q86 0 130 126.5t44 407.5z" glyph-name="zero" horiz-adv-x="1159" unicode="0"/><glyph d="M791 1346q0 -17 -3.5 -211t-6.5 -453.5t-3 -435.5q0 -86 19 -107q29 -33 153 -65q29 -10 29 -41q0 -35 -33 -35q-6 0 -58 1.5t-124 3t-125 1.5q-69 0 -205.5 -3t-138.5 -3q-37 0 -37 35q0 31 29 41q16 5 47 15t45 15t31 13t26 16q21 16 21 105q0 529 -4 706 q-2 122 -29 146q-36 28 -131 28q-13 0 -23 10.5t-10 24.5q0 34 27 43q61 24 193 82.5t173 79.5q80 39 99 39t29 -10.5t10 -40.5z" glyph-name="one" horiz-adv-x="1159" unicode="1"/><glyph d="M362 233q90 0 186 2.5t132 2.5q81 2 120.5 9t61.5 29t76 132q11 26 47 26q22 0 32.5 -9.5t10.5 -23.5t-11 -159.5t-18 -212.5q-3 -29 -26 -29q-13 0 -205.5 1t-243.5 1q-101 0 -268.5 -2t-185.5 -2q-39 0 -39 39q0 23 24 47q315 308 466 533t151 399q0 274 -197 274 q-67 0 -110 -35q-21 -15 -44.5 -53t-72.5 -135q-20 -39 -55 -39q-46 0 -46 39q0 68 17 168q7 53 15 73t32 31q119 58 297 58q493 0 493 -363q0 -50 -8.5 -96t-29 -91t-42 -82.5t-62 -83t-72.5 -79t-90 -84.5t-99 -86t-114.5 -96.5t-121.5 -102.5z" glyph-name="two" horiz-adv-x="1159" unicode="2"/><glyph d="M573 729q220 -7 335.5 -101.5t115.5 -242.5q0 -109 -43.5 -191.5t-124 -133.5t-188.5 -76t-242 -25q-166 0 -252 37q-32 11 -41 53q-7 34 -15.5 108t-8.5 99q0 53 47 53q19 0 30.5 -10t24.5 -35q48 -84 71 -118t46 -50q43 -30 112 -30q128 0 191 86.5t63 224.5 q0 118 -64.5 194.5t-164.5 81.5q-47 2 -100 2q-46 0 -46 52q0 30 35 43q91 19 109 24q55 18 91.5 50t53 77.5t22 88t5.5 100.5q0 98 -48 150t-116 52q-60 0 -100 -22q-47 -24 -119 -172q-18 -35 -51 -35q-41 0 -41 39q0 20 8.5 92t15.5 102q6 36 41 54q107 47 254 47 q108 0 191 -16t136 -44t86 -68.5t46.5 -85t13.5 -98.5q0 -267 -379 -356z" glyph-name="three" horiz-adv-x="1159" unicode="3"/><glyph d="M578 381h-469q-35 0 -50.5 9.5t-15.5 37.5q0 22 10.5 43.5t38.5 60.5q496 711 574 814q19 25 37 32.5t49 7.5h79q62 0 62 -65v-743h180q43 0 43 -39q0 -36 -10 -107q-5 -27 -14.5 -38t-36.5 -11h-164q0 -2 -1 -55.5t-1 -81.5q0 -89 18 -107q5 -5 12 -10t18 -10t19.5 -8.5 t24.5 -9t24 -8t27 -8t25 -7.5q26 -7 26 -43q0 -37 -34 -37q-3 0 -112 3t-177 3q-53 0 -130 -1.5t-134.5 -3t-63.5 -1.5q-37 0 -37 37q0 34 33 43q43 14 64.5 22t42 20.5t27 19t12.5 27t6 35v50.5q0 22 -1 72.5t-1 56.5zM575 578v452q-14 -22 -119.5 -177t-185.5 -275h305z" glyph-name="four" horiz-adv-x="1159" unicode="4"/><glyph d="M397 1118l-26 -207q655 0 655 -471q0 -144 -81.5 -254.5t-219.5 -168.5t-307 -58q-147 0 -219 35q-23 11 -32 21.5t-13 35.5q-17 122 -17 223q0 50 49 50q17 0 28.5 -10.5t25.5 -37.5q6 -11 17 -32.5t15.5 -30t13 -23.5t13 -22.5t12 -18t14 -18t13.5 -14.5 q52 -49 125 -49q122 2 183 78.5t61 244.5q0 103 -58 169.5t-152.5 94t-226.5 27.5q-34 0 -34 35q0 19 4 55l67 557q6 35 47 35h600q41 0 41 -33q0 -4 -5 -85.5t-5 -90.5q-5 -22 -12.5 -29.5t-30.5 -7.5h-545z" glyph-name="five" horiz-adv-x="1159" unicode="5"/><glyph d="M711 1298q-22 0 -43 -4t-49.5 -17.5t-53.5 -36.5t-51.5 -64t-46.5 -95.5t-36 -136.5t-23 -182q40 45 114.5 78.5t155.5 33.5q183 0 294 -113t111 -296q0 -222 -135.5 -361t-345.5 -139q-228 0 -364 177.5t-136 486.5q0 171 49.5 316.5t133.5 243.5t197 153t239 55 q159 0 235 -33q24 -10 31.5 -24.5t9.5 -41.5q15 -118 15 -194q0 -24 -13.5 -36.5t-33.5 -12.5q-38 0 -58 45q-44 87 -65 121.5t-43 52.5q-35 24 -88 24zM422 446q0 -190 44 -284t140 -94q52 0 87.5 32.5t56 113t20.5 208.5q0 330 -168 330q-83 0 -131.5 -84.5t-48.5 -221.5z" glyph-name="six" horiz-adv-x="1159" unicode="6"/><glyph d="M840 1118h-379q-155 0 -185 -24q-20 -12 -36 -32t-50 -81q-16 -29 -45 -29q-39 0 -39 39q0 13 33 336q4 37 35 37q5 0 125 -0.5t325 -1t418 -0.5q37 0 37 -25q0 -13 -8 -32q-327 -757 -557 -1315q-19 -53 -90 -53q-72 0 -72 51q0 23 17 69q73 174 147 340.5t170.5 379 t153.5 341.5z" glyph-name="seven" horiz-adv-x="1159" unicode="7"/><glyph d="M356 662q-115 84 -158.5 161t-43.5 183q0 75 32 145t88 125t139.5 88t180.5 33q178 0 288.5 -84.5t110.5 -229.5q0 -184 -223 -290q156 -88 221.5 -183t65.5 -225q0 -81 -32 -155.5t-92 -134t-156.5 -95t-215.5 -35.5q-203 0 -331 98.5t-128 255.5q0 213 254 343z M434 618q-68 -60 -101.5 -134t-33.5 -148q0 -128 70 -199t194 -71q97 0 157 57.5t60 144.5q0 71 -27.5 120.5t-101 103.5t-217.5 126zM688 831q119 113 119 254q0 94 -56.5 152.5t-154.5 58.5q-72 0 -124 -50.5t-52 -133.5q0 -39 10 -70t37 -66t82 -71t139 -74z" glyph-name="eight" horiz-adv-x="1159" unicode="8"/><glyph d="M467 63q33 0 65 12t69.5 48t67 93t54 157.5t33.5 232.5q-40 -45 -115 -78.5t-156 -33.5q-183 0 -290 111.5t-107 293.5q0 222 132.5 360t340.5 138q228 0 364 -175.5t136 -484.5q0 -172 -46 -316.5t-127 -244.5t-194 -155.5t-245 -55.5q-66 0 -147.5 9.5t-117.5 27.5 q-24 11 -31.5 33.5t-13.5 70.5q-10 92 -10 150q0 25 14 39t35 14q23 0 35 -9.5t23 -33.5q46 -86 68 -119t48 -55q43 -29 115 -29zM741 918q0 190 -44 283t-140 93q-168 0 -168 -352q0 -326 172 -326q84 0 132 82.5t48 219.5z" glyph-name="nine" horiz-adv-x="1159" unicode="9"/><glyph d="M483 152q0 -74 -46 -125.5t-122 -51.5q-84 0 -131 48.5t-47 123.5q0 71 47 121.5t123 50.5q77 0 126.5 -45.5t49.5 -121.5zM483 856q0 -74 -46 -125t-122 -51q-84 0 -131 48.5t-47 123.5q0 71 47 121.5t123 50.5q77 0 126.5 -45.5t49.5 -122.5z" glyph-name="colon" horiz-adv-x="583" unicode=":"/><glyph d="M489 57q0 -127 -74.5 -238.5t-201.5 -185.5q-61 -36 -100 -36q-16 0 -23.5 13t-7.5 28q0 20 29 36q56 37 92.5 73t51.5 68t19.5 54t4.5 49q0 61 -60 96q-78 41 -78 133q0 59 42.5 101.5t107.5 42.5q90 0 144 -62t54 -172zM483 856q0 -74 -46 -125t-122 -51 q-84 0 -131 48.5t-47 123.5q0 71 47 121.5t123 50.5q77 0 126.5 -45.5t49.5 -122.5z" glyph-name="semicolon" horiz-adv-x="583" unicode=";"/><glyph d="M1198 248v-158q0 -27 -20 -27q-7 0 -17 5l-901 432q-22 9 -22 35v149q0 22 22 35l901 446q16 4 17 4q20 0 20 -26v-154q0 -26 -22 -35l-727 -342l727 -329q22 -13 22 -35z" glyph-name="less" horiz-adv-x="1497" unicode="&lt;"/><glyph d="M1305 905v-123q0 -30 -31 -30h-1051q-30 0 -30 30v123q0 31 30 31h1051q31 0 31 -31zM1305 479v-123q0 -30 -31 -30h-1051q-30 0 -30 30v123q0 31 30 31h1051q31 0 31 -31z" glyph-name="equal" horiz-adv-x="1497" unicode="="/><glyph d="M299 981v168q0 27 20 27q7 0 17 -5l901 -432q23 -13 23 -34v-166q0 -25 -23 -35l-901 -447q-16 -4 -17 -4q-20 0 -20 27v160q0 21 23 34l727 342l-727 330q-23 10 -23 35z" glyph-name="greater" horiz-adv-x="1497" unicode="&gt;"/><glyph d="M389 588q-3 -8 -4.5 -18.5t-3.5 -28.5t-4 -33q-4 -31 -51 -31q-44 0 -47 37q-15 158 -15 160q0 53 6.5 86t26.5 61t44 47t73 52q67 44 107 104t40 117q0 213 -164 213q-59 0 -102 -25q-28 -16 -84 -131q-17 -39 -55 -39q-45 0 -45 45q0 64 8 127q6 56 17 77t36 32 q70 30 221 30q105 0 192 -21t154.5 -63.5t105.5 -114t38 -165.5q0 -134 -88 -220.5t-308 -189.5q-53 -25 -71.5 -47t-26.5 -61zM510 152q0 -74 -46 -125.5t-122 -51.5q-84 0 -131 48.5t-47 123.5q0 71 47 121.5t123 50.5q77 0 126.5 -45.5t49.5 -121.5z" glyph-name="question" horiz-adv-x="948" unicode="?"/><glyph d="M877 188q-119 -159 -254 -159q-91 0 -137 57.5t-46 159.5q0 77 22.5 157.5t70 157.5t113 137t160 96.5t202.5 36.5q58 0 94 -12l16 15q31 36 74 36q24 0 37.5 -11.5t13.5 -29.5q0 -32 -16 -79q-13 -44 -119 -424q-21 -74 -21 -127q0 -16 9 -24.5t22 -8.5q70 0 130.5 60 t97 165t36.5 227q0 214 -124 345t-351 131q-127 0 -241.5 -56t-197.5 -151t-132 -227.5t-49 -280.5q0 -276 171.5 -431t448.5 -155q90 0 195 26t184 68q17 13 41 13q18 0 31.5 -16.5t13.5 -41.5q0 -26 -37 -47q-101 -68 -228.5 -106.5t-256.5 -38.5q-212 0 -383 86t-272 250 t-101 379q0 177 65.5 336.5t176.5 274t264 182t322 67.5q184 0 328.5 -79t223 -214.5t78.5 -302.5q0 -104 -38.5 -200t-101 -166.5t-139 -124t-155 -80.5t-147.5 -27q-41 0 -71 22.5t-30 71.5q0 34 7 63zM891 272q12 41 39.5 135.5t44.5 153.5q31 122 31 150q0 21 -21.5 30 t-44.5 9q-74 0 -139.5 -82.5t-100 -193t-34.5 -206.5q0 -43 17 -68.5t46 -25.5q75 0 162 98z" glyph-name="at" horiz-adv-x="1642" unicode="@"/><glyph d="M500 614h309q-84 217 -150 410q-23 -57 -86.5 -222.5t-72.5 -187.5zM842 504h-381q-71 -186 -91 -247.5t-20 -100.5q0 -36 25 -52q8 -5 16.5 -8.5t15.5 -5.5t22.5 -6.5t29.5 -9.5q21 -7 30 -15.5t9 -27.5q0 -33 -31 -33q-7 0 -91 2t-128 2q-30 0 -112.5 -2t-94.5 -2 q-41 0 -41 37q0 22 7 29t26 12q41 12 60.5 20.5t44 33t44 63t51.5 112.5q217 508 449 1084q23 59 41.5 78.5t48.5 19.5q29 0 42 -14.5t32 -59.5q14 -38 58.5 -163t82.5 -228t113 -302.5t164 -426.5q48 -127 81.5 -164.5t116.5 -52.5q27 -6 27 -39q0 -39 -31 -39q-8 0 -90 2 t-125 2q-44 0 -243 -2t-205 -2q-16 0 -24.5 11t-8.5 26q0 22 9 30t30 13q96 21 117 39q22 19 22 51q0 46 -87 302q-7 22 -11 34z" glyph-name="A" horiz-adv-x="1507" unicode="A"/><glyph d="M348 4q-68 0 -177 -3t-112 -3q-34 0 -34 37q0 30 26 39q8 2 22.5 7t20 6.5t16 5t15 5.5t12 5t11.5 5t9.5 5.5t9 6.5t7.5 7q16 16 16 96q0 104 -4 517.5t-4 482.5q0 76 -16 94q-8 8 -20.5 15t-22.5 10.5t-37 11.5t-43 14q-27 9 -27 41q0 19 10 29t25 10q4 0 116.5 -3 t180.5 -3q39 0 176 2t193 2q92 0 166 -8t145 -30.5t119 -59.5t77 -98t29 -142q0 -120 -84 -207t-258 -127q189 -12 300.5 -106t111.5 -250q0 -142 -77.5 -237.5t-211.5 -139t-319 -43.5q-26 0 -168 3t-199 3zM520 700q0 -487 4 -526q2 -19 9.5 -30.5t29.5 -18.5 q37 -12 121 -12q143 0 213 77t70 211q0 301 -342 301q-62 0 -105 -2zM520 807q31 -2 101 -2q43 2 78.5 9t76 26t68.5 48.5t46.5 81.5t18.5 120q0 57 -17 102.5t-44.5 74.5t-65 48t-76.5 27t-81 8q-47 0 -67 -7t-26 -26q-8 -21 -8 -94q0 -70 -2 -220.5t-2 -195.5z" glyph-name="B" horiz-adv-x="1378" unicode="B"/><glyph d="M852 1354q-88 0 -164 -37t-137 -110.5t-96 -196t-35 -281.5q0 -116 30.5 -210t79.5 -154.5t115.5 -101t135.5 -58t141 -17.5q136 0 252 45q4 1 17 7t22.5 9t15.5 3q18 0 29.5 -15.5t11.5 -35.5q0 -19 -21 -37q-37 -32 -79.5 -61.5t-106.5 -63.5t-144 -54t-163 -20 q-97 0 -191.5 26t-184.5 83.5t-158 140t-109 206t-41 271.5q0 166 61 310t174 250.5t283.5 167.5t378.5 61q47 0 115 -8t96 -21q46 -21 49 -72q10 -78 10 -211q0 -38 -11.5 -50.5t-37.5 -12.5q-24 0 -37 12.5t-41 55.5q-47 74 -72.5 106.5t-52.5 48.5q-48 25 -135 25z" glyph-name="C" horiz-adv-x="1333" unicode="C"/><glyph d="M348 1442q45 0 139 2t144 2q856 0 856 -684q0 -191 -64.5 -337.5t-183 -239.5t-281.5 -140t-366 -47q-42 0 -128.5 3t-115.5 3q-68 0 -177 -3t-112 -3q-34 0 -34 37q0 30 26 39q8 2 22.5 7t20 6.5t16 5t15 5.5t12 5t11.5 5t9.5 5.5t9 6.5t7.5 7q16 16 16 96 q0 104 -4 517.5t-4 482.5q0 76 -16 94q-8 8 -20.5 15t-22.5 10.5t-37 11.5t-43 14q-27 9 -27 41q0 19 10 29t25 10q4 0 116.5 -3t180.5 -3zM526 1223q0 -155 -1.5 -388t-3 -410.5t-1.5 -197.5q0 -54 15 -74.5t57 -31.5q52 -10 102 -10q215 0 318.5 163t103.5 465 q0 146 -26 256t-82.5 191t-152 122.5t-228.5 41.5q-47 0 -66.5 -7t-25.5 -26q-9 -24 -9 -94z" glyph-name="D" horiz-adv-x="1558" unicode="D"/><glyph d="M518 799q142 0 268 12q83 11 103 33q21 24 59 112q13 37 51 37q41 0 41 -37q0 -5 -1 -66.5t-1 -115.5t0.5 -105t1 -82t0.5 -38q0 -39 -41 -39q-39 0 -53 39q-42 96 -65 119q-24 18 -105 24q-95 10 -258 10q0 -16 -1 -171.5t-1 -229.5q0 -68 6 -99.5t27 -47.5 q31 -22 86.5 -29.5t159.5 -7.5q102 0 150.5 11t74.5 32q34 24 113 200q15 35 55 35q45 0 45 -49q0 -26 -5 -145.5t-9 -165.5q-3 -37 -39 -37q-97 0 -296.5 1.5t-363 3t-172.5 1.5q-68 0 -177 -3t-112 -3q-34 0 -34 37q0 30 26 39q15 5 37 12.5t31.5 10.5t21.5 8t19 10t14 12 q16 16 16 96q0 104 -4 517.5t-4 482.5q0 76 -16 94q-8 8 -20.5 15t-22.5 10.5t-37 11.5t-43 14q-27 9 -27 41q0 19 10 29t25 10q3 0 112 -2t177 -2q9 0 154 1t326.5 2t277.5 1q41 0 41 -37q8 -148 8 -272q0 -41 -47 -41q-37 0 -51 32q-7 15 -16.5 34t-15 29.5t-12.5 24.5 t-11.5 22t-9.5 17.5t-9 15l-8 11t-7.5 9.5t-7.5 7q-26 22 -81 31.5t-201 9.5q-117 0 -133 -16q-3 -3 -5 -6t-3 -5.5t-2 -7t-2 -7t-1.5 -9t-0.5 -10t-0.5 -12t-0.5 -13.5q-4 -93 -4 -456z" glyph-name="E" horiz-adv-x="1296" unicode="E"/><glyph d="M190 223q0 104 -4 517.5t-4 482.5q0 76 -16 94q-8 8 -20.5 15t-22.5 10.5t-37 11.5t-43 14q-27 9 -27 41q0 19 10 29t25 10q3 0 112 -2t177 -2q10 0 148.5 1t313.5 2t273 1q22 0 30.5 -8.5t10.5 -28.5q8 -156 8 -287q0 -39 -47 -39q-35 0 -51 31q-63 138 -79 162 q-9 12 -19 22q-23 23 -80 32t-184 9q-111 0 -127 -16q-3 -3 -5 -6t-3 -5.5t-2 -7t-2 -7t-1.5 -9t-0.5 -10t-0.5 -12t-0.5 -13.5q-4 -94 -4 -473q114 0 246 13q80 10 102 32q30 30 58 113q9 35 53 35q41 0 41 -35q0 -5 -1 -66.5t-1 -115.5t0.5 -105t1 -82.5t0.5 -38.5 q0 -36 -41 -36q-44 0 -53 36q-23 65 -34.5 86.5t-29.5 32.5q-29 19 -106 25q-98 10 -236 10q0 -17 -2 -205t-2 -245q0 -51 9 -71t30 -34q13 -8 152 -57q28 -9 28 -39q0 -37 -33 -37q-6 0 -67 1.5t-141.5 3t-133.5 1.5q-68 0 -182.5 -3t-116.5 -3q-34 0 -34 37q0 30 26 39 q8 2 22.5 7t20 6.5t16 5t15 5.5t12 5t11.5 5t9.5 5.5t9 6.5t7.5 7q16 16 16 96z" glyph-name="F" horiz-adv-x="1187" unicode="F"/><glyph d="M993 438q-2 48 -5 65t-13 29q-23 23 -123 54q-27 9 -27 41q0 35 35 35q7 0 70 -2t145.5 -3.5t136.5 -1.5q68 0 133 3.5t68 3.5q37 0 37 -41q0 -17 -5 -24t-22 -13q-10 -4 -25 -9.5t-21.5 -8t-15 -6.5t-13.5 -8t-9 -9q-20 -23 -20 -94q0 -11 1 -91t1 -122t5 -82t5 -45 q0 -23 -20 -37q-65 -42 -212 -74.5t-302 -32.5q-151 0 -282 47t-230 136t-156 227.5t-57 310.5q0 364 253 579.5t697 215.5q148 0 225 -27q25 -8 37 -23t16 -49q11 -108 11 -213q0 -36 -12 -49.5t-37 -13.5q-22 0 -37.5 14.5t-40.5 53.5q-44 73 -68 106t-47 45 q-50 29 -172 29q-99 0 -180 -34.5t-135.5 -93.5t-91.5 -139.5t-53.5 -170t-16.5 -187.5q0 -129 24 -235.5t65 -178.5t96 -121t116.5 -71.5t128.5 -22.5q90 0 119 27q26 20 26 102q0 119 -2 209z" glyph-name="G" horiz-adv-x="1486" unicode="G"/><glyph d="M1362 1208q0 -18 -2 -437t-2 -535q0 -85 18 -105q4 -4 10 -8.5t12.5 -7.5t20 -8t24.5 -8.5t33 -11t40 -13.5q28 -9 28 -39q0 -37 -33 -37q-5 0 -61 1.5t-132.5 3t-129.5 1.5q-68 0 -177 -3t-112 -3q-35 0 -35 37q0 30 27 39q8 2 22.5 7t20 6.5t16 5t15 5.5t12 5t11.5 5 t9.5 5.5t9 6.5t7.5 7q16 16 16 96q0 39 -1 155.5t-2 217.5t-1 102h-506q0 -4 -0.5 -88.5t-1 -195.5t-0.5 -178q0 -84 19 -105q3 -4 7.5 -7t11.5 -6.5t13.5 -6.5t19 -7.5t23 -8t29.5 -10t35 -11.5q29 -10 29 -39q0 -37 -33 -37q-5 0 -61.5 1.5t-133 3t-129.5 1.5 q-68 0 -177 -3t-112 -3q-34 0 -34 37q0 30 26 39q8 2 22.5 7t20 6.5t16 5t15 5.5t12 5t11.5 5t9.5 5.5t9 6.5t7.5 7q16 16 16 96q0 104 -4 517.5t-4 482.5q0 76 -16 94q-8 8 -20.5 15t-22.5 10.5t-37 11.5t-43 14q-27 9 -27 41q0 19 10 29t25 10q4 0 116.5 -3t180.5 -3 q53 0 130 1.5t134.5 3t63.5 1.5q33 0 33 -39q0 -31 -29 -41q-22 -7 -47 -15.5t-37 -12.5t-24.5 -8.5t-19 -9t-11.5 -9.5q-19 -21 -19 -105q0 -9 -0.5 -70t-1 -153t-0.5 -178h504q-2 182 -2 416q0 76 -16 94q-8 8 -20.5 15t-22.5 10.5t-37 11.5t-43 14q-27 9 -27 41 q0 19 10 29t25 10q4 0 116.5 -3t180.5 -3q53 0 130 1.5t134.5 3t63.5 1.5q32 0 32 -39q0 -32 -28 -41q-22 -8 -47 -16t-37 -12t-25 -8.5t-19.5 -9t-11.5 -9.5q-18 -20 -18 -105z" glyph-name="H" horiz-adv-x="1579" unicode="H"/><glyph d="M522 1208q0 -18 -2 -437t-2 -535q0 -84 19 -105q3 -4 7.5 -7t11.5 -6.5t13.5 -6.5t19 -7.5t23 -8t29.5 -10t35 -11.5q29 -10 29 -39q0 -37 -33 -37q-5 0 -61.5 1.5t-133 3t-129.5 1.5q-68 0 -177 -3t-112 -3q-34 0 -34 37q0 30 26 39q8 2 22.5 7t20 6.5t16 5t15 5.5t12 5 t11.5 5t9.5 5.5t9 6.5t7.5 7q16 16 16 96q0 104 -4 517.5t-4 482.5q0 76 -16 94q-8 8 -20.5 15t-22.5 10.5t-37 11.5t-43 14q-27 9 -27 41q0 19 10 29t25 10q4 0 116.5 -3t180.5 -3q53 0 130 1.5t134.5 3t63.5 1.5q33 0 33 -39q0 -31 -29 -41q-22 -7 -47 -15.5t-37 -12.5 t-24.5 -8.5t-19 -9t-11.5 -9.5q-19 -21 -19 -105z" glyph-name="I" horiz-adv-x="739" unicode="I"/><glyph d="M221 150q0 109 -4 559.5t-4 492.5q0 87 -20 107q-7 7 -17 12.5t-25.5 11.5t-28.5 10.5t-36.5 12t-38.5 12.5q-27 9 -27 41q0 19 10 29t25 10q4 0 130 -3t194 -3q53 0 123.5 1.5t121 3t56.5 1.5q33 0 33 -39q0 -31 -29 -41q-90 -28 -113 -51q-11 -11 -14.5 -32.5 t-3.5 -76.5q0 -20 1 -436.5t1 -533.5q0 -148 -45.5 -266.5t-120.5 -190.5t-166 -110t-188 -38q-45 0 -94 9q-36 6 -45 41q-7 26 -14 83t-7 82q0 43 41 43q32 0 53 -36q9 -16 17.5 -28t16 -21t12.5 -13.5t11.5 -11l8.5 -8.5q25 -25 65 -25q27 0 46 14t37.5 54t28 123.5 t9.5 210.5z" glyph-name="J" horiz-adv-x="749" unicode="J"/><glyph d="M522 1208q0 -18 -2 -437t-2 -535q0 -84 19 -105q3 -4 7.5 -7t11.5 -6.5t13.5 -6.5t19 -7.5t23 -8t29.5 -10t35 -11.5q29 -10 29 -39q0 -37 -33 -37q-5 0 -61.5 1.5t-133 3t-129.5 1.5q-68 0 -177 -3t-112 -3q-34 0 -34 37q0 30 26 39q8 2 22.5 7t20 6.5t16 5t15 5.5t12 5 t11.5 5t9.5 5.5t9 6.5t7.5 7q16 16 16 96q0 104 -4 517.5t-4 482.5q0 76 -16 94q-8 8 -20.5 15t-22.5 10.5t-37 11.5t-43 14q-27 9 -27 41q0 19 10 29t25 10q4 0 116.5 -3t180.5 -3q53 0 130 1.5t134.5 3t63.5 1.5q33 0 33 -39q0 -31 -29 -41q-22 -7 -47 -15.5t-37 -12.5 t-24.5 -8.5t-19 -9t-11.5 -9.5q-19 -21 -19 -105zM838 842q131 -188 456 -609q61 -74 107 -102q44 -29 98 -43q35 -6 35 -45q0 -34 -39 -37q-105 -10 -238 -10q-76 0 -116 4q-43 6 -73.5 19.5t-70.5 56.5q-48 51 -155 211q-161 235 -267 379q-17 23 -22.5 35.5t-5.5 29.5 q0 27 39 53q42 28 90 76q166 162 270 295q72 98 72 150q0 22 -23.5 37t-85.5 26q-30 6 -30 37q0 43 32 43q7 0 104 -3t144 -3q43 0 101 1.5t101 3t48 1.5q33 0 33 -41q0 -30 -33 -39q-90 -23 -145 -78q-2 -3 -151.5 -156.5t-274.5 -291.5z" glyph-name="K" horiz-adv-x="1531" unicode="K"/><glyph d="M522 1221q0 -24 -1.5 -166.5t-3 -352.5t-1.5 -397q0 -68 6 -99.5t27 -47.5q32 -24 88 -30.5t154 -6.5q152 0 194 31q11 6 19 14.5t18 26t18.5 35.5t27.5 57t38 75q9 15 13.5 21t14.5 11t25 5q49 0 49 -47q0 -55 -14 -323q-3 -29 -27 -29q-97 0 -293.5 1.5t-356.5 3 t-169 1.5q-68 0 -177 -3t-112 -3q-34 0 -34 37q0 30 26 39q8 2 22.5 7t20 6.5t16 5t15 5.5t12 5t11.5 5t9.5 5.5t9 6.5t7.5 7q16 16 16 96q0 104 -4 517.5t-4 482.5q0 76 -16 94q-8 8 -20.5 15t-22.5 10.5t-37 11.5t-43 14q-27 9 -27 41q0 19 10 29t25 10q4 0 116.5 -3 t180.5 -3q53 0 130 1.5t134.5 3t63.5 1.5q33 0 33 -39q0 -31 -29 -41q-22 -7 -47 -15.5t-37 -12.5t-24.5 -8.5t-19 -9t-11.5 -9.5q-19 -21 -19 -92z" glyph-name="L" horiz-adv-x="1247" unicode="L"/><glyph d="M922 545q181 405 317 741q11 25 29.5 73.5t21.5 55.5q4 10 7 15.5t10 10.5t18 5q5 0 92.5 -1t108.5 -1q22 0 115 2t98 2q22 0 32.5 -9t10.5 -34q0 -32 -35 -41q-105 -28 -123 -51q-15 -17 -17.5 -41t-2.5 -107v-43q0 -308 26 -882q3 -87 23 -109q18 -21 110 -55 q29 -13 29 -41q0 -37 -33 -37q-7 0 -63 1.5t-132 3t-130 1.5q-69 0 -170 -3t-103 -3q-35 0 -35 37q0 32 27 41q91 29 119 51q22 19 22 78q0 488 -18 868q-35 -84 -170.5 -390t-237.5 -554q-5 -12 -20.5 -22.5t-34.5 -10.5q-44 0 -55 33q-247 582 -406 934q-20 -513 -20 -842 q0 -75 24 -94q28 -26 142 -53q28 -7 28 -43q0 -33 -34 -33q-2 0 -86 3t-152 3q-54 0 -99 -1.5t-70 -3t-32 -1.5q-39 0 -39 35t29 43q58 13 81 24t36 29q18 23 28 115q5 101 19 340t22.5 403t8.5 225t-15 88q-12 23 -38.5 35.5t-94.5 30.5q-27 6 -27 41q0 21 11.5 31t27.5 10 q3 0 88.5 -2t153.5 -2q29 0 100.5 2t77.5 2q23 0 31 -18q21 -65 39 -109q19 -46 74.5 -177t133 -311.5t122.5 -287.5z" glyph-name="M" horiz-adv-x="1843" unicode="M"/><glyph d="M336 1130q8 -757 18 -909q3 -75 27 -94q32 -27 143 -51q29 -8 29 -41q0 -37 -35 -37q-2 0 -81 3t-148 3q-54 0 -106.5 -1.5t-85.5 -3t-40 -1.5q-39 0 -39 39q0 31 29 41q113 32 133 55q20 29 23 105q10 344 10 981q0 54 -23 77q-43 50 -157 72q-27 7 -27 41q0 19 12 29 t27 10q8 0 117 -2t157 -2q17 0 83.5 1t80.5 1q24 0 38 -9t32 -34q29 -40 100 -131.5t143.5 -183t203.5 -257t217 -274.5q-12 490 -19 647q-3 96 -31 113q-34 25 -141 49q-31 8 -31 43q0 19 10 29t25 10q2 0 84 -3t150 -3q54 0 105.5 1.5t83 3t38.5 1.5q33 0 33 -39 q0 -29 -29 -39q-66 -19 -94 -31.5t-39 -31.5q-16 -20 -19 -107q-8 -292 -8 -596q0 -160 5.5 -365.5t5.5 -222.5q0 -49 -52 -49q-42 0 -61 29q-122 169 -476 607t-421 527z" glyph-name="N" horiz-adv-x="1527" unicode="N"/><glyph d="M72 705q0 182 61 331.5t163.5 245t234.5 147.5t278 52q210 0 367 -92t240 -257.5t83 -381.5q0 -217 -87 -395t-251.5 -284t-376.5 -106q-213 0 -376.5 99.5t-249.5 267t-86 373.5zM1128 666q0 123 -12.5 227t-40 192.5t-69 150t-102.5 96t-138 34.5q-317 0 -317 -604 q0 -315 94.5 -496.5t273.5 -181.5q311 0 311 582z" glyph-name="O" horiz-adv-x="1570" unicode="O"/><glyph d="M520 618q-4 -127 -4 -382q0 -71 8 -88q11 -25 64 -43q21 -7 110 -31q29 -10 29 -39q0 -37 -33 -37q-6 0 -65.5 1.5t-138.5 3t-132 1.5q-68 0 -182.5 -3t-116.5 -3q-34 0 -34 35q0 32 26 41q16 6 43 14t37 11.5t22.5 10.5t20.5 15q11 11 13.5 29.5t2.5 60.5q0 103 -4 522 t-4 486q0 76 -16 94q-8 8 -20.5 15t-22.5 10.5t-37 11.5t-43 14q-27 9 -27 41q0 19 10 29t25 10q3 0 121.5 -2t185.5 -2q39 0 170 1t189 1q85 0 161.5 -12.5t146 -41t119.5 -70.5t79.5 -106t29.5 -143q0 -101 -33 -180.5t-88 -130t-133.5 -84t-162 -48t-181.5 -16.5 q-98 0 -135 4zM520 715q23 -4 101 -4q62 0 112.5 16.5t92.5 54t65.5 107t23.5 166.5q0 86 -25 146t-69 90t-90.5 42.5t-101.5 12.5q-53 0 -71.5 -4.5t-25.5 -26.5q-8 -21 -8 -94q0 -76 -2 -269t-2 -237z" glyph-name="P" horiz-adv-x="1312" unicode="P"/><glyph d="M72 705q0 182 61 331.5t163.5 245t234.5 147.5t278 52q210 0 367 -92t240 -257.5t83 -381.5q0 -266 -131 -471.5t-354 -278.5q227 -172 336 -223q69 -32 113 -41.5t96 -9.5q18 0 44 3t31 3q17 0 27 -11.5t10 -29.5q0 -23 -26 -37q-54 -33 -138 -57q-116 -37 -213 -37 q-91 0 -166 32q-122 55 -233 146q-122 104 -260 242q-259 49 -411 249t-152 476zM1128 666q0 123 -12.5 227t-40 192.5t-69 150t-102.5 96t-138 34.5q-317 0 -317 -604q0 -315 94.5 -496.5t273.5 -181.5q311 0 311 582z" glyph-name="Q" horiz-adv-x="1570" unicode="Q"/><glyph d="M520 645q-4 -130 -4 -409q0 -71 8 -88q11 -25 64 -43q21 -7 110 -31q29 -10 29 -39q0 -37 -33 -37q-6 0 -65.5 1.5t-138.5 3t-132 1.5q-68 0 -182.5 -3t-116.5 -3q-34 0 -34 35q0 32 26 41q16 6 43 14t37 11.5t22.5 10.5t20.5 15q11 11 13.5 29.5t2.5 60.5q0 103 -4 522 t-4 486q0 76 -16 94q-8 8 -20.5 15t-22.5 10.5t-37 11.5t-43 14q-27 9 -27 41q0 19 10 29t25 10q3 0 121.5 -2t185.5 -2q39 0 152.5 1t169.5 1q107 0 197 -20.5t162 -63.5t112.5 -116.5t40.5 -172.5q0 -149 -75 -243t-195 -140q292 -502 356 -553q10 -8 18.5 -14.5 t17.5 -11.5t14.5 -8t15.5 -7t14 -5.5t16 -5.5t17 -5q32 -8 32 -39q0 -15 -6 -23t-11.5 -10t-21.5 -6q-3 0 -46.5 -0.5t-97 -1t-79.5 -0.5q-100 0 -131 2q-19 1 -32.5 7.5t-21.5 13.5t-22 24q-46 61 -82 123q-26 41 -56.5 96t-50.5 93.5t-69.5 135.5t-74.5 146q-75 0 -101 4z M520 741q21 -4 92 -4q54 0 94 12.5t75.5 45.5t54 98t18.5 162q0 291 -233 291q-41 0 -62 -6t-27 -25q-8 -24 -8 -94q0 -76 -2 -256t-2 -224z" glyph-name="R" horiz-adv-x="1406" unicode="R"/><glyph d="M547 918l106 -54q112 -58 184 -109.5t112.5 -106t55.5 -109t15 -127.5q0 -85 -35 -163.5t-101 -142.5t-172 -102.5t-237 -38.5q-102 0 -198.5 15.5t-149.5 37.5q-34 17 -47 40.5t-19 76.5q-16 115 -16 201q0 61 49 61q22 0 35 -10t29 -43q45 -92 73 -131.5t62 -69.5 q31 -25 86.5 -41t116.5 -16q129 0 192.5 57t63.5 158q0 71 -50.5 127.5t-162.5 112.5l-109 55q-179 90 -259.5 192.5t-80.5 262.5q0 193 154.5 312.5t412.5 119.5q174 0 246 -27q22 -7 32.5 -20.5t16.5 -38.5q5 -30 16 -119.5t11 -116.5q0 -51 -47 -51q-22 0 -36.5 13.5 t-35.5 52.5q-69 128 -137 161q-63 29 -160 29q-93 0 -157 -51t-64 -144q0 -53 13.5 -89t59 -76.5t132.5 -87.5z" glyph-name="S" horiz-adv-x="1085" unicode="S"/><glyph d="M692 1444q143 0 374 2t237 2q19 0 26 -7t8 -30q0 -21 3 -148.5t3 -146.5q0 -39 -45 -39q-35 0 -49 33q-53 116 -72 151t-38 46q-23 16 -53.5 20t-92.5 4q-64 0 -83 -4t-27 -16q-12 -17 -15 -74q-8 -98 -8 -997q0 -85 21 -109q18 -21 143 -61q29 -10 29 -35q0 -37 -33 -37 q-6 0 -64 1.5t-135.5 3t-130.5 1.5q-68 0 -182 -3t-117 -3q-35 0 -35 37q0 26 27 35q16 6 44.5 15.5t39.5 14t25 12t22 15.5q16 16 16 100q0 111 -5 544t-5 464q-3 61 -14 76q-7 12 -33 16t-92 4q-94 0 -139 -26q-21 -12 -42 -49t-69 -150q-15 -31 -45 -31q-45 0 -45 41 q0 31 6 144t12 151q5 21 11.5 29t23.5 8q18 0 238.5 -2t359.5 -2z" glyph-name="T" horiz-adv-x="1394" unicode="T"/><glyph d="M1247 836q0 259 -9 358.5t-30 120.5q-11 11 -28 19.5t-34.5 14t-66.5 19.5q-28 9 -28 41q0 39 32 39q7 0 38.5 -1.5t82.5 -3t105 -1.5q69 0 142 3t75 3q35 0 35 -37q0 -32 -27 -41q-16 -6 -42.5 -14t-35.5 -11.5t-21 -10t-20 -15.5q-10 -10 -14.5 -35t-9.5 -94 q-9 -129 -9 -545q-3 -355 -131 -508q-72 -85 -178.5 -129.5t-269.5 -44.5q-187 0 -323.5 52.5t-207.5 154.5q-100 140 -100 475q-2 211 -2 561q0 93 -16 111q-8 8 -20 14.5t-22.5 10t-34.5 11t-42 13.5q-27 9 -27 45q0 37 35 37q3 0 112 -3t177 -3q52 0 130.5 1.5t137 3 t64.5 1.5q32 0 32 -37q0 -34 -28 -43q-102 -31 -125 -57q-13 -16 -19 -37q-14 -55 -14 -400q0 -136 1.5 -221t11 -184t26.5 -152q32 -98 111 -148t192 -50q135 0 212 37t118 123q65 133 65 557z" glyph-name="U" horiz-adv-x="1576" unicode="U"/><glyph d="M840 432q84 216 141 359q86 223 123 332t37 149t-21 55q-13 10 -19.5 14.5t-29.5 12t-57 14.5q-15 4 -22 6.5t-12 11t-5 23.5t9 26t26 11q6 0 99.5 -2t139.5 -2q30 0 112 2t93 2q15 0 25 -10t10 -29q0 -33 -33 -39q-42 -9 -64.5 -23t-52 -61.5t-69.5 -146.5 q-63 -157 -235 -568.5t-232 -560.5q-11 -25 -26.5 -35t-45.5 -10q-40 0 -55 45q-36 94 -168.5 436.5t-267.5 692.5q-30 76 -48 115t-40.5 63t-39 31t-55.5 18l-4.5 1.5t-4.5 1t-5 1.5q-11 2 -19 12.5t-8 26.5q0 41 35 41q9 0 166.5 -3t200.5 -3q44 0 160.5 2t123.5 2 q31 0 31 -37q0 -22 -9 -30t-30 -13q-87 -18 -108 -39t-21 -55q0 -35 27.5 -122.5t95.5 -286.5q22 -62 33 -95q28 -83 73 -207.5t46 -128.5z" glyph-name="V" horiz-adv-x="1488" unicode="V"/><glyph d="M1112 948q-158 -360 -393 -940q-11 -25 -25 -35t-43 -10q-47 0 -61 45q-81 276 -346 1131q-11 37 -20.5 65t-20.5 50t-18 36.5t-21.5 27t-21 18t-25.5 13t-27.5 10t-34.5 9.5q-26 5 -26 41q0 39 37 39q8 0 143 -3t178 -3q44 0 190 3t152 3q35 0 35 -35q0 -23 -8 -31.5 t-29 -13.5q-100 -14 -129 -39q-20 -14 -20 -51q0 -68 81 -366q2 -7 3 -11t3 -10.5t3 -11.5q50 -189 112 -390q50 131 267 648q26 63 57.5 148t44.5 118q14 41 57 41q47 0 64 -39q16 -39 54 -141t60 -152q24 -60 108 -265.5t146 -359.5q4 15 55 197t74 262q70 266 70 330 q0 37 -20 51q-23 18 -136 39q-21 5 -30 13t-9 30q0 15 7.5 27t23.5 12q6 0 127 -3t164 -3q29 0 106.5 3t88.5 3q32 0 32 -39q0 -38 -26 -41q-42 -10 -64.5 -19.5t-45.5 -33.5t-39.5 -63t-37.5 -107q-193 -598 -356 -1137q-15 -45 -63 -45q-47 0 -64 45q-184 483 -383 940z" glyph-name="W" horiz-adv-x="2203" unicode="W"/><glyph d="M930 819l346 -483q106 -147 139 -182q55 -59 125 -76q11 -2 19 -12.5t8 -26.5q0 -41 -35 -41q-9 0 -158 3t-190 3q-45 0 -181 -3t-141 -3q-37 0 -37 37q0 21 10.5 29.5t34.5 13.5q54 8 86 20q29 16 29 45q0 24 -18.5 61.5t-77.5 123.5l-187 264l-200 -266 q-62 -81 -80.5 -115.5t-18.5 -60.5t27 -44q25 -15 94 -30q15 -4 22 -6.5t12 -11t5 -23.5t-9 -26t-26 -11q-6 0 -115 3t-161 3q-44 0 -131 -3t-96 -3q-35 0 -35 39q0 33 33 39q61 15 104 49q80 59 201 211l297 364l-293 410q-114 161 -148 195q-45 48 -110 63q-11 2 -19 12.5 t-8 26.5q0 41 35 41q9 0 161 -3t195 -3q45 0 168.5 3t130.5 3q37 0 37 -37q0 -21 -11 -29t-34 -14q-56 -9 -78 -18q-30 -15 -30 -47q0 -24 19.5 -61.5t78.5 -123.5l137 -198l150 200q60 78 78 117t18 68q0 26 -27 41q-24 12 -76 24q-15 4 -21.5 7t-11.5 11t-5 23q0 37 34 37 q5 0 104.5 -3t151.5 -3q42 0 118.5 3t84.5 3q35 0 35 -39q0 -33 -33 -39q-52 -9 -94 -47q-33 -27 -72 -71t-121 -142z" glyph-name="X" horiz-adv-x="1570" unicode="X"/><glyph d="M858 805l139 229q127 195 127 264q0 32 -20 48q-30 16 -84 22q-39 3 -39 43q0 15 9 26t26 11q4 0 102.5 -3t149.5 -3q43 0 117.5 3t82.5 3q35 0 35 -39q0 -35 -33 -41q-49 -11 -88 -45t-87 -98t-128 -183l-254 -374q0 -110 -1 -253t-1 -179q0 -84 19 -105q3 -4 7.5 -7 t11.5 -6.5t13.5 -6.5t19 -7.5t23 -8t29.5 -10t35 -11.5q29 -10 29 -39q0 -37 -33 -37q-5 0 -61.5 1.5t-133 3t-129.5 1.5q-69 0 -177 -3t-111 -3q-35 0 -35 37q0 30 26 39q8 2 22.5 7t20 6.5t16 5t15 5.5t12 5t11.5 5t9.5 5.5t9 6.5t7.5 7q17 17 17 96q0 68 -4 424l-258 393 q-129 198 -191 273q-33 41 -92 55q-11 2 -19 12.5t-8 26.5q0 41 35 41q10 0 158 -3t190 -3q44 0 167 3t130 3q19 0 26 -9t7 -28q0 -40 -41 -43q-78 -11 -92 -20q-27 -15 -27 -43q0 -31 26.5 -80t117.5 -191z" glyph-name="Y" horiz-adv-x="1503" unicode="Y"/><glyph d="M449 113h180q209 0 285 9.5t110 29.5q28 17 52.5 54.5t86.5 158.5q9 16 13 21t13.5 10t24.5 5q23 0 34.5 -12.5t11.5 -26.5q0 -12 -5.5 -60t-15.5 -130.5t-16 -144.5q-3 -27 -29 -27q-18 0 -190 1t-312 1q-57 0 -333 -1t-281 -1q-27 0 -40 7t-13 26q0 17 16 43 q41 61 119 184t183 293t180.5 293.5t181 296.5t116.5 192q-35 0 -156 -1t-161 -1q-108 -5 -151 -12t-68 -29q-41 -38 -109 -168q-19 -34 -53 -34q-20 0 -30.5 11t-10.5 29q0 51 35 287q3 29 26 29q17 0 179 -1t303 -1q69 0 213 0.5t263 1t126 0.5q33 0 33 -31q0 -10 -21 -47 q-538 -853 -790 -1255z" glyph-name="Z" horiz-adv-x="1306" unicode="Z"/><glyph d="M168 -309v1835q0 33 31 33h374q29 0 38.5 -9.5t9.5 -29.5t-7.5 -30t-35.5 -20q-15 -4 -58 -14t-69 -18q-24 -6 -32.5 -19.5t-8.5 -48.5v-1524q0 -34 8.5 -47.5t32.5 -19.5q22 -8 127 -33q27 -7 35 -17.5t8 -31.5q0 -19 -10.5 -29t-37.5 -10h-374q-31 0 -31 33z" glyph-name="bracketleft" horiz-adv-x="632" unicode="["/><glyph d="M141 1505l672 -1607q6 -15 6 -25q0 -23 -24 -23h-80q-25 0 -37 27l-674 1612q-6 18 -6 24q0 23 25 23h79q16 0 24 -7.5t15 -23.5z" glyph-name="backslash" horiz-adv-x="862" unicode="\"/><glyph d="M465 1526v-1835q0 -33 -31 -33h-375q-28 0 -37.5 9.5t-9.5 29.5q0 21 8 31.5t35 17.5q125 32 127 33q24 6 32.5 19.5t8.5 47.5v1524q0 35 -8.5 48.5t-32.5 19.5q-17 5 -63 16t-64 16q-28 10 -35.5 20t-7.5 30t9.5 29.5t37.5 9.5h375q31 0 31 -33z" glyph-name="bracketright" horiz-adv-x="632" unicode="]"/><glyph d="M854 1423l385 -794q4 -12 4 -17q0 -20 -26 -20h-156q-26 0 -35 22l-274 598l-279 -598q-13 -22 -35 -22h-155q-29 0 -29 18q0 7 6 19l402 794q10 23 34 23h123q25 0 35 -23z" glyph-name="asciicircum" horiz-adv-x="1497" unicode="^"/><glyph d="M1124 -233v-72q0 -31 -30 -31h-1094q-31 0 -31 33v70q0 30 31 30h1094q30 0 30 -30z" glyph-name="underscore" horiz-adv-x="1093" unicode="_"/><glyph d="M164 1434q-43 43 -43 75q0 40 76 58q52 10 73 10q25 0 41.5 -14.5t34.5 -49.5q12 -23 54.5 -121t68.5 -145q14 -33 14 -41q0 -30 -34 -30q-24 0 -50 26q-47 47 -126 124.5t-109 107.5z" glyph-name="grave" horiz-adv-x="604" unicode="`"/><glyph d="M629 92q-135 -119 -281 -119q-140 0 -218.5 88.5t-78.5 212.5q0 224 264 277q135 26 299 37q0 185 -7 243t-36 87q-45 45 -122 45q-46 0 -87 -23q-33 -17 -98 -125q-24 -40 -38 -52.5t-38 -12.5q-47 0 -47 53q0 23 7 84.5t14 91.5q4 22 13.5 31.5t31.5 21.5 q44 22 135 34.5t168 12.5q59 0 112.5 -7.5t109 -28t95.5 -53t65.5 -86t25.5 -122.5q0 -57 -4.5 -212.5t-4.5 -198.5q0 -127 18.5 -183t57.5 -61q23 -2 49 -2q22 0 33 -14q4 -12 4 -25q0 -20 -20 -31q-53 -33 -118 -57.5t-112 -24.5q-58 0 -111.5 28t-80.5 91zM616 489 q-94 -10 -167 -38q-45 -18 -71 -57.5t-26 -94.5q0 -82 41 -126t92 -44q81 0 138 29q-7 69 -7 331z" glyph-name="a" horiz-adv-x="1073" unicode="a"/><glyph d="M451 856q-7 -371 -7 -512q0 -151 33 -184q65 -58 141 -58q123 0 179.5 90.5t56.5 288.5q0 112 -22 195.5t-59.5 129.5t-81 67.5t-93.5 21.5q-64 0 -147 -39zM451 932q187 137 311 137q192 0 302 -139t110 -369q0 -165 -70 -298t-195 -208t-280 -75q-213 0 -334 55 q-20 -33 -51 -64q-24 -24 -47 -24q-45 0 -45 41q0 3 1 112.5t1 161.5q0 484 -9 936q-2 109 -30 141q-32 35 -86 54q-25 9 -25 34q0 26 27 41q111 64 227.5 111t155.5 47q45 0 45 -45q0 -81 -8 -649z" glyph-name="b" horiz-adv-x="1243" unicode="b"/><glyph d="M371 578q0 -98 24 -174.5t66.5 -122.5t95 -69.5t113.5 -23.5q106 0 196 33q40 15 49 15q21 0 31 -14t10 -29q0 -21 -22 -43q-62 -71 -160.5 -128t-210.5 -57q-145 0 -258 67t-174 183t-61 260q0 134 50 248.5t134 191.5t194.5 120.5t229.5 43.5q136 0 194 -24 q27 -12 40.5 -28t17.5 -54q12 -110 12 -164q0 -32 -14.5 -42.5t-38.5 -10.5q-20 0 -33 10t-37 41q-71 105 -117 135q-30 21 -86 21q-32 0 -63.5 -10.5t-65 -38t-58.5 -69t-41.5 -110.5t-16.5 -157z" glyph-name="c" horiz-adv-x="995" unicode="c"/><glyph d="M801 186l-4 553q0 134 -45 166q-56 43 -142 43q-221 0 -221 -346q0 -107 20 -189.5t48.5 -128.5t67 -75.5t69.5 -39t61 -9.5q84 0 146 26zM793 1055q0 1 -5 143q-7 115 -30 141q-29 31 -86 54q-25 9 -25 34q0 26 27 41q98 59 218.5 108.5t160.5 49.5q43 0 43 -45 q0 -31 -1.5 -100.5t-4 -221.5t-5.5 -331q0 -15 1 -250.5t1 -405.5q0 -65 13 -92.5t37 -40.5q12 -5 69 -20q24 -6 31 -17q4 -12 4 -18q0 -22 -20 -33q-48 -28 -149 -56t-159 -28q-44 0 -65 28.5t-39 117.5q-153 -140 -303 -140q-189 0 -312.5 133.5t-123.5 354.5 q0 137 48.5 253t131 194t192 121.5t230.5 43.5q71 0 121 -18z" glyph-name="d" horiz-adv-x="1251" unicode="d"/><glyph d="M379 688l336 25q0 142 -37 201t-113 59q-153 0 -186 -285zM367 537q4 -173 99 -274t241 -101q111 0 235 47q37 14 45 14q16 0 26.5 -15t10.5 -30t-20 -35q-178 -178 -445 -178q-212 0 -350.5 141t-138.5 386q0 259 145.5 423t392.5 164q88 0 159 -24.5t117.5 -65 t77.5 -96.5t44.5 -115.5t13.5 -124.5q0 -25 -15 -42t-44 -17h-592q-2 -16 -2 -57z" glyph-name="e" horiz-adv-x="1064" unicode="e"/><glyph d="M688 879h-188v-639q0 -92 28 -111q10 -7 29.5 -16t49 -20.5t36.5 -14.5q31 -12 31 -41q0 -21 -11 -30t-24 -9q-4 0 -48.5 1.5t-109 3t-116.5 1.5q-54 0 -155 -3t-106 -3q-14 0 -24 9t-10 26q0 34 26 43q72 25 90 45q21 21 21 98q0 222 -12 660h-84q-26 0 -39 9t-13 36 q0 29 29 45q65 35 85.5 60t27.5 83q16 155 92.5 270.5t189 173.5t244.5 58q55 0 107 -15q27 -8 38 -20t15 -41q16 -91 16 -184q0 -23 -14.5 -36t-38.5 -13q-36 0 -62 41q-77 109 -81 114q-27 35 -64 35q-23 0 -40.5 -6t-37.5 -28t-33 -59.5t-21.5 -105.5t-8.5 -161v-131h186 q41 0 41 -37v-52q0 -36 -41 -36z" glyph-name="f" horiz-adv-x="722" unicode="f"/><glyph d="M358 332q-162 46 -232.5 132.5t-70.5 225.5q0 164 131 278.5t332 114.5q169 0 289 -98q41 4 72 16q56 25 98 76q28 31 55 31q39 0 39 -41q0 -68 -24 -135q-10 -28 -25 -37.5t-41 -9.5q-5 0 -98 6q47 -77 47 -168q0 -72 -22 -131.5t-57 -100t-85.5 -72.5t-100.5 -50 t-108 -31q-67 -14 -112.5 -42.5t-45.5 -57.5q0 -18 14 -29t50 -21q44 -11 184.5 -39.5t204.5 -48.5q108 -33 155.5 -87t47.5 -152q0 -77 -44 -153t-118.5 -136.5t-184 -98.5t-231.5 -38q-212 0 -346.5 72.5t-134.5 181.5q0 43 16.5 75.5t57.5 67.5q42 35 108 72q43 24 68 24 q16 0 24.5 -9.5t8.5 -18.5q0 -16 -15 -37q-49 -59 -49 -129q0 -58 53 -98.5t128 -57t163 -16.5q112 0 177 43.5t65 124.5q0 40 -26 70t-75 42q-257 67 -356 90q-192 43 -192 164q0 47 39.5 95.5t166.5 140.5zM635 668q0 150 -37.5 231.5t-110.5 81.5q-63 0 -99 -56.5 t-36 -174.5q0 -161 37 -242.5t119 -81.5q70 0 98.5 59t28.5 183z" glyph-name="g" horiz-adv-x="1028" unicode="g"/><glyph d="M471 911q241 164 365 164t196 -96q40 -55 55 -172.5t15 -331.5q0 -19 -2 -119.5t-2 -132.5q0 -74 24 -98q15 -15 90 -49q33 -12 33 -41q0 -22 -9 -29.5t-28 -7.5q-4 0 -37 1.5t-87 3t-109 1.5q-56 0 -160 -3t-110 -3q-37 0 -37 35q0 34 24 43q77 30 92 45q21 21 21 100 q0 317 -12 440.5t-39 165.5q-38 50 -111 50q-88 0 -170 -35q-8 -272 -8 -619q0 -74 24 -98q14 -14 91 -49q32 -12 32 -41q0 -22 -9 -29.5t-28 -7.5q-4 0 -39 1.5t-91 3t-111 1.5q-57 0 -157 -3t-105 -3q-37 0 -37 35q0 34 24 43q75 27 93 45q20 20 20 100q0 576 -8 977 q-2 108 -31 141q-32 35 -86 54q-24 9 -24 34q0 27 26 41q111 64 227.5 111t155.5 47q45 0 45 -45q0 -242 -6 -670z" glyph-name="h" horiz-adv-x="1255" unicode="h"/><glyph d="M485 1358q0 -72 -45.5 -118t-117.5 -46q-73 0 -121.5 46.5t-48.5 117.5q0 75 49.5 120.5t120.5 45.5q70 0 116.5 -46t46.5 -120zM477 223q0 -73 25 -98q15 -15 90 -49q33 -12 33 -41q0 -22 -9 -29.5t-28 -7.5q-4 0 -39 1.5t-91.5 3t-111.5 1.5q-57 0 -157 -3t-105 -3 q-37 0 -37 35q0 34 25 43q73 26 92 45q20 20 20 100q0 317 -4 418q-3 119 -24 154q-10 16 -24.5 26.5t-61.5 36.5q-23 13 -23 33q0 23 25 39q43 29 179.5 87t176.5 58q57 0 57 -61q0 -252 -8 -789z" glyph-name="i" horiz-adv-x="645" unicode="i"/><glyph d="M172 14q0 526 -4 627q-2 115 -25 152q-9 14 -25.5 26t-49.5 31q-2 1 -3.5 2t-3.5 2l-4 2q-22 13 -22 33q0 24 24 39q43 30 181.5 87.5t179.5 57.5q57 0 57 -61q0 -18 -3 -349.5t-3 -459.5q0 -176 -28.5 -298t-100.5 -231q-58 -88 -153 -148.5t-199 -60.5q-51 0 -101 11 q-47 9 -53 47q-10 78 -10 164q0 49 47 49q16 0 27.5 -8.5t25.5 -30.5q8 -11 18 -24.5t15.5 -20.5t12 -16t10 -13t8 -9t8 -8t6.5 -5q21 -15 47 -15q43 0 68.5 36t39 130.5t13.5 261.5zM473 1358q0 -72 -46 -118t-118 -46q-73 0 -121.5 46.5t-48.5 117.5q0 75 49.5 120.5 t120.5 45.5q70 0 117 -46t47 -120z" glyph-name="j" horiz-adv-x="614" unicode="j"/><glyph d="M471 1219q-8 -388 -8 -996q0 -74 24 -98q14 -14 91 -49q32 -12 32 -41q0 -22 -9 -29.5t-28 -7.5q-4 0 -39 1.5t-91 3t-111 1.5q-58 0 -156 -3t-104 -3q-37 0 -37 35q0 34 24 43q75 27 93 45q20 20 20 100q0 576 -8 977q-2 108 -31 141q-32 35 -86 54q-24 9 -24 34 q0 27 26 41q117 63 229 110.5t148 47.5q49 0 49 -45q0 -7 -0.5 -53t-1.5 -135.5t-2 -173.5zM766 631q64 -99 165 -231t159 -199q54 -63 79 -80q16 -14 74 -29q22 -6 29.5 -16t7.5 -29q0 -34 -37 -37q-105 -16 -291 -16q-35 0 -58 11t-48 40q-89 107 -281 379q-35 49 -51 65 q-2 3 -7 9t-7 8.5t-5 7t-4.5 7.5t-3 7t-2 8t-0.5 9q0 27 29 43q8 6 19.5 13t26 15t22.5 13q71 53 178 166q39 45 52 67.5t13 42.5t-18 31t-76 31q-31 12 -31 39q0 21 11.5 31t25.5 10q8 0 90 -3.5t127 -3.5q53 0 101 2t76.5 3.5t35.5 1.5q35 0 35 -39q0 -19 -11.5 -30 t-40.5 -24t-38 -18q-22 -12 -51 -33q-38 -27 -88.5 -72.5t-89 -83t-117.5 -116.5z" glyph-name="k" horiz-adv-x="1271" unicode="k"/><glyph d="M477 1581q0 -5 -3 -243t-6 -565.5t-3 -549.5q0 -74 24 -98q14 -14 91 -49q32 -12 32 -41q0 -22 -9 -29.5t-28 -7.5q-4 0 -39 1.5t-91 3t-111 1.5q-57 0 -157 -3t-105 -3q-37 0 -37 35q0 34 24 43q75 27 93 45q20 20 20 100q0 576 -8 977q-2 108 -31 141q-32 35 -86 54 q-24 9 -24 34q0 27 26 41q111 63 228 110.5t155 47.5q45 0 45 -45z" glyph-name="l" horiz-adv-x="632" unicode="l"/><glyph d="M1079 827q19 -136 19 -352q0 -19 -2 -119.5t-2 -132.5q0 -74 24 -98q13 -13 82 -49q20 -10 26.5 -18.5t6.5 -22.5q0 -22 -9 -29.5t-28 -7.5q-4 0 -35 1.5t-83 3t-107 1.5q-57 0 -157 -3t-105 -3q-37 0 -37 35q0 34 24 43q57 21 84 45q21 21 21 100q0 317 -12 440.5 t-39 165.5q-38 50 -111 50q-72 0 -154 -35q-8 -272 -8 -619q0 -73 25 -98q19 -19 86 -49q33 -12 33 -41q0 -22 -9 -29.5t-28 -7.5q-4 0 -38 1.5t-89.5 3t-110.5 1.5q-57 0 -157 -3t-105 -3q-37 0 -37 35q0 34 25 43q73 26 92 45q20 20 20 100q0 317 -4 418q-2 119 -24 154 q-11 17 -29.5 30t-56.5 33q-23 13 -23 33q0 23 25 39q46 30 180 87.5t174 57.5q30 0 43 -35q12 -67 14 -127q126 86 204 125t144 39q88 0 148 -47t84 -127q250 174 381 174q124 0 196 -96q40 -55 55 -172.5t15 -331.5q0 -19 -2 -119.5t-2 -132.5q0 -73 25 -98q15 -15 90 -49 q32 -12 32 -41q0 -22 -8.5 -29.5t-27.5 -7.5q-4 0 -37 1.5t-87.5 3t-109.5 1.5q-57 0 -157 -3t-105 -3q-37 0 -37 35t25 43q56 20 84 45q20 20 20 100q0 317 -12 440.5t-39 165.5q-38 50 -111 50q-70 0 -172 -50z" glyph-name="m" horiz-adv-x="1863" unicode="m"/><glyph d="M485 842q-8 -272 -8 -619q0 -73 25 -98q15 -15 90 -49q33 -12 33 -41q0 -22 -9 -29.5t-28 -7.5q-4 0 -39 1.5t-91.5 3t-111.5 1.5q-57 0 -157 -3t-105 -3q-37 0 -37 35q0 34 25 43q73 26 92 45q20 20 20 100q0 317 -4 418q-3 127 -24 154q-10 16 -24.5 26.5t-61.5 36.5 q-23 13 -23 33q0 23 25 39q46 30 180 87.5t174 57.5q30 0 43 -35q12 -67 14 -127q231 164 359 164q130 0 202 -96q40 -55 55 -172.5t15 -331.5q0 -19 -2 -119.5t-2 -132.5q0 -73 25 -98q15 -15 90 -49q32 -12 32 -41q0 -22 -8.5 -29.5t-27.5 -7.5q-4 0 -37 1.5t-87.5 3 t-109.5 1.5q-56 0 -160 -3t-110 -3q-37 0 -37 35q0 34 25 43q77 30 92 45q20 20 20 100q0 317 -12 440.5t-39 165.5q-38 50 -111 50q-88 0 -170 -35z" glyph-name="n" horiz-adv-x="1267" unicode="n"/><glyph d="M70 502q0 175 77.5 308.5t203.5 201t278 67.5q241 0 388.5 -147t147.5 -393q0 -164 -68.5 -294.5t-195 -205t-289.5 -74.5q-244 0 -393 148.5t-149 388.5zM846 479q0 112 -13 200t-40.5 155.5t-73.5 104t-109 36.5t-108 -35.5t-69 -98.5t-35 -134.5t-11 -157.5 q0 -103 12.5 -187t39.5 -151t74 -104t110 -37q65 0 110.5 32t69 91t33.5 128t10 158z" glyph-name="o" horiz-adv-x="1234" unicode="o"/><glyph d="M442 852q0 -39 -1 -239t-1 -298q0 -75 7 -111.5t24 -53.5q25 -28 63.5 -43t75.5 -15q234 0 234 387q0 97 -17.5 174t-44 121.5t-60 73.5t-62 39t-54.5 10q-90 0 -164 -45zM446 -291q0 -77 37 -98q15 -8 58 -26t49 -21q31 -12 31 -41q0 -39 -35 -39q-4 0 -47 1.5t-107 3 t-119 1.5q-57 0 -157 -3t-105 -3q-37 0 -37 35q0 34 25 43q73 26 92 45q21 21 21 100q0 605 -9 932q-2 74 -7 106t-21 48q-10 10 -20 18t-30.5 21.5t-33.5 23.5q-23 13 -23 33q0 23 25 39q43 30 181 87.5t179 57.5q18 0 29.5 -11t13.5 -24q4 -23 8 -118q70 66 149.5 107.5 t149.5 41.5q180 0 300 -132t120 -374q0 -261 -156 -418t-427 -157q-78 0 -131 18q0 -20 -1.5 -143t-1.5 -154z" glyph-name="p" horiz-adv-x="1232" unicode="p"/><glyph d="M801 201l-4 534q0 136 -45 168q-56 45 -142 45q-221 0 -221 -342q0 -98 17.5 -176.5t44 -126t61 -79.5t65.5 -44t60 -12q85 0 164 33zM1100 -293q0 -47 4 -67t20 -33q22 -22 86 -45q27 -9 27 -43q0 -35 -37 -35q-5 0 -105 3t-157 3q-55 0 -119 -1.5t-106.5 -3t-46.5 -1.5 q-35 0 -35 39q0 29 31 41q4 2 47.5 20.5t58.5 26.5q37 21 37 98q0 33 -2 216t-2 202q-77 -71 -147 -107t-148 -36q-189 0 -312.5 129t-123.5 348q0 132 44.5 245t124.5 194t198 127t259 46q126 0 269 -49q20 29 43 55q20 25 57 25q22 0 34.5 -12.5t12.5 -30.5q0 -5 -2 -116 t-2 -163q0 -133 -4 -592.5t-4 -482.5z" glyph-name="q" horiz-adv-x="1253" unicode="q"/><glyph d="M483 903q50 63 122 110.5t128 47.5q74 0 84 -64q17 -139 17 -194q0 -27 -15.5 -40t-38.5 -13q-32 0 -67 47q-35 44 -54.5 56.5t-50.5 12.5q-61 0 -123 -47q-8 -272 -8 -596q0 -77 37 -98q15 -8 58 -26t49 -21q30 -12 30 -41q0 -39 -35 -39q-4 0 -45.5 1.5t-105 3 t-119.5 1.5q-57 0 -157 -3t-105 -3q-37 0 -37 35q0 34 25 43q69 25 92 45q20 18 20 100q0 104 -2 226t-2 192q-2 118 -24 154q-2 4 -5 7.5t-7 7t-7 6.5t-8.5 7t-9 6t-11 6.5t-11.5 7t-13.5 7.5t-13.5 8q-23 13 -23 33q0 23 25 39q46 30 180 87.5t174 57.5q30 0 43 -35 q10 -51 14 -135z" glyph-name="r" horiz-adv-x="860" unicode="r"/><glyph d="M422 711l143 -64q89 -41 145.5 -81t85 -83.5t38.5 -84.5t10 -97q0 -146 -131 -242t-330 -96q-183 0 -266 39q-26 12 -34 26t-13 50q-13 76 -13 194q0 58 52 58q17 0 28.5 -9.5t24.5 -35.5q76 -143 112 -176q49 -43 132 -43q89 0 139 34.5t51 104.5q0 47 -34 82.5 t-101 66.5l-137 62q-236 102 -236 325q0 69 28 128.5t84.5 107t151.5 75t219 27.5q111 0 164 -18q29 -7 41 -31t17 -76q8 -84 8 -151q0 -19 -12 -29t-31 -10t-31.5 8t-28.5 35q-44 70 -64.5 97.5t-37.5 39.5q-35 25 -96 25q-84 0 -132.5 -31.5t-48.5 -91.5q0 -46 23.5 -75.5 t79.5 -59.5z" glyph-name="s" horiz-adv-x="872" unicode="s"/><glyph d="M156 879h-99q-24 0 -34.5 9.5t-10.5 33.5q0 39 27 55q82 50 175 131.5t148 153.5q24 30 62 30q43 0 43 -49v-239h186q33 0 33 -33v-64q0 -28 -35 -28h-186q-6 -180 -6 -576q0 -86 24 -118.5t70 -32.5q54 0 92 14q17 10 39 10q16 0 25 -18q8 -8 8 -27q0 -11 -23 -31 q-58 -51 -146.5 -85.5t-166.5 -34.5q-126 0 -186 98q-41 67 -41 289q0 49 1 226t1 286z" glyph-name="t" horiz-adv-x="718" unicode="t"/><glyph d="M786 188q-2 19 -3 55t-1.5 95t-0.5 118.5v156.5t-1 178q0 80 -26 100q-16 13 -97 45q-18 6 -25 14t-7 25q0 26 34 37q84 16 218 31.5t176 15.5q14 0 25.5 -8t11.5 -25q0 -5 -5.5 -99t-5.5 -161q-6 -273 -6 -492q0 -67 12.5 -96t38.5 -41q20 -10 43.5 -14t36.5 -7t17 -14 q4 -12 4 -18q0 -21 -21 -33q-45 -28 -146.5 -56t-164.5 -28q-37 0 -59 29.5t-39 112.5q-87 -72 -161.5 -104t-158.5 -32q-87 0 -154 31.5t-104 87.5q-40 59 -56 158t-16 274q0 17 1 128.5t1 142.5q0 68 -28 96q-27 27 -88 43q-31 9 -31 37q0 35 33 41q90 16 219.5 31.5 t167.5 15.5q14 0 25.5 -8t11.5 -25q0 -5 -11.5 -171t-11.5 -234q0 -314 41 -392q50 -92 131 -92q104 0 180 51z" glyph-name="u" horiz-adv-x="1232" unicode="u"/><glyph d="M1008 805q-78 -162 -215 -469t-148 -332q-19 -41 -55 -41q-24 0 -38 8.5t-24 32.5q-191 461 -362 811q-40 88 -64 107q-35 32 -63 39q-29 10 -29 40q0 41 37 41q5 0 111.5 -3t160.5 -3t115.5 1.5t101.5 3t44 1.5q36 0 36 -41q0 -32 -34 -38q-57 -11 -76 -30t-19 -52 q0 -32 37 -127q21 -53 75 -176t83 -197q103 235 149 367q31 83 31 133q0 29 -19.5 50t-74.5 30q-35 6 -35 43q0 38 41 38q4 0 35 -1.5t78.5 -3t93.5 -1.5q25 0 79.5 3t63.5 3q41 0 41 -41q0 -17 -7 -25t-23 -15q-3 -2 -14 -8t-14.5 -8t-11.5 -7.5t-13.5 -10.5t-10.5 -12 q-19 -24 -63 -110z" glyph-name="v" horiz-adv-x="1171" unicode="v"/><glyph d="M1241 430q12 40 43 144t53 176q23 74 23 124q0 69 -111 87q-35 3 -35 43q0 38 41 38q5 0 35.5 -1.5t75.5 -3t84 -1.5q29 0 90.5 3t69.5 3q41 0 41 -41q0 -17 -7.5 -25t-23.5 -15q-41 -23 -64 -46q-7 -7 -12.5 -14.5t-12 -20t-10 -20.5t-12 -27t-12.5 -28 q-46 -121 -96.5 -271t-102 -310.5t-71.5 -219.5q-13 -39 -51 -39q-24 0 -38 8.5t-24 32.5q-231 509 -278 606q-43 -89 -147.5 -320.5t-131.5 -287.5q-18 -39 -51 -39q-24 0 -38 8.5t-24 32.5q-22 60 -118 362.5t-152 446.5q-38 90 -59 109q-32 25 -66 37q-29 10 -29 40 q0 41 37 41q5 0 112 -3t161 -3t117 1.5t105 3t46 1.5q37 0 37 -41q0 -32 -35 -38q-65 -12 -89 -29t-24 -49q0 -34 29 -131q49 -180 102 -336q24 55 73.5 166t70.5 161q27 65 63 144t47 108q14 39 58 39q21 0 30.5 -9.5t22.5 -33.5q20 -46 111 -248q30 -67 79 -170.5 t68 -144.5z" glyph-name="w" horiz-adv-x="1660" unicode="w"/><glyph d="M551 399l-96 -114q-46 -55 -67 -88t-21 -56q0 -24 22 -38.5t76 -24.5q35 -6 35 -43q0 -39 -41 -39q-4 0 -39.5 1.5t-88 3t-98.5 1.5q-24 0 -94.5 -3t-77.5 -3q-41 0 -41 41q0 17 7.5 25.5t23.5 15.5q6 3 34.5 17.5t41.5 23.5q53 39 195 192l161 181l-225 307 q-41 58 -106 123q-24 24 -70 39q-29 10 -29 40q0 41 37 41q5 0 112.5 -3t162.5 -3q53 0 120.5 1.5t114 3t49.5 1.5q37 0 37 -41q0 -29 -35 -38q-44 -11 -56.5 -24t-12.5 -38q0 -23 18 -54t59 -89l54 -74l51 59q102 122 102 160q0 25 -14 36.5t-66 21.5q-34 6 -34 43 q0 38 41 38q4 0 37 -1.5t82.5 -3t95.5 -1.5q24 0 81 3t64 3q41 0 41 -41q0 -26 -31 -40q-40 -15 -71 -39q-45 -35 -92.5 -84t-122.5 -133l-97 -109l207 -289q95 -136 164 -192q26 -23 70 -37q28 -9 28 -41q0 -41 -37 -41q-5 0 -116 3t-166 3t-125.5 -1.5t-120 -3t-53.5 -1.5 q-37 0 -37 41q0 30 35 39q48 12 66 25t18 36q0 7 -1 13.5t-4 14t-5.5 13.5t-8.5 16t-9.5 16t-12.5 18t-13.5 18.5t-16 21.5t-17.5 23z" glyph-name="x" horiz-adv-x="1275" unicode="x"/><glyph d="M692 377q90 206 148 371q28 75 28 133q0 29 -19.5 50t-74.5 30q-35 6 -35 43q0 38 41 38q4 0 34.5 -1.5t77.5 -3t93 -1.5q25 0 79.5 3t63.5 3q41 0 41 -41q0 -17 -7 -25t-23 -15q-3 -2 -14 -8t-14.5 -8t-11.5 -7.5t-13.5 -10.5t-10.5 -12q-19 -24 -63 -110 q-50 -106 -137 -313.5t-115 -270.5q-14 -34 -45 -106.5t-43.5 -102t-36 -84t-39 -86t-36.5 -73t-42 -78.5q-53 -95 -130 -156t-171 -61q-52 0 -67 34q-11 25 -25 90.5t-14 88.5q0 47 39 47q16 0 25.5 -5.5t27.5 -23.5q36 -31 71 -31q58 0 99 52q71 94 170 299 q-46 107 -188.5 403t-184.5 387q-40 88 -64 107q-35 32 -63 39q-29 10 -29 40q0 41 37 41q5 0 112 -3t161 -3t115 1.5t101 3t44 1.5q37 0 37 -41q0 -32 -35 -38q-57 -11 -75.5 -30t-18.5 -52q0 -40 34 -127q23 -58 80 -182.5t86 -194.5z" glyph-name="y" horiz-adv-x="1169" unicode="y"/><glyph d="M420 104h147q130 0 177.5 8t78.5 35q29 22 103 158q16 29 45 29q19 0 29 -10t10 -25q0 -37 -31 -272q-3 -27 -31 -27q-18 0 -138.5 1t-264.5 1q-57 0 -257.5 -1t-205.5 -1q-22 0 -31 12q-6 12 -6 21v5.5v4.5t0.5 3.5t1 4t2 4t3.5 5.5t5 6q102 150 280.5 433.5 t270.5 446.5q-79 0 -151 -2q-141 -3 -189 -41q-17 -12 -36 -42.5t-64 -115.5q-16 -28 -45 -28q-41 0 -41 37q0 6 5 46.5t12.5 103t11.5 108.5q3 28 26 28q19 0 166 -1t291 -1q70 0 154 0.5t142.5 1t65.5 0.5q33 0 33 -24q0 -10 -22 -49q-88 -144 -302.5 -479.5 t-244.5 -383.5z" glyph-name="z" horiz-adv-x="1064" unicode="z"/><glyph d="M209 606q64 -19 107.5 -41t81 -60.5t55.5 -98.5t18 -144q0 -10 -1 -119t-1 -151q0 -143 38.5 -199.5t137.5 -68.5q28 -5 39.5 -13t11.5 -30q0 -25 -15 -36.5t-54 -11.5q-71 0 -128.5 10t-111.5 36.5t-90.5 69t-58 110t-21.5 157.5q0 48 0.5 112.5t1 111.5t0.5 53 q0 131 -31.5 186t-117.5 72q-28 6 -40 19.5t-12 37.5q0 39 54 51q85 15 116 69t31 185q0 7 -1 123t-1 154q0 84 21 149t57 107.5t88 70t110 39t128 11.5q75 0 75 -47q0 -25 -10.5 -32.5t-42.5 -12.5q-103 -12 -138.5 -62t-35.5 -194q0 -42 1 -146t1 -115q0 -153 -58.5 -229 t-203.5 -123z" glyph-name="braceleft" horiz-adv-x="696" unicode="{"/><glyph d="M190 1565h152q22 0 29.5 -9.5t7.5 -29.5v-1837q0 -22 -6 -30.5t-25 -8.5h-166q-28 0 -28 39v1833q0 43 36 43z" glyph-name="bar" horiz-adv-x="532" unicode="|"/><glyph d="M487 594q-65 18 -108.5 40t-80.5 60.5t-55 99t-18 144.5q0 11 1 119t1 151q0 144 -38.5 200.5t-137.5 68.5q-28 5 -39.5 13t-11.5 30q0 24 15 35.5t55 11.5q71 0 128.5 -10t111 -36.5t90 -69t58 -110t21.5 -157.5q0 -48 -0.5 -112.5t-1 -111.5t-0.5 -53q0 -132 32 -186.5 t118 -71.5q51 -10 51 -57q0 -39 -53 -51q-84 -15 -116 -70t-32 -184q0 -8 1 -123t1 -154q0 -104 -31 -179.5t-87.5 -117.5t-126.5 -61t-158 -19q-76 0 -76 48q0 25 10.5 32.5t42.5 12.5q103 12 138.5 62t35.5 194q0 41 -1 144.5t-1 115.5q0 153 59 230t203 122z" glyph-name="braceright" horiz-adv-x="696" unicode="}"/><glyph d="M322 463q-14 -17 -27 -17q-12 0 -21 9l-94 63q-10 10 -10 23q0 7 10 24q166 228 326 228q55 0 107.5 -17.5t170.5 -79.5q73 -39 118.5 -55t86.5 -16q94 0 185 137q15 18 28 18q15 0 23 -8l92 -67q10 -10 10 -23q0 -15 -8 -23q-149 -223 -330 -223q-104 0 -244 74 q-102 58 -146.5 77t-78.5 19q-53 0 -95 -32t-103 -111z" glyph-name="asciitilde" horiz-adv-x="1497" unicode="~"/><glyph glyph-name="uni00A0" horiz-adv-x="442"/><glyph d="M236 461q4 16 8 24.5t16.5 16.5t32.5 8q26 0 36.5 -13t16.5 -36q15 -88 39.5 -225.5t36 -203.5t25 -148.5t19 -130t5.5 -77.5q0 -68 -45 -110.5t-143 -42.5q-197 0 -197 147q0 33 6 81.5t22 130t30 148.5t43.5 203t48.5 228zM127 842q0 74 46 125t122 51q84 0 131 -48.5 t47 -123.5q0 -71 -47 -121.5t-123 -50.5q-77 0 -126.5 45.5t-49.5 122.5z" glyph-name="exclamdown" horiz-adv-x="626" unicode="¡"/><glyph d="M678 2v-170q0 -37 -33 -37h-41q-31 0 -31 35v162q-138 3 -243.5 68t-162 174t-56.5 245q0 220 132 373.5t330 191.5v168q0 37 31 37h43q18 0 24.5 -7t6.5 -30v-155h10q125 0 189 -23q26 -12 38.5 -28t16.5 -52q12 -98 12 -155q0 -51 -49 -51q-19 0 -31 9.5t-33 39.5 q-61 93 -102 116q-22 14 -51 17v-744h10q20 0 40.5 2.5t33 5t34 10t28 10t32 13.5t29.5 13q28 12 43 12q18 0 30.5 -15.5t12.5 -29.5q0 -13 -21 -37q-51 -54 -121 -100.5t-151 -67.5zM389 578q0 -146 50.5 -238.5t133.5 -130.5v721q-36 -6 -66.5 -27.5t-58 -61t-43.5 -107 t-16 -156.5z" glyph-name="cent" horiz-adv-x="1032" unicode="¢"/><glyph d="M324 213q33 0 154.5 1t180.5 1q140 0 203 7t90 34q6 6 12.5 14t10.5 14.5l12 19.5t11.5 19.5t13.5 25t14 26.5q16 28 43 28q43 0 43 -34q0 -15 -2 -38.5t-6 -53t-12 -101t-17 -149.5q-3 -29 -33 -29q-98 0 -212 1t-191.5 2t-87.5 1q-29 0 -235.5 -2t-233.5 -2 q-29 0 -39 6.5t-10 24.5q0 52 14 106q5 24 17.5 34t33.5 15q53 13 107 58q66 54 98.5 123.5t32.5 207.5h-191q-30 0 -30 25v53q0 27 30 27h191q0 36 -1 119t-1 121q0 91 27 169t75 134.5t111.5 96.5t137.5 59.5t153 19.5q113 0 186 -25q38 -14 47 -90q12 -114 12 -160 q0 -41 -43 -41q-18 0 -31 9.5t-30 37.5q-61 104 -109 142q-26 20 -75 20q-29 0 -51.5 -10t-45.5 -36.5t-37 -84t-16 -143.5q0 -23 1 -149.5t1 -188.5h240q31 0 31 -27v-53q0 -16 -7.5 -20.5t-23.5 -4.5h-246q-8 -101 -80.5 -187.5t-236.5 -172.5z" glyph-name="sterling" horiz-adv-x="1165" unicode="£"/><glyph d="M543 909q-99 0 -166.5 -74.5t-67.5 -179.5q0 -112 69 -179.5t165 -67.5q93 0 159 66t66 179q0 106 -64.5 181t-160.5 75zM963 995l-107 -112q37 -59 52.5 -111.5t15.5 -116.5q0 -130 -72 -223l106 -106q17 -17 17 -31q0 -21 -37.5 -57.5t-56.5 -36.5q-15 0 -33 18 l-107 111q-37 -28 -92.5 -44t-111.5 -16q-125 0 -205 54l-96 -105q-21 -24 -37 -24q-25 0 -62 34t-37 54q0 15 21 36l106 105q-71 86 -71 229q0 129 73 221l-110 107q-17 17 -17 31q0 25 41.5 61.5t63.5 36.5q14 0 26 -12l103 -119q89 63 207 63q116 0 207 -61l104 115 q14 14 31 14q16 0 55 -31t39 -53q0 -15 -16 -31z" glyph-name="currency" horiz-adv-x="1081" unicode="¤"/><glyph d="M1194 444h-305q-2 -88 -2 -213q0 -80 16 -98q17 -20 133 -55q29 -10 29 -41q0 -19 -10 -29t-23 -10q-5 0 -59 1.5t-127.5 3t-124.5 1.5q-65 0 -170 -3t-107 -3q-14 0 -24 10.5t-10 28.5q0 32 26 41q14 5 34.5 11.5t29.5 10t20.5 8t18.5 9.5t14 12q16 14 16 90 q0 23 -1 98.5t-1 126.5h-307q-29 0 -29 25v43q0 27 29 27h305v71l-49 80h-256q-29 0 -29 25v43q0 26 29 26h199l-121 199q-26 42 -56.5 92t-43.5 71.5t-30 45.5t-34 43q-32 39 -88 53q-9 2 -17 11.5t-8 25.5q0 43 33 43q9 0 151.5 -3t182.5 -3q42 0 162 3t125 3q33 0 33 -39 q0 -38 -39 -41q-75 -11 -88 -20q-27 -15 -27 -41q0 -28 23 -78.5t94 -171.5l120 -217l117 209q105 193 105 254q0 31 -19 43q-29 16 -82 22q-19 2 -28 10.5t-9 30.5q0 14 8.5 26.5t24.5 12.5q4 0 98 -3t144 -3q41 0 112.5 3t81.5 3q33 0 33 -41q0 -33 -31 -39 q-45 -10 -86 -43q-39 -33 -82 -92.5t-108 -163.5l-129 -205h213q29 0 29 -26v-43q0 -16 -6.5 -20.5t-22.5 -4.5h-272l-33 -51v-100h305q29 0 29 -27v-43q0 -16 -6.5 -20.5t-22.5 -4.5z" glyph-name="yen" horiz-adv-x="1472" unicode="¥"/><glyph d="M190 1565h152q22 0 29.5 -9.5t7.5 -29.5v-725q0 -22 -6 -30.5t-25 -8.5h-166q-28 0 -28 39v721q0 43 36 43zM190 453h152q22 0 29.5 -9.5t7.5 -29.5v-725q0 -22 -6 -30.5t-25 -8.5h-166q-28 0 -28 39v721q0 43 36 43z" glyph-name="brokenbar" horiz-adv-x="532" unicode="¦"/><glyph d="M758 225q81 -85 109 -154.5t28 -136.5q0 -103 -58.5 -184t-154.5 -124.5t-211 -43.5q-76 0 -150 12t-110 25q-29 11 -40 38t-17 75q-15 107 -15 153q0 39 45 39q12 0 23 -6.5t22 -21t17.5 -25t18.5 -31.5l16 -28q5 -10 28 -48q27 -36 67 -52.5t107 -16.5q58 0 102 34 t44 91q0 28 -7.5 51.5t-33 62t-81.5 92t-145 124.5q-100 81 -163.5 148t-93 123t-39 97t-9.5 92q0 214 256 326q-110 120 -110 252q0 149 119.5 243.5t318.5 94.5q112 0 193 -21q23 -5 32.5 -27t14.5 -63q14 -89 14 -143q0 -35 -43 -35q-28 0 -49 35q-51 83 -82 114 q-39 31 -98 31q-73 0 -111.5 -32t-38.5 -87q0 -54 51.5 -118t206.5 -195q161 -140 218 -226t57 -200q0 -199 -248 -334zM698 291q29 33 42.5 59t13.5 62q0 31 -5.5 53t-28.5 62t-77.5 97t-142.5 136q-14 13 -61 54t-66 58q-58 -54 -58 -124q0 -75 43.5 -138t176.5 -176 q118 -99 163 -143z" glyph-name="section" horiz-adv-x="1079" unicode="§"/><glyph d="M117 1241q-52 0 -89.5 36.5t-37.5 90.5t37.5 89.5t91.5 35.5t89.5 -35.5t35.5 -89.5t-36.5 -90.5t-90.5 -36.5zM481 1241q-52 0 -89.5 36.5t-37.5 90.5t37.5 89.5t91.5 35.5t89.5 -35.5t35.5 -89.5t-36.5 -90.5t-90.5 -36.5z" glyph-name="dieresis" horiz-adv-x="598" unicode="¨"/><glyph d="M1585 735q0 -159 -58.5 -301.5t-158.5 -244t-239 -161t-293 -59.5q-162 0 -305 58.5t-244.5 159.5t-160 241.5t-58.5 298.5q0 154 59.5 293t161 239t243 159t299.5 59q208 0 381 -98t273 -268.5t100 -375.5zM1470 719q0 187 -81.5 339t-227.5 239t-327 87 q-183 0 -333 -87.5t-234.5 -238.5t-84.5 -333q0 -180 86.5 -332t237.5 -241t332 -89q174 0 319.5 87.5t229 238t83.5 330.5zM666 780q0 -163 72 -248.5t182 -85.5q82 0 165 27q28 12 41 12q16 0 25.5 -12t9.5 -24q0 -17 -18 -35q-149 -158 -316 -158q-187 0 -305.5 125.5 t-118.5 312.5q0 151 70 270.5t186.5 183.5t255.5 64q102 0 168 -28q23 -8 34.5 -22.5t15.5 -47.5q1 -24 5.5 -75t4.5 -62q0 -49 -45 -49q-18 0 -30.5 9t-29.5 34q-52 81 -104 112q-31 19 -86 19q-24 0 -47 -8t-48 -30.5t-44 -57t-31 -93t-12 -133.5z" glyph-name="copyright" horiz-adv-x="1652" unicode="©"/><glyph d="M381 637q-83 -68 -164 -68q-49 0 -86 16.5t-57 43.5t-29.5 56t-9.5 58q0 122 137 162q64 20 197 31q0 92 -6 127.5t-23 52.5q-22 25 -66 25q-17 0 -43 -11q-25 -11 -63 -83q-9 -14 -14 -21t-13.5 -12.5t-19.5 -5.5q-37 0 -37 36q0 64 8 95q9 40 41 51q70 24 162 24 q244 0 244 -176q0 -30 -4.5 -139t-4.5 -135q0 -59 14 -78.5t36 -19.5q8 0 18.5 1t13.5 1q13 0 19 -6q10 -10 10 -29q0 -15 -23 -25q-73 -39 -139 -39q-70 0 -98 68zM369 868q-11 -3 -36.5 -7.5t-43.5 -8.5q-48 -11 -68 -35.5t-20 -62.5q0 -33 24.5 -58.5t59.5 -25.5 q54 0 88 24q-4 70 -4 174z" glyph-name="ordfeminine" horiz-adv-x="651" unicode="ª"/><glyph d="M393 205q-62 56 -164.5 148.5t-150.5 135.5q-27 24 -27 46q0 17 6.5 27t24.5 24q22 19 311 274q41 35 58 35q12 0 22 -9.5t10 -21.5q0 -16 -18 -43l-184 -284l184 -293q16 -26 16 -39t-10.5 -23t-24.5 -10q-17 0 -53 33zM739 205q-62 56 -164.5 148.5t-150.5 135.5 q-27 24 -27 46q0 17 6.5 27t24.5 24q22 19 311 274q41 35 58 35q12 0 22 -9.5t10 -21.5q0 -16 -18 -43l-184 -284l184 -293q16 -26 16 -39t-10 -23t-24 -10q-18 0 -54 33z" glyph-name="guillemotleft" horiz-adv-x="880" unicode="«"/><glyph d="M1270 690v-614q0 -31 -31 -31h-135q-31 0 -31 31v461h-885q-30 0 -30 30v123q0 31 30 31h1051q31 0 31 -31z" glyph-name="logicalnot" horiz-adv-x="1497" unicode="¬"/><glyph d="M86 473v139q0 41 37 41h438q37 0 37 -35v-143q0 -33 -35 -33h-448q-29 0 -29 31z" glyph-name="uni00AD" horiz-adv-x="684" unicode="­"/><glyph d="M870 1044q0 -178 -118.5 -298.5t-292.5 -120.5q-181 0 -301.5 119t-120.5 296q0 174 121.5 294t298.5 120q172 0 292.5 -119.5t120.5 -290.5zM803 1036q0 155 -97.5 258t-248.5 103q-152 0 -252.5 -102.5t-100.5 -254.5q0 -149 103.5 -254.5t251.5 -105.5q146 0 245 103 t99 253zM416 1018q-2 -57 -2 -107q0 -36 4 -43q3 -12 41 -24q22 -9 22 -23q0 -18 -18 -18t-55 1t-52 1q-14 0 -47 -1t-45 -1q-18 0 -18 16q0 12 18 21q28 9 31 30q2 14 2 41q0 15 -1 133t-1 140q0 31 -2 37q-1 1 -2.5 4t-2.5 4t-3 3.5t-3.5 4t-5 3.5t-7.5 3.5t-9 3.5 q-20 7 -20 25q0 20 24 20q22 0 50 -1t34 -1q10 0 53 1t72 1q174 -3 174 -133q0 -49 -23.5 -78t-64.5 -49q7 -11 24 -43t34 -60.5t34 -51.5q16 -19 35 -27q23 -8 23 -25q0 -15 -23 -18q-28 -4 -47 -4q-56 0 -70 2q-19 3 -30 20q-23 38 -99 191q-18 0 -24 2zM418 1065 q6 -2 18 -2q82 0 82 92t-72 92q-21 0 -24 -10q-2 -4 -2 -27q0 -5 -1 -66t-1 -79z" glyph-name="registered" horiz-adv-x="907" unicode="®"/><glyph d="M35 1260v120q0 27 31 27h464q31 0 31 -27v-120q0 -16 -7.5 -20.5t-23.5 -4.5h-464q-31 0 -31 25z" glyph-name="macron" horiz-adv-x="598" unicode="¯"/><glyph d="M289 1409q103 0 173 -63.5t70 -174.5q0 -110 -72.5 -176.5t-170.5 -66.5q-108 0 -176 63t-68 178q0 103 73.5 171.5t170.5 68.5zM289 1325q-62 0 -100.5 -41.5t-38.5 -114.5q0 -76 38 -115.5t103 -39.5q58 0 98.5 40.5t40.5 114.5q0 73 -37.5 114.5t-103.5 41.5z" glyph-name="degree" horiz-adv-x="577" unicode="°"/><glyph d="M848 788v-440q0 -31 -31 -31h-135q-31 0 -31 31v440h-428q-30 0 -30 31v123q0 31 30 31h426v440q0 31 31 31h137q31 0 31 -31v-440h426q31 0 31 -31v-123q0 -31 -31 -31h-426zM1274 0h-1051q-30 0 -30 31v123q0 30 30 30h1051q31 0 31 -30v-123q0 -31 -31 -31z" glyph-name="plusminus" horiz-adv-x="1497" unicode="±"/><glyph d="M330 940q-33 0 -118 -1t-118 -1q-35 0 -35 33q0 16 19 35q198 196 285.5 318t87.5 220q0 150 -117 150q-43 0 -72 -25q-20 -15 -63 -90q-14 -25 -23 -34t-22 -9q-35 0 -35 31q0 30 14 121q9 50 37 63q70 33 207 33q131 0 216 -58.5t85 -164.5q0 -31 -7.5 -61.5t-17.5 -56 t-32 -55t-38 -49.5t-50.5 -50.5t-54.5 -47t-64 -48.5t-64.5 -46t-70.5 -49q79 8 217 8q67 3 90 29q16 16 55 75q16 23 39 23q31 0 31 -25q0 -6 -4.5 -51.5t-10.5 -107t-8 -91.5q-3 -20 -22 -20q-11 0 -152 1t-184 1z" glyph-name="twosuperior" unicode="²"/><glyph d="M408 1384q124 -10 191 -63.5t67 -140.5q0 -130 -104 -195t-283 -65q-82 0 -136 22q-31 11 -39 92q-4 23 -4 78q0 13 9.5 22t21.5 9q23 0 35 -25q36 -83 64 -105t73 -22q139 0 139 185q0 73 -32.5 116.5t-92.5 44.5q-18 0 -37 -1t-24 -1q-29 0 -29 35q0 11 6.5 21.5 t16.5 11.5q6 2 27.5 4t39.5 10q60 23 77.5 64.5t17.5 115.5q0 57 -26 87t-64 30q-45 0 -66 -18q-16 -13 -27.5 -31t-33.5 -63q-7 -14 -14 -19.5t-23 -5.5q-27 0 -27 25q0 54 16 116q6 28 25 37q59 29 154 29q299 0 299 -189q0 -34 -8 -60.5t-30 -54.5t-67 -52t-112 -44z" glyph-name="threesuperior" unicode="³"/><glyph d="M449 1434q-127 -120 -250 -232q-28 -26 -52 -26q-32 0 -32 30q0 8 14 41q25 47 72.5 144t60.5 122q30 64 78 64q24 0 76 -10q76 -18 76 -58q0 -32 -43 -75z" glyph-name="acute" horiz-adv-x="604" unicode="´"/><glyph d="M418 25q0 -61 6 -172q6 -107 29 -224q12 -62 12 -88q0 -71 -266 -71q-64 0 -64 69q0 300 3 596t3 338q0 17 3 153.5t3 168.5q0 72 -28 100q-27 27 -88 43q-31 9 -31 39q0 29 35 35q91 16 220.5 31.5t168.5 15.5q14 0 25.5 -8t11.5 -25q0 -5 -13.5 -171t-13.5 -234 q0 -314 41 -392q50 -92 131 -92q104 0 180 51q-2 19 -3 55t-1.5 95t-0.5 118.5v156.5t-1 178q0 80 -26 100q-17 13 -46 25.5t-53 17.5q-30 6 -30 43q0 15 8.5 22t25.5 13q84 16 218 31.5t176 15.5q14 0 25.5 -8t11.5 -25q0 -5 -5.5 -99t-5.5 -161q-6 -273 -6 -492 q0 -67 12.5 -96t38.5 -41q20 -10 43.5 -14t36.5 -7t17 -14q4 -12 4 -18q0 -21 -21 -33q-45 -30 -139.5 -57t-157.5 -27q-40 0 -70.5 33.5t-41.5 108.5q-72 -72 -132 -104t-126 -32q-76 0 -119 52z" glyph-name="mu" horiz-adv-x="1232" unicode="µ"/><glyph d="M846 -88v1352q0 43 -1 75.5t-2 49t-1 20.5q0 12 0.5 17.5t8 12.5t21.5 7q60 0 151 1l91 1q13 0 23 -9t10 -26q0 -26 -25 -35q-86 -31 -100 -45q-21 -21 -21 -98v-1311q0 -79 25 -104q8 -8 21.5 -16t22.5 -12t30.5 -12t27.5 -11q33 -14 33 -41q0 -17 -10 -26t-23 -9 q-2 0 -97.5 2t-153.5 2q-35 0 -35 33q0 3 2 63.5t2 118.5zM483 -78v602q-83 13 -152 45.5t-124.5 86.5t-87 137t-31.5 186q0 113 44 203.5t120 147t173.5 86.5t209.5 30q24 0 65 1t45 1q35 0 35 -35q0 -27 -32 -35q-72 -25 -89 -49q-20 -20 -20 -102v-1311q0 -58 2 -120.5 t2 -65.5q0 -33 -37 -33q-58 0 -151 -2t-95 -2q-14 0 -25 9t-11 26q0 27 28 39q87 37 107 53q24 21 24 102z" glyph-name="paragraph" horiz-adv-x="1261" unicode="¶"/><glyph d="M446 584q0 -74 -45.5 -125t-121.5 -51q-84 0 -131.5 48.5t-47.5 123.5q0 71 47 121.5t123 50.5q77 0 126.5 -45.5t49.5 -122.5z" glyph-name="periodcentered" horiz-adv-x="546" unicode="·"/><glyph d="M377 20l-55 -129q182 -19 182 -170q0 -153 -213 -231q-75 -27 -148 -27q-23 0 -36 10.5t-13 28.5q0 36 60 54q75 24 113 55.5t38 77.5q0 38 -20.5 62t-71.5 34q-20 3 -20 16q0 11 6 23l84 196h94z" glyph-name="cedilla" horiz-adv-x="598" unicode="¸"/><glyph d="M496 1341q-2 -98 -2 -241q0 -31 4 -46t9 -19t21 -13q22 -13 60 -29q24 -9 24 -32q0 -17 -7 -21t-21 -4q-8 0 -73.5 2t-107.5 2q-41 0 -115 -2l-75 -2q-33 0 -33 25q0 19 25 32q19 9 39 18t30.5 14t16.5 9q10 8 10 62q0 78 -1 211t-1 215q0 68 -16 84q-14 14 -72 14 q-11 0 -20 7.5t-9 19.5q0 22 27 34q37 16 111.5 47t85.5 35q7 3 21.5 9t24.5 9t17 3q33 0 33 -39q0 -44 -6 -404z" glyph-name="onesuperior" unicode="¹"/><glyph d="M698 907q0 -148 -93 -244t-236 -96q-140 0 -228 93t-88 235q0 137 92.5 230.5t229.5 93.5q147 0 235 -87t88 -225zM522 885q0 126 -39.5 191t-107.5 65t-106 -59t-38 -179q0 -125 42 -190.5t112 -65.5q137 0 137 238z" glyph-name="ordmasculine" horiz-adv-x="745" unicode="º"/><glyph d="M487 862q64 -58 167 -150t149 -134q26 -23 26 -46q0 -28 -30 -51q-63 -56 -166.5 -146.5t-145.5 -127.5q-41 -35 -57 -35q-12 0 -22.5 9.5t-10.5 21.5q0 15 19 43l184 284l-184 293q-17 27 -17 39q0 13 10.5 23t24.5 10q17 0 53 -33zM141 862q64 -58 167 -150t149 -134 q26 -23 26 -46q0 -28 -30 -51q-63 -56 -166.5 -146.5t-145.5 -127.5q-41 -35 -57 -35q-12 0 -22.5 9.5t-10.5 21.5q0 15 19 43l184 284l-184 293q-17 27 -17 39q0 13 10.5 23t24.5 10q17 0 53 -33z" glyph-name="guillemotright" horiz-adv-x="880" unicode="»"/><glyph d="M1028 1366h70q26 0 26 -16q0 -15 -8 -31l-518 -1290q-4 -10 -5.5 -14.5t-6 -8.5t-11 -5t-18.5 -1h-68q-20 0 -20 18q0 16 8 29l518 1294q4 9 6.5 13t9 8t17.5 4zM440 946q-2 -98 -2 -241q0 -30 4.5 -45.5t9 -19.5t21.5 -13q25 -15 59 -29q25 -9 25 -33q0 -12 -5 -17.5 t-9.5 -6t-14.5 -0.5q-8 0 -73 2t-107 2q-41 0 -116 -2l-74 -2q-33 0 -33 24q0 21 25 33q19 9 39 18t30.5 14t16.5 9q10 7 10 61q0 78 -1 211t-1 215q0 67 -17 84q-15 15 -71 15q-11 0 -20 7.5t-9 18.5q0 23 27 35q4 1 196 82q7 2 22 8.5t25 9.5t17 3q32 0 32 -39 q0 -44 -6 -404zM1196 346v303q-163 -244 -205 -303h205zM1389 150q0 -35 8 -46q6 -10 22 -18t72 -29q25 -9 25 -32q0 -27 -29 -27q-8 0 -81.5 2t-113.5 2q-41 0 -114 -2l-74 -2q-33 0 -33 27q0 23 25 32q81 30 92 41q10 10 10 45q0 39 -2 74h-295q-51 0 -51 41q0 13 27 57 q201 305 346 490q10 12 15.5 16.5t24.5 10.5t48 6q51 0 64.5 -9t13.5 -34v-449h114q33 0 33 -39q0 -54 -4 -63q-4 -10 -6.5 -14.5t-10 -8.5t-20.5 -4h-104q-2 -39 -2 -67z" glyph-name="onequarter" horiz-adv-x="1660" unicode="¼"/><glyph d="M1028 1366h70q26 0 26 -16q0 -15 -8 -31l-518 -1290q-4 -10 -5.5 -14.5t-6 -8.5t-11 -5t-18.5 -1h-68q-20 0 -20 18q0 16 8 29l518 1294q4 9 6.5 13t9 8t17.5 4zM440 946q-2 -98 -2 -241q0 -30 4.5 -45.5t9 -19.5t21.5 -13q25 -15 59 -29q25 -9 25 -33q0 -12 -5 -17.5 t-9.5 -6t-14.5 -0.5q-8 0 -73 2t-107 2q-41 0 -116 -2l-74 -2q-33 0 -33 24q0 21 25 33q19 9 39 18t30.5 14t16.5 9q10 7 10 61q0 78 -1 211t-1 215q0 67 -17 84q-15 15 -71 15q-11 0 -20 7.5t-9 18.5q0 23 27 35q4 1 196 82q7 2 22 8.5t25 9.5t17 3q32 0 32 -39 q0 -44 -6 -404zM1190 0q-33 0 -118 -1t-118 -1q-34 0 -34 33q0 17 18 35q198 196 285.5 318t87.5 220q0 150 -117 150q-43 0 -72 -25q-20 -15 -63 -90q-14 -25 -23 -34t-22 -9q-35 0 -35 31q0 30 14 121q9 50 37 63q70 33 207 33q131 0 216 -58.5t85 -164.5 q0 -31 -7.5 -61.5t-17.5 -56t-32 -55t-38 -49.5t-50.5 -50.5t-54.5 -47t-64 -48.5t-64.5 -46t-70.5 -49q79 8 217 8q67 3 90 29q16 16 55 75q16 23 39 23q31 0 31 -25q0 -6 -4.5 -51.5t-10.5 -107t-8 -91.5q-3 -20 -22 -20q-11 0 -152 1t-184 1z" glyph-name="onehalf" horiz-adv-x="1660" unicode="½"/><glyph d="M1069 1366h70q26 0 26 -16q0 -15 -8 -31l-518 -1290q-4 -10 -5.5 -14.5t-6 -8.5t-11 -5t-18.5 -1h-68q-20 0 -20 18q0 16 8 29l518 1294q4 9 6.5 13t9 8t17.5 4zM1237 346v303q-163 -244 -205 -303h205zM1430 150q0 -35 8 -46q6 -10 22 -18t72 -29q24 -9 24 -32 q0 -27 -28 -27q-8 0 -81.5 2t-113.5 2q-41 0 -115 -2l-73 -2q-33 0 -33 27q0 23 25 32q81 30 92 41q10 10 10 45q0 39 -2 74h-295q-51 0 -51 41q0 13 27 57q201 305 346 490q10 12 15.5 16.5t24.5 10.5t48 6q51 0 64.5 -9t13.5 -34v-449h114q33 0 33 -39q0 -54 -4 -63 q-4 -10 -6.5 -14.5t-10 -8.5t-20.5 -4h-104q-2 -39 -2 -67zM406 989q124 -10 191 -64t67 -141q0 -130 -104.5 -195t-283.5 -65q-79 0 -135 23q-31 11 -39 92q-4 23 -4 78q0 13 9.5 22t21.5 9q23 0 35 -25q36 -83 64 -105t73 -22q139 0 139 184q0 74 -32.5 117.5t-92.5 44.5 q-18 0 -37 -1t-24 -1q-29 0 -29 35q0 11 6.5 21.5t16.5 11.5q6 2 27.5 4t39.5 10q60 23 77.5 64.5t17.5 115.5q0 57 -26.5 87t-64.5 30q-43 0 -65 -19q-16 -13 -27.5 -31t-33.5 -63q-7 -13 -14 -18.5t-23 -5.5q-27 0 -27 24q0 55 16 117q6 28 25 37q59 29 154 29 q299 0 299 -189q0 -34 -8 -60.5t-30 -54.5t-67 -52t-112 -44z" glyph-name="threequarters" horiz-adv-x="1660" unicode="¾"/><glyph d="M557 408q3 11 6 38.5t6 36.5q4 11 7.5 16.5t15.5 11t31 5.5q42 0 45 -39q14 -133 14 -158q0 -68 -15 -109.5t-43.5 -69t-91.5 -66.5q-67 -44 -107 -104t-40 -117q0 -213 164 -213q61 0 102 24q28 16 84 131q17 39 56 39q45 0 45 -45q0 -57 -9 -127q-6 -55 -16.5 -76 t-36.5 -32q-72 -31 -221 -31q-105 0 -192 21t-154.5 63.5t-105.5 114t-38 165.5q0 134 88 220.5t308 189.5q52 24 71.5 49.5t26.5 61.5zM436 842q0 74 46 125t122 51q84 0 131 -48.5t47 -123.5q0 -71 -47 -121.5t-123 -50.5q-77 0 -126.5 45.5t-49.5 122.5z" glyph-name="questiondown" horiz-adv-x="948" unicode="¿"/><glyph d="M500 614h309q-84 217 -150 410q-23 -57 -86.5 -222.5t-72.5 -187.5zM842 504h-381q-71 -186 -91 -247.5t-20 -100.5q0 -36 25 -52q8 -5 16.5 -8.5t15.5 -5.5t22.5 -6.5t29.5 -9.5q21 -7 30 -15.5t9 -27.5q0 -33 -31 -33q-7 0 -91 2t-128 2q-30 0 -112.5 -2t-94.5 -2 q-41 0 -41 37q0 22 7 29t26 12q41 12 60.5 20.5t44 33t44 63t51.5 112.5q217 508 449 1084q23 59 41.5 78.5t48.5 19.5q29 0 42 -14.5t32 -59.5q14 -38 58.5 -163t82.5 -228t113 -302.5t164 -426.5q48 -127 81.5 -164.5t116.5 -52.5q27 -6 27 -39q0 -39 -31 -39q-8 0 -90 2 t-125 2q-44 0 -243 -2t-205 -2q-16 0 -24.5 11t-8.5 26q0 22 9 30t30 13q96 21 117 39q22 19 22 51q0 46 -87 302q-7 22 -11 34zM549 1757q-43 27 -57.5 41t-14.5 31q0 13 7 23t14 15.5t30 20.5q60 31 97 31q22 0 38.5 -9t41.5 -38q34 -40 95 -112.5t95 -112.5 q23 -30 23 -41q0 -35 -39 -35q-19 0 -50 16q-53 31 -280 170z" glyph-name="Agrave" horiz-adv-x="1507" unicode="À"/><glyph d="M500 614h309q-84 217 -150 410q-23 -57 -86.5 -222.5t-72.5 -187.5zM842 504h-381q-71 -186 -91 -247.5t-20 -100.5q0 -36 25 -52q8 -5 16.5 -8.5t15.5 -5.5t22.5 -6.5t29.5 -9.5q21 -7 30 -15.5t9 -27.5q0 -33 -31 -33q-7 0 -91 2t-128 2q-30 0 -112.5 -2t-94.5 -2 q-41 0 -41 37q0 22 7 29t26 12q41 12 60.5 20.5t44 33t44 63t51.5 112.5q217 508 449 1084q23 59 41.5 78.5t48.5 19.5q29 0 42 -14.5t32 -59.5q14 -38 58.5 -163t82.5 -228t113 -302.5t164 -426.5q48 -127 81.5 -164.5t116.5 -52.5q27 -6 27 -39q0 -39 -31 -39q-8 0 -90 2 t-125 2q-44 0 -243 -2t-205 -2q-16 0 -24.5 11t-8.5 26q0 22 9 30t30 13q96 21 117 39q22 19 22 51q0 46 -87 302q-7 22 -11 34zM997 1757q-155 -89 -305 -170q-31 -16 -49 -16q-39 0 -39 35q0 18 23 41q105 105 213 225q29 29 45.5 38t40.5 9q32 0 92 -31q5 -3 15.5 -10 l13.5 -9t9 -7.5t7.5 -9t3.5 -9.5t2 -14q0 -19 -14.5 -33t-57.5 -39z" glyph-name="Aacute" horiz-adv-x="1507" unicode="Á"/><glyph d="M500 614h309q-84 217 -150 410q-23 -57 -86.5 -222.5t-72.5 -187.5zM842 504h-381q-71 -186 -91 -247.5t-20 -100.5q0 -36 25 -52q8 -5 16.5 -8.5t15.5 -5.5t22.5 -6.5t29.5 -9.5q21 -7 30 -15.5t9 -27.5q0 -33 -31 -33q-7 0 -91 2t-128 2q-30 0 -112.5 -2t-94.5 -2 q-41 0 -41 37q0 22 7 29t26 12q41 12 60.5 20.5t44 33t44 63t51.5 112.5q217 508 449 1084q23 59 41.5 78.5t48.5 19.5q29 0 42 -14.5t32 -59.5q14 -38 58.5 -163t82.5 -228t113 -302.5t164 -426.5q48 -127 81.5 -164.5t116.5 -52.5q27 -6 27 -39q0 -39 -31 -39q-8 0 -90 2 t-125 2q-44 0 -243 -2t-205 -2q-16 0 -24.5 11t-8.5 26q0 22 9 30t30 13q96 21 117 39q22 19 22 51q0 46 -87 302q-7 22 -11 34zM1094 1589q0 -14 -11.5 -26.5t-27.5 -12.5q-7 0 -37 13q-47 25 -135 71.5t-113 59.5q-126 -63 -248 -131q-22 -13 -35 -13q-17 0 -26.5 12.5 t-9.5 26.5q0 13 14 27q16 15 258 235q32 29 53 29q26 0 51 -25q134 -128 254 -237q13 -13 13 -29z" glyph-name="Acircumflex" horiz-adv-x="1507" unicode="Â"/><glyph d="M500 614h309q-84 217 -150 410q-23 -57 -86.5 -222.5t-72.5 -187.5zM842 504h-381q-71 -186 -91 -247.5t-20 -100.5q0 -36 25 -52q8 -5 16.5 -8.5t15.5 -5.5t22.5 -6.5t29.5 -9.5q21 -7 30 -15.5t9 -27.5q0 -33 -31 -33q-7 0 -91 2t-128 2q-30 0 -112.5 -2t-94.5 -2 q-41 0 -41 37q0 22 7 29t26 12q41 12 60.5 20.5t44 33t44 63t51.5 112.5q217 508 449 1084q23 59 41.5 78.5t48.5 19.5q29 0 42 -14.5t32 -59.5q14 -38 58.5 -163t82.5 -228t113 -302.5t164 -426.5q48 -127 81.5 -164.5t116.5 -52.5q27 -6 27 -39q0 -39 -31 -39q-8 0 -90 2 t-125 2q-44 0 -243 -2t-205 -2q-16 0 -24.5 11t-8.5 26q0 22 9 30t30 13q96 21 117 39q22 19 22 51q0 46 -87 302q-7 22 -11 34zM729 1812l139 -36q58 -15 80 -15q30 0 44.5 9.5t37.5 44.5q13 22 33 22q24 0 24 -25q0 -14 -6 -32q-33 -106 -64.5 -145.5t-84.5 -39.5 q-23 0 -105 21l-122 33q-61 16 -97 16q-32 0 -49.5 -10.5t-40.5 -52.5q-13 -19 -31 -19q-9 0 -17.5 6.5t-8.5 18.5q0 17 8 30q41 108 76.5 149.5t85.5 41.5q33 0 98 -17z" glyph-name="Atilde" horiz-adv-x="1507" unicode="Ã"/><glyph d="M500 614h309q-84 217 -150 410q-23 -57 -86.5 -222.5t-72.5 -187.5zM842 504h-381q-71 -186 -91 -247.5t-20 -100.5q0 -36 25 -52q8 -5 16.5 -8.5t15.5 -5.5t22.5 -6.5t29.5 -9.5q21 -7 30 -15.5t9 -27.5q0 -33 -31 -33q-7 0 -91 2t-128 2q-30 0 -112.5 -2t-94.5 -2 q-41 0 -41 37q0 22 7 29t26 12q41 12 60.5 20.5t44 33t44 63t51.5 112.5q217 508 449 1084q23 59 41.5 78.5t48.5 19.5q29 0 42 -14.5t32 -59.5q14 -38 58.5 -163t82.5 -228t113 -302.5t164 -426.5q48 -127 81.5 -164.5t116.5 -52.5q27 -6 27 -39q0 -39 -31 -39q-8 0 -90 2 t-125 2q-44 0 -243 -2t-205 -2q-16 0 -24.5 11t-8.5 26q0 22 9 30t30 13q96 21 117 39q22 19 22 51q0 46 -87 302q-7 22 -11 34zM582 1585q-52 0 -89.5 36.5t-37.5 90.5t37.5 89.5t91.5 35.5t89.5 -35.5t35.5 -89.5t-36.5 -90.5t-90.5 -36.5zM971 1585q-52 0 -89.5 36.5 t-37.5 90.5t37.5 89.5t91.5 35.5t89.5 -35.5t35.5 -89.5t-36.5 -90.5t-90.5 -36.5z" glyph-name="Adieresis" horiz-adv-x="1507" unicode="Ä"/><glyph d="M500 614h309q-84 217 -150 410q-23 -57 -86.5 -222.5t-72.5 -187.5zM842 504h-381q-71 -186 -91 -247.5t-20 -100.5q0 -36 25 -52q8 -5 16.5 -8.5t15.5 -5.5t22.5 -6.5t29.5 -9.5q21 -7 30 -15.5t9 -27.5q0 -33 -31 -33q-7 0 -91 2t-128 2q-30 0 -112.5 -2t-94.5 -2 q-41 0 -41 37q0 22 7 29t26 12q41 12 60.5 20.5t44 33t44 63t51.5 112.5q217 508 449 1084q23 59 41.5 78.5t48.5 19.5q29 0 42 -14.5t32 -59.5q14 -38 58.5 -163t82.5 -228t113 -302.5t164 -426.5q48 -127 81.5 -164.5t116.5 -52.5q27 -6 27 -39q0 -39 -31 -39q-8 0 -90 2 t-125 2q-44 0 -243 -2t-205 -2q-16 0 -24.5 11t-8.5 26q0 22 9 30t30 13q96 21 117 39q22 19 22 51q0 46 -87 302q-7 22 -11 34zM776 1944q91 0 146 -53.5t55 -139.5t-59 -142.5t-146 -56.5t-144 53t-57 138t60.5 143t144.5 58zM680 1747q0 -51 26 -82t68 -31q39 0 66.5 30 t27.5 83q0 56 -27.5 86.5t-66.5 30.5q-38 0 -66 -31.5t-28 -85.5z" glyph-name="Aring" horiz-adv-x="1507" unicode="Å"/><glyph d="M590 629h375q0 163 -1 400.5t-1 260.5q-6 -11 -142.5 -248.5t-230.5 -412.5zM965 518h-437q-5 -9 -51 -94.5t-67 -128.5q-54 -105 -54 -139q0 -31 25 -47q35 -18 82 -31q31 -8 42 -17.5t11 -29.5q0 -19 -10.5 -26t-34.5 -7q-7 0 -97 2t-134 2q-30 0 -113 -2t-94 -2 q-41 0 -41 37q0 21 7.5 28.5t27.5 12.5q73 20 107.5 55.5t115.5 173.5q57 97 160.5 272.5t142.5 241.5q145 247 266 459q12 16 12 39q0 18 -20 24q-24 8 -73 16.5t-58 10.5q-27 9 -27 41q0 19 10 29t25 10q4 0 182 -2t246 -2q20 0 311 2t420 2q41 0 41 -37q8 -148 8 -272 q0 -41 -47 -41q-37 0 -51 32q-9 19 -21 42.5t-18 36t-14 28t-13 23.5t-10.5 17t-10 14t-9.5 9q-19 17 -34.5 23.5t-68 12t-151.5 5.5q-119 0 -135 -16q-3 -3 -5 -6t-3 -5.5t-2 -7t-2 -7t-1.5 -9t-0.5 -10t-0.5 -12t-0.5 -13.5q-4 -93 -4 -456q110 0 242 12q82 10 102 33 q23 26 60 112q13 37 51 37q41 0 41 -37q0 -5 -1 -66.5t-1 -115.5t0.5 -105t1 -82t0.5 -38q0 -39 -41 -39q-39 0 -53 39q-41 94 -66 119q-24 18 -104 24q-95 10 -232 10q0 -16 -1 -171.5t-1 -229.5q0 -68 6 -99.5t27 -47.5q31 -23 77 -30t146 -7q102 0 148.5 10.5t72.5 32.5 q34 24 113 200q15 35 55 35q45 0 45 -49q0 -26 -5 -145.5t-9 -165.5q-3 -37 -39 -37q-97 0 -290 1.5t-349.5 3t-165.5 1.5q-68 0 -177 -3t-111 -3q-35 0 -35 37q0 30 26 39q8 2 22.5 7t20 6.5t16 5t15 5.5t12 5t11.5 5t9.5 5.5t9 6.5t7.5 7q17 17 17 96q0 20 -1 122t-1 173z" glyph-name="AE" horiz-adv-x="2045" unicode="Æ"/><glyph d="M807 -33l-35 -80q99 -10 145 -56t46 -118q0 -157 -224 -235q-85 -29 -153 -29q-25 0 -38 11.5t-13 29.5q0 19 13.5 32t47.5 23q160 50 160 136q0 80 -97 98q-22 3 -22 16t6 25l64 147q-93 7 -181.5 37t-171.5 88.5t-145 140t-99.5 200t-37.5 259.5q0 166 62 310 t175.5 250.5t284.5 167.5t377 61q48 0 114 -8t95 -21q46 -21 49 -72q10 -78 10 -211q0 -38 -11.5 -50.5t-37.5 -12.5q-24 0 -37 12.5t-41 55.5q-49 77 -72.5 108t-50.5 47q-48 25 -139 25q-68 0 -130 -23t-117 -73t-95.5 -122t-64 -176.5t-23.5 -230.5q0 -118 30.5 -212.5 t79.5 -154.5t115.5 -100.5t135 -57t141.5 -16.5q136 0 252 45q4 1 17 7t22.5 9t15.5 3q18 0 29.5 -15.5t11.5 -35.5q0 -19 -21 -37q-206 -179 -442 -197z" glyph-name="Ccedilla" horiz-adv-x="1333" unicode="Ç"/><glyph d="M518 799q142 0 268 12q83 11 103 33q21 24 59 112q13 37 51 37q41 0 41 -37q0 -5 -1 -66.5t-1 -115.5t0.5 -105t1 -82t0.5 -38q0 -39 -41 -39q-39 0 -53 39q-42 96 -65 119q-24 18 -105 24q-95 10 -258 10q0 -16 -1 -171.5t-1 -229.5q0 -68 6 -99.5t27 -47.5 q31 -22 86.5 -29.5t159.5 -7.5q102 0 150.5 11t74.5 32q34 24 113 200q15 35 55 35q45 0 45 -49q0 -26 -5 -145.5t-9 -165.5q-3 -37 -39 -37q-97 0 -296.5 1.5t-363 3t-172.5 1.5q-68 0 -177 -3t-112 -3q-34 0 -34 37q0 30 26 39q15 5 37 12.5t31.5 10.5t21.5 8t19 10t14 12 q16 16 16 96q0 104 -4 517.5t-4 482.5q0 76 -16 94q-8 8 -20.5 15t-22.5 10.5t-37 11.5t-43 14q-27 9 -27 41q0 19 10 29t25 10q3 0 112 -2t177 -2q9 0 154 1t326.5 2t277.5 1q41 0 41 -37q8 -148 8 -272q0 -41 -47 -41q-37 0 -51 32q-7 15 -16.5 34t-15 29.5t-12.5 24.5 t-11.5 22t-9.5 17.5t-9 15l-8 11t-7.5 9.5t-7.5 7q-26 22 -81 31.5t-201 9.5q-117 0 -133 -16q-3 -3 -5 -6t-3 -5.5t-2 -7t-2 -7t-1.5 -9t-0.5 -10t-0.5 -12t-0.5 -13.5q-4 -93 -4 -456zM358 1757q-43 26 -57 40.5t-14 31.5q0 13 7 23t14 15.5t30 20.5q60 31 96 31 q22 0 38.5 -9t41.5 -38q34 -40 95.5 -112.5t95.5 -112.5q22 -28 22 -41q0 -35 -39 -35q-18 0 -49 16q-82 48 -281 170z" glyph-name="Egrave" horiz-adv-x="1296" unicode="È"/><glyph d="M518 799q142 0 268 12q83 11 103 33q21 24 59 112q13 37 51 37q41 0 41 -37q0 -5 -1 -66.5t-1 -115.5t0.5 -105t1 -82t0.5 -38q0 -39 -41 -39q-39 0 -53 39q-42 96 -65 119q-24 18 -105 24q-95 10 -258 10q0 -16 -1 -171.5t-1 -229.5q0 -68 6 -99.5t27 -47.5 q31 -22 86.5 -29.5t159.5 -7.5q102 0 150.5 11t74.5 32q34 24 113 200q15 35 55 35q45 0 45 -49q0 -26 -5 -145.5t-9 -165.5q-3 -37 -39 -37q-97 0 -296.5 1.5t-363 3t-172.5 1.5q-68 0 -177 -3t-112 -3q-34 0 -34 37q0 30 26 39q15 5 37 12.5t31.5 10.5t21.5 8t19 10t14 12 q16 16 16 96q0 104 -4 517.5t-4 482.5q0 76 -16 94q-8 8 -20.5 15t-22.5 10.5t-37 11.5t-43 14q-27 9 -27 41q0 19 10 29t25 10q3 0 112 -2t177 -2q9 0 154 1t326.5 2t277.5 1q41 0 41 -37q8 -148 8 -272q0 -41 -47 -41q-37 0 -51 32q-7 15 -16.5 34t-15 29.5t-12.5 24.5 t-11.5 22t-9.5 17.5t-9 15l-8 11t-7.5 9.5t-7.5 7q-26 22 -81 31.5t-201 9.5q-117 0 -133 -16q-3 -3 -5 -6t-3 -5.5t-2 -7t-2 -7t-1.5 -9t-0.5 -10t-0.5 -12t-0.5 -13.5q-4 -93 -4 -456zM874 1757q-155 -89 -305 -170q-31 -16 -49 -16q-39 0 -39 35q0 18 23 41 q105 105 213 225q29 29 45.5 38t40.5 9q32 0 92 -31q5 -3 15.5 -10l13.5 -9t9 -7.5t7.5 -9t3.5 -9.5t2 -14q0 -19 -14.5 -33t-57.5 -39z" glyph-name="Eacute" horiz-adv-x="1296" unicode="É"/><glyph d="M518 799q142 0 268 12q83 11 103 33q21 24 59 112q13 37 51 37q41 0 41 -37q0 -5 -1 -66.5t-1 -115.5t0.5 -105t1 -82t0.5 -38q0 -39 -41 -39q-39 0 -53 39q-42 96 -65 119q-24 18 -105 24q-95 10 -258 10q0 -16 -1 -171.5t-1 -229.5q0 -68 6 -99.5t27 -47.5 q31 -22 86.5 -29.5t159.5 -7.5q102 0 150.5 11t74.5 32q34 24 113 200q15 35 55 35q45 0 45 -49q0 -26 -5 -145.5t-9 -165.5q-3 -37 -39 -37q-97 0 -296.5 1.5t-363 3t-172.5 1.5q-68 0 -177 -3t-112 -3q-34 0 -34 37q0 30 26 39q15 5 37 12.5t31.5 10.5t21.5 8t19 10t14 12 q16 16 16 96q0 104 -4 517.5t-4 482.5q0 76 -16 94q-8 8 -20.5 15t-22.5 10.5t-37 11.5t-43 14q-27 9 -27 41q0 19 10 29t25 10q3 0 112 -2t177 -2q9 0 154 1t326.5 2t277.5 1q41 0 41 -37q8 -148 8 -272q0 -41 -47 -41q-37 0 -51 32q-7 15 -16.5 34t-15 29.5t-12.5 24.5 t-11.5 22t-9.5 17.5t-9 15l-8 11t-7.5 9.5t-7.5 7q-26 22 -81 31.5t-201 9.5q-117 0 -133 -16q-3 -3 -5 -6t-3 -5.5t-2 -7t-2 -7t-1.5 -9t-0.5 -10t-0.5 -12t-0.5 -13.5q-4 -93 -4 -456zM948 1589q0 -14 -11.5 -26.5t-27.5 -12.5q-7 0 -37 13q-45 24 -130.5 69.5 t-116.5 61.5q-126 -63 -248 -131q-22 -13 -35 -13q-17 0 -27 12.5t-10 26.5q0 13 14 27q57 53 152 138.5t107 96.5q32 29 53 29q26 0 51 -25q134 -128 254 -237q12 -12 12 -29z" glyph-name="Ecircumflex" horiz-adv-x="1296" unicode="Ê"/><glyph d="M518 799q142 0 268 12q83 11 103 33q21 24 59 112q13 37 51 37q41 0 41 -37q0 -5 -1 -66.5t-1 -115.5t0.5 -105t1 -82t0.5 -38q0 -39 -41 -39q-39 0 -53 39q-42 96 -65 119q-24 18 -105 24q-95 10 -258 10q0 -16 -1 -171.5t-1 -229.5q0 -68 6 -99.5t27 -47.5 q31 -22 86.5 -29.5t159.5 -7.5q102 0 150.5 11t74.5 32q34 24 113 200q15 35 55 35q45 0 45 -49q0 -26 -5 -145.5t-9 -165.5q-3 -37 -39 -37q-97 0 -296.5 1.5t-363 3t-172.5 1.5q-68 0 -177 -3t-112 -3q-34 0 -34 37q0 30 26 39q15 5 37 12.5t31.5 10.5t21.5 8t19 10t14 12 q16 16 16 96q0 104 -4 517.5t-4 482.5q0 76 -16 94q-8 8 -20.5 15t-22.5 10.5t-37 11.5t-43 14q-27 9 -27 41q0 19 10 29t25 10q3 0 112 -2t177 -2q9 0 154 1t326.5 2t277.5 1q41 0 41 -37q8 -148 8 -272q0 -41 -47 -41q-37 0 -51 32q-7 15 -16.5 34t-15 29.5t-12.5 24.5 t-11.5 22t-9.5 17.5t-9 15l-8 11t-7.5 9.5t-7.5 7q-26 22 -81 31.5t-201 9.5q-117 0 -133 -16q-3 -3 -5 -6t-3 -5.5t-2 -7t-2 -7t-1.5 -9t-0.5 -10t-0.5 -12t-0.5 -13.5q-4 -93 -4 -456zM412 1585q-52 0 -89.5 36.5t-37.5 90.5t37.5 89.5t91.5 35.5t89.5 -35.5t35.5 -89.5 t-36.5 -90.5t-90.5 -36.5zM801 1585q-52 0 -89.5 36.5t-37.5 90.5t37.5 89.5t91.5 35.5t89.5 -35.5t35.5 -89.5t-36.5 -90.5t-90.5 -36.5z" glyph-name="Edieresis" horiz-adv-x="1296" unicode="Ë"/><glyph d="M522 1208q0 -18 -2 -437t-2 -535q0 -84 19 -105q3 -4 7.5 -7t11.5 -6.5t13.5 -6.5t19 -7.5t23 -8t29.5 -10t35 -11.5q29 -10 29 -39q0 -37 -33 -37q-5 0 -61.5 1.5t-133 3t-129.5 1.5q-68 0 -177 -3t-112 -3q-34 0 -34 37q0 30 26 39q8 2 22.5 7t20 6.5t16 5t15 5.5t12 5 t11.5 5t9.5 5.5t9 6.5t7.5 7q16 16 16 96q0 104 -4 517.5t-4 482.5q0 76 -16 94q-8 8 -20.5 15t-22.5 10.5t-37 11.5t-43 14q-27 9 -27 41q0 19 10 29t25 10q4 0 116.5 -3t180.5 -3q53 0 130 1.5t134.5 3t63.5 1.5q33 0 33 -39q0 -31 -29 -41q-22 -7 -47 -15.5t-37 -12.5 t-24.5 -8.5t-19 -9t-11.5 -9.5q-19 -21 -19 -105zM133 1757q-43 27 -57.5 41t-14.5 31q0 13 7.5 23.5t14 15t30.5 20.5q60 31 96 31q22 0 38.5 -9t41.5 -38q34 -40 95 -112.5t95 -112.5q23 -30 23 -41q0 -35 -39 -35q-18 0 -49 16q-82 48 -281 170z" glyph-name="Igrave" horiz-adv-x="739" unicode="Ì"/><glyph d="M522 1208q0 -18 -2 -437t-2 -535q0 -84 19 -105q3 -4 7.5 -7t11.5 -6.5t13.5 -6.5t19 -7.5t23 -8t29.5 -10t35 -11.5q29 -10 29 -39q0 -37 -33 -37q-5 0 -61.5 1.5t-133 3t-129.5 1.5q-68 0 -177 -3t-112 -3q-34 0 -34 37q0 30 26 39q8 2 22.5 7t20 6.5t16 5t15 5.5t12 5 t11.5 5t9.5 5.5t9 6.5t7.5 7q16 16 16 96q0 104 -4 517.5t-4 482.5q0 76 -16 94q-8 8 -20.5 15t-22.5 10.5t-37 11.5t-43 14q-27 9 -27 41q0 19 10 29t25 10q4 0 116.5 -3t180.5 -3q53 0 130 1.5t134.5 3t63.5 1.5q33 0 33 -39q0 -31 -29 -41q-22 -7 -47 -15.5t-37 -12.5 t-24.5 -8.5t-19 -9t-11.5 -9.5q-19 -21 -19 -105zM608 1757q-155 -89 -305 -170q-31 -16 -49 -16q-39 0 -39 35q0 18 23 41q105 105 213 225q29 29 45.5 38t40.5 9q32 0 92 -31q5 -3 15.5 -10l13.5 -9t9 -7.5t7.5 -9t3.5 -9.5t2 -14q0 -19 -14.5 -33t-57.5 -39z" glyph-name="Iacute" horiz-adv-x="739" unicode="Í"/><glyph d="M522 1208q0 -18 -2 -437t-2 -535q0 -84 19 -105q3 -4 7.5 -7t11.5 -6.5t13.5 -6.5t19 -7.5t23 -8t29.5 -10t35 -11.5q29 -10 29 -39q0 -37 -33 -37q-5 0 -61.5 1.5t-133 3t-129.5 1.5q-68 0 -177 -3t-112 -3q-34 0 -34 37q0 30 26 39q8 2 22.5 7t20 6.5t16 5t15 5.5t12 5 t11.5 5t9.5 5.5t9 6.5t7.5 7q16 16 16 96q0 104 -4 517.5t-4 482.5q0 76 -16 94q-8 8 -20.5 15t-22.5 10.5t-37 11.5t-43 14q-27 9 -27 41q0 19 10 29t25 10q4 0 116.5 -3t180.5 -3q53 0 130 1.5t134.5 3t63.5 1.5q33 0 33 -39q0 -31 -29 -41q-22 -7 -47 -15.5t-37 -12.5 t-24.5 -8.5t-19 -9t-11.5 -9.5q-19 -21 -19 -105zM686 1589q0 -14 -11.5 -26.5t-27.5 -12.5q-7 0 -37 13q-47 25 -135 71.5t-113 59.5q-116 -58 -247 -131q-22 -13 -35 -13q-17 0 -27 12.5t-10 26.5q0 13 14 27q16 15 258 235q32 29 54 29q26 0 51 -25q134 -128 254 -237 q12 -12 12 -29z" glyph-name="Icircumflex" horiz-adv-x="739" unicode="Î"/><glyph d="M522 1208q0 -18 -2 -437t-2 -535q0 -84 19 -105q3 -4 7.5 -7t11.5 -6.5t13.5 -6.5t19 -7.5t23 -8t29.5 -10t35 -11.5q29 -10 29 -39q0 -37 -33 -37q-5 0 -61.5 1.5t-133 3t-129.5 1.5q-68 0 -177 -3t-112 -3q-34 0 -34 37q0 30 26 39q8 2 22.5 7t20 6.5t16 5t15 5.5t12 5 t11.5 5t9.5 5.5t9 6.5t7.5 7q16 16 16 96q0 104 -4 517.5t-4 482.5q0 76 -16 94q-8 8 -20.5 15t-22.5 10.5t-37 11.5t-43 14q-27 9 -27 41q0 19 10 29t25 10q4 0 116.5 -3t180.5 -3q53 0 130 1.5t134.5 3t63.5 1.5q33 0 33 -39q0 -31 -29 -41q-22 -7 -47 -15.5t-37 -12.5 t-24.5 -8.5t-19 -9t-11.5 -9.5q-19 -21 -19 -105zM170 1585q-52 0 -89.5 36.5t-37.5 90.5t37.5 89.5t91.5 35.5t89.5 -35.5t35.5 -89.5t-36.5 -90.5t-90.5 -36.5zM559 1585q-52 0 -89.5 36.5t-37.5 90.5t37.5 89.5t91.5 35.5t89.5 -35.5t35.5 -89.5t-36.5 -90.5t-90.5 -36.5 z" glyph-name="Idieresis" horiz-adv-x="739" unicode="Ï"/><glyph d="M348 1442q45 0 139 2t144 2q856 0 856 -684q0 -191 -64.5 -337.5t-183 -239.5t-281.5 -140t-366 -47q-42 0 -128.5 3t-115.5 3q-68 0 -177 -3t-112 -3q-34 0 -34 37q0 30 26 39q8 2 22.5 7t20 6.5t16 5t15 5.5t12 5t11.5 5t9.5 5.5t9 6.5t7.5 7q16 16 16 96q0 31 -2 198 t-2 275h-145q-29 0 -29 27v53q0 19 7.5 28t29.5 9h135q-2 180 -2 410q0 76 -16 94q-8 8 -20.5 15t-22.5 10.5t-37 11.5t-43 14q-27 9 -27 41q0 19 10 29t25 10q4 0 116.5 -3t180.5 -3zM526 1223q0 -265 -2 -410h273q37 0 37 -27v-61q0 -29 -35 -29h-275q0 -102 -1 -210.5 t-2 -179t-1 -79.5q0 -54 15 -74.5t57 -31.5q52 -10 102 -10q215 0 318.5 163t103.5 465q0 146 -26 256t-82.5 191t-152 122.5t-228.5 41.5q-47 0 -66.5 -7t-25.5 -26q-9 -24 -9 -94z" glyph-name="Eth" horiz-adv-x="1558" unicode="Ð"/><glyph d="M336 1130q8 -757 18 -909q3 -75 27 -94q32 -27 143 -51q29 -8 29 -41q0 -37 -35 -37q-2 0 -81 3t-148 3q-54 0 -106.5 -1.5t-85.5 -3t-40 -1.5q-39 0 -39 39q0 31 29 41q113 32 133 55q20 29 23 105q10 344 10 981q0 54 -23 77q-43 50 -157 72q-27 7 -27 41q0 19 12 29 t27 10q8 0 117 -2t157 -2q17 0 83.5 1t80.5 1q24 0 38 -9t32 -34q29 -40 100 -131.5t143.5 -183t203.5 -257t217 -274.5q-12 490 -19 647q-3 96 -31 113q-34 25 -141 49q-31 8 -31 43q0 19 10 29t25 10q2 0 84 -3t150 -3q54 0 105.5 1.5t83 3t38.5 1.5q33 0 33 -39 q0 -29 -29 -39q-66 -19 -94 -31.5t-39 -31.5q-16 -20 -19 -107q-8 -292 -8 -596q0 -160 5.5 -365.5t5.5 -222.5q0 -49 -52 -49q-42 0 -61 29q-122 169 -476 607t-421 527zM733 1812l139 -36q58 -15 80 -15q30 0 44.5 9.5t37.5 44.5q13 22 33 22q25 0 25 -25q0 -11 -7 -32 q-33 -106 -64.5 -145.5t-84.5 -39.5q-23 0 -105 21l-122 33q-61 16 -97 16q-32 0 -49.5 -10.5t-40.5 -52.5q-13 -19 -30 -19q-9 0 -18 6.5t-9 18.5q0 17 8 30q41 108 76.5 149.5t85.5 41.5q33 0 98 -17z" glyph-name="Ntilde" horiz-adv-x="1527" unicode="Ñ"/><glyph d="M72 705q0 182 61 331.5t163.5 245t234.5 147.5t278 52q210 0 367 -92t240 -257.5t83 -381.5q0 -217 -87 -395t-251.5 -284t-376.5 -106q-213 0 -376.5 99.5t-249.5 267t-86 373.5zM1128 666q0 123 -12.5 227t-40 192.5t-69 150t-102.5 96t-138 34.5q-317 0 -317 -604 q0 -315 94.5 -496.5t273.5 -181.5q311 0 311 582zM590 1757q-43 27 -57.5 41t-14.5 31q0 13 7 23t14 15.5t30 20.5q60 31 97 31q22 0 38 -9t41 -38q34 -40 95.5 -112.5t95.5 -112.5q22 -28 22 -41q0 -35 -38 -35q-19 0 -50 16q-53 31 -280 170z" glyph-name="Ograve" horiz-adv-x="1570" unicode="Ò"/><glyph d="M72 705q0 182 61 331.5t163.5 245t234.5 147.5t278 52q210 0 367 -92t240 -257.5t83 -381.5q0 -217 -87 -395t-251.5 -284t-376.5 -106q-213 0 -376.5 99.5t-249.5 267t-86 373.5zM1128 666q0 123 -12.5 227t-40 192.5t-69 150t-102.5 96t-138 34.5q-317 0 -317 -604 q0 -315 94.5 -496.5t273.5 -181.5q311 0 311 582zM1018 1757q-155 -89 -305 -170q-31 -16 -49 -16q-39 0 -39 35q0 19 22 41q105 105 213 225q29 29 45.5 38t40.5 9q32 0 92 -31q5 -4 15.5 -10t14 -8.5t9.5 -7.5t7.5 -9t3.5 -10t2 -14q0 -19 -14.5 -33t-57.5 -39z" glyph-name="Oacute" horiz-adv-x="1570" unicode="Ó"/><glyph d="M72 705q0 182 61 331.5t163.5 245t234.5 147.5t278 52q210 0 367 -92t240 -257.5t83 -381.5q0 -217 -87 -395t-251.5 -284t-376.5 -106q-213 0 -376.5 99.5t-249.5 267t-86 373.5zM1128 666q0 123 -12.5 227t-40 192.5t-69 150t-102.5 96t-138 34.5q-317 0 -317 -604 q0 -315 94.5 -496.5t273.5 -181.5q311 0 311 582zM1104 1589q0 -14 -11.5 -26.5t-27.5 -12.5q-7 0 -37 13q-47 25 -135 71.5t-113 59.5q-125 -63 -248 -131q-22 -13 -34 -13q-17 0 -27 12.5t-10 26.5q0 13 14 27q16 15 258 235q32 29 53 29q27 0 52 -25q134 -128 254 -237 q12 -12 12 -29z" glyph-name="Ocircumflex" horiz-adv-x="1570" unicode="Ô"/><glyph d="M72 705q0 182 61 331.5t163.5 245t234.5 147.5t278 52q210 0 367 -92t240 -257.5t83 -381.5q0 -217 -87 -395t-251.5 -284t-376.5 -106q-213 0 -376.5 99.5t-249.5 267t-86 373.5zM1128 666q0 123 -12.5 227t-40 192.5t-69 150t-102.5 96t-138 34.5q-317 0 -317 -604 q0 -315 94.5 -496.5t273.5 -181.5q311 0 311 582zM743 1812l140 -36q58 -15 80 -15q29 0 43.5 9.5t37.5 44.5q13 22 33 22q25 0 25 -25q0 -14 -6 -32q-33 -105 -64.5 -145t-85.5 -40q-22 0 -104 21l-123 33q-61 16 -96 16q-32 0 -50 -11t-41 -52q-13 -19 -30 -19 q-9 0 -18 6.5t-9 18.5q0 17 8 30q41 108 76.5 149.5t85.5 41.5q33 0 98 -17z" glyph-name="Otilde" horiz-adv-x="1570" unicode="Õ"/><glyph d="M72 705q0 182 61 331.5t163.5 245t234.5 147.5t278 52q210 0 367 -92t240 -257.5t83 -381.5q0 -217 -87 -395t-251.5 -284t-376.5 -106q-213 0 -376.5 99.5t-249.5 267t-86 373.5zM1128 666q0 123 -12.5 227t-40 192.5t-69 150t-102.5 96t-138 34.5q-317 0 -317 -604 q0 -315 94.5 -496.5t273.5 -181.5q311 0 311 582zM596 1585q-52 0 -89.5 36.5t-37.5 90.5t37.5 89.5t91.5 35.5t89.5 -35.5t35.5 -89.5t-36.5 -90.5t-90.5 -36.5zM985 1585q-52 0 -89.5 36.5t-37.5 90.5t37.5 89.5t91.5 35.5t89.5 -35.5t35.5 -89.5t-36.5 -90.5t-90.5 -36.5 z" glyph-name="Odieresis" horiz-adv-x="1570" unicode="Ö"/><glyph d="M889 633l315 -320q10 -10 10 -20q0 -11 -10 -21l-98 -100q-12 -12 -23 -12q-12 0 -22 10l-313 322l-320 -322q-8 -8 -18 -8q-12 0 -25 10l-88 86q-12 12 -12 23q0 10 10 20l321 317l-323 324q-10 10 -10 21q0 10 12 22l100 100q11 11 21 11q4 0 22 -11l320 -323l315 323 q11 11 23 11q2 0 20 -11l88 -86q10 -10 10 -18q0 -15 -12 -27z" glyph-name="multiply" horiz-adv-x="1497" unicode="×"/><glyph d="M72 705q0 182 61 331.5t163.5 245t234.5 147.5t278 52q243 0 418 -127l127 159q10 13 20 13t19 -6l49 -39q12 -9 12 -21q0 -9 -6 -18l-133 -166q184 -196 184 -526q0 -217 -87 -395t-251.5 -284t-376.5 -106q-237 0 -417 125l-115 -145q-13 -13 -19 -13q-8 0 -20 9 l-49 36q-12 9 -12 21q0 10 8 18l119 150q-100 100 -153.5 239.5t-53.5 299.5zM766 1366q-317 0 -317 -604q0 -207 34 -338l574 717q-92 225 -291 225zM1128 666q0 188 -30 338l-568 -711q99 -209 287 -209q311 0 311 582z" glyph-name="Oslash" horiz-adv-x="1570" unicode="Ø"/><glyph d="M1247 836q0 259 -9 358.5t-30 120.5q-11 11 -28 19.5t-34.5 14t-66.5 19.5q-28 9 -28 41q0 39 32 39q7 0 38.5 -1.5t82.5 -3t105 -1.5q69 0 142 3t75 3q35 0 35 -37q0 -32 -27 -41q-16 -6 -42.5 -14t-35.5 -11.5t-21 -10t-20 -15.5q-10 -10 -14.5 -35t-9.5 -94 q-9 -129 -9 -545q-3 -355 -131 -508q-72 -85 -178.5 -129.5t-269.5 -44.5q-187 0 -323.5 52.5t-207.5 154.5q-100 140 -100 475q-2 211 -2 561q0 93 -16 111q-8 8 -20 14.5t-22.5 10t-34.5 11t-42 13.5q-27 9 -27 45q0 37 35 37q3 0 112 -3t177 -3q52 0 130.5 1.5t137 3 t64.5 1.5q32 0 32 -37q0 -34 -28 -43q-102 -31 -125 -57q-13 -16 -19 -37q-14 -55 -14 -400q0 -136 1.5 -221t11 -184t26.5 -152q32 -98 111 -148t192 -50q135 0 212 37t118 123q65 133 65 557zM543 1757q-43 27 -57.5 41t-14.5 31q0 13 7 23t14 15.5t30 20.5q60 31 96 31 q22 0 38.5 -9t41.5 -38q34 -40 95.5 -112.5t95.5 -112.5q22 -28 22 -41q0 -35 -39 -35q-18 0 -49 16q-53 31 -280 170z" glyph-name="Ugrave" horiz-adv-x="1576" unicode="Ù"/><glyph d="M1247 836q0 259 -9 358.5t-30 120.5q-11 11 -28 19.5t-34.5 14t-66.5 19.5q-28 9 -28 41q0 39 32 39q7 0 38.5 -1.5t82.5 -3t105 -1.5q69 0 142 3t75 3q35 0 35 -37q0 -32 -27 -41q-16 -6 -42.5 -14t-35.5 -11.5t-21 -10t-20 -15.5q-10 -10 -14.5 -35t-9.5 -94 q-9 -129 -9 -545q-3 -355 -131 -508q-72 -85 -178.5 -129.5t-269.5 -44.5q-187 0 -323.5 52.5t-207.5 154.5q-100 140 -100 475q-2 211 -2 561q0 93 -16 111q-8 8 -20 14.5t-22.5 10t-34.5 11t-42 13.5q-27 9 -27 45q0 37 35 37q3 0 112 -3t177 -3q52 0 130.5 1.5t137 3 t64.5 1.5q32 0 32 -37q0 -34 -28 -43q-102 -31 -125 -57q-13 -16 -19 -37q-14 -55 -14 -400q0 -136 1.5 -221t11 -184t26.5 -152q32 -98 111 -148t192 -50q135 0 212 37t118 123q65 133 65 557zM1024 1757q-155 -89 -305 -170q-31 -16 -49 -16q-39 0 -39 35q0 19 22 41 q105 105 213 225q29 29 45.5 38t40.5 9q32 0 92 -31q5 -4 15.5 -10t14 -8.5t9.5 -7.5t7.5 -9t3.5 -10t2 -14q0 -19 -14.5 -33t-57.5 -39z" glyph-name="Uacute" horiz-adv-x="1576" unicode="Ú"/><glyph d="M1247 836q0 259 -9 358.5t-30 120.5q-11 11 -28 19.5t-34.5 14t-66.5 19.5q-28 9 -28 41q0 39 32 39q7 0 38.5 -1.5t82.5 -3t105 -1.5q69 0 142 3t75 3q35 0 35 -37q0 -32 -27 -41q-16 -6 -42.5 -14t-35.5 -11.5t-21 -10t-20 -15.5q-10 -10 -14.5 -35t-9.5 -94 q-9 -129 -9 -545q-3 -355 -131 -508q-72 -85 -178.5 -129.5t-269.5 -44.5q-187 0 -323.5 52.5t-207.5 154.5q-100 140 -100 475q-2 211 -2 561q0 93 -16 111q-8 8 -20 14.5t-22.5 10t-34.5 11t-42 13.5q-27 9 -27 45q0 37 35 37q3 0 112 -3t177 -3q52 0 130.5 1.5t137 3 t64.5 1.5q32 0 32 -37q0 -34 -28 -43q-102 -31 -125 -57q-13 -16 -19 -37q-14 -55 -14 -400q0 -136 1.5 -221t11 -184t26.5 -152q32 -98 111 -148t192 -50q135 0 212 37t118 123q65 133 65 557zM1112 1589q0 -14 -11.5 -26.5t-27.5 -12.5q-7 0 -37 13q-47 25 -135 71.5 t-113 59.5q-116 -58 -247 -131q-22 -13 -35 -13q-17 0 -27 12.5t-10 26.5q0 13 14 27q16 15 258 235q32 29 54 29q26 0 51 -25q134 -128 254 -237q12 -12 12 -29z" glyph-name="Ucircumflex" horiz-adv-x="1576" unicode="Û"/><glyph d="M1247 836q0 259 -9 358.5t-30 120.5q-11 11 -28 19.5t-34.5 14t-66.5 19.5q-28 9 -28 41q0 39 32 39q7 0 38.5 -1.5t82.5 -3t105 -1.5q69 0 142 3t75 3q35 0 35 -37q0 -32 -27 -41q-16 -6 -42.5 -14t-35.5 -11.5t-21 -10t-20 -15.5q-10 -10 -14.5 -35t-9.5 -94 q-9 -129 -9 -545q-3 -355 -131 -508q-72 -85 -178.5 -129.5t-269.5 -44.5q-187 0 -323.5 52.5t-207.5 154.5q-100 140 -100 475q-2 211 -2 561q0 93 -16 111q-8 8 -20 14.5t-22.5 10t-34.5 11t-42 13.5q-27 9 -27 45q0 37 35 37q3 0 112 -3t177 -3q52 0 130.5 1.5t137 3 t64.5 1.5q32 0 32 -37q0 -34 -28 -43q-102 -31 -125 -57q-13 -16 -19 -37q-14 -55 -14 -400q0 -136 1.5 -221t11 -184t26.5 -152q32 -98 111 -148t192 -50q135 0 212 37t118 123q65 133 65 557zM612 1585q-52 0 -89.5 36.5t-37.5 90.5t37.5 89.5t91.5 35.5t89.5 -35.5 t35.5 -89.5t-36.5 -90.5t-90.5 -36.5zM1001 1585q-52 0 -89.5 36.5t-37.5 90.5t37.5 89.5t92.5 35.5q54 0 89 -35.5t35 -89.5t-36.5 -90.5t-90.5 -36.5z" glyph-name="Udieresis" horiz-adv-x="1576" unicode="Ü"/><glyph d="M858 805l139 229q127 195 127 264q0 32 -20 48q-30 16 -84 22q-39 3 -39 43q0 15 9 26t26 11q4 0 102.5 -3t149.5 -3q43 0 117.5 3t82.5 3q35 0 35 -39q0 -35 -33 -41q-49 -11 -88 -45t-87 -98t-128 -183l-254 -374q0 -110 -1 -253t-1 -179q0 -84 19 -105q3 -4 7.5 -7 t11.5 -6.5t13.5 -6.5t19 -7.5t23 -8t29.5 -10t35 -11.5q29 -10 29 -39q0 -37 -33 -37q-5 0 -61.5 1.5t-133 3t-129.5 1.5q-69 0 -177 -3t-111 -3q-35 0 -35 37q0 30 26 39q8 2 22.5 7t20 6.5t16 5t15 5.5t12 5t11.5 5t9.5 5.5t9 6.5t7.5 7q17 17 17 96q0 68 -4 424l-258 393 q-129 198 -191 273q-33 41 -92 55q-11 2 -19 12.5t-8 26.5q0 41 35 41q10 0 158 -3t190 -3q44 0 167 3t130 3q19 0 26 -9t7 -28q0 -40 -41 -43q-78 -11 -92 -20q-27 -15 -27 -43q0 -31 26.5 -80t117.5 -191zM1065 1757q-155 -89 -305 -170q-31 -16 -49 -16q-39 0 -39 35 q0 19 22 41q105 105 213 225q29 29 45.5 38t40.5 9q32 0 92 -31q5 -4 15.5 -10t14 -8.5t9.5 -7.5t7.5 -9t3.5 -10t2 -14q0 -19 -14.5 -33t-57.5 -39z" glyph-name="Yacute" horiz-adv-x="1503" unicode="Ý"/><glyph d="M524 1210v-53q53 4 181 4q120 0 216 -21t171 -64t116 -117t41 -173q0 -101 -33 -180.5t-88 -130t-133.5 -83.5t-162 -47.5t-181.5 -16.5q-98 0 -135 4v-96q0 -71 8 -88q11 -25 64 -43q21 -7 110 -31q29 -10 29 -39q0 -37 -33 -37q-6 0 -65.5 1.5t-138.5 3t-132 1.5 q-68 0 -182.5 -3t-116.5 -3q-34 0 -34 35q0 32 26 41q16 6 43 14t37 11.5t22.5 10.5t20.5 15q11 11 13.5 29.5t2.5 60.5q0 103 -4 522t-4 486q0 76 -16 94q-8 8 -20.5 15t-22.5 10.5t-37 11.5t-43 14q-27 9 -27 41q0 19 10 29t25 10q4 0 116.5 -3t180.5 -3q53 0 130 1.5 t134.5 3t63.5 1.5q33 0 33 -39q0 -31 -29 -41q-23 -8 -47.5 -15.5t-38 -11t-26 -8t-18.5 -9t-9 -11.5q-17 -33 -17 -103zM522 1057q-1 -71 -2.5 -201.5t-2.5 -235t-1 -192.5q23 -4 100 -4q62 0 112.5 16.5t93 54t66 107t23.5 166.5q0 84 -26 144t-71.5 90.5t-93 43.5 t-102.5 13q-57 0 -96 -2z" glyph-name="Thorn" horiz-adv-x="1312" unicode="Þ"/><glyph d="M838 78q49 0 79.5 36.5t30.5 100.5q0 69 -40.5 131t-129.5 137q-122 105 -161 161t-39 120q0 82 124 203q70 67 104 152.5t34 164.5q0 213 -164 213q-69 0 -117 -55.5t-61 -179.5q-21 -241 -21 -967q0 -87 1 -143t2 -78t1 -27q0 -24 -1 -31.5t-8 -12.5t-23 -5 q-11 0 -100 2t-105 2q-32 0 -91.5 -2t-66.5 -2q-35 0 -35 35q0 30 29 43q56 20 88 45q20 20 20 92q0 293 -10 655h-86q-51 0 -51 45q0 19 12.5 32.5t39.5 27.5t30 16q20 17 31 33q19 27 28 94q1 8 5.5 35.5t6 36t5.5 31.5t7.5 33.5t9 30.5t11.5 33.5t14.5 31t18.5 34.5 q42 74 121.5 128.5t161.5 79t155 24.5q191 0 297.5 -78t106.5 -219q0 -69 -26 -133t-95 -137q-67 -72 -91 -109.5t-24 -69.5q0 -8 2.5 -15t10.5 -18t17.5 -21t28 -28.5t36.5 -36t49.5 -48.5t60.5 -60q150 -150 150 -309q0 -89 -44 -169.5t-132.5 -134t-202.5 -53.5 q-143 0 -203 27q-37 15 -45 57q-10 68 -10 150q0 51 47 51q17 0 28 -10t25 -33q9 -14 21.5 -34.5t17.5 -29t13 -19.5t13.5 -17t12.5 -11q33 -28 76 -28z" glyph-name="germandbls" horiz-adv-x="1284" unicode="ß"/><glyph d="M629 92q-135 -119 -281 -119q-140 0 -218.5 88.5t-78.5 212.5q0 224 264 277q135 26 299 37q0 185 -7 243t-36 87q-45 45 -122 45q-46 0 -87 -23q-33 -17 -98 -125q-24 -40 -38 -52.5t-38 -12.5q-47 0 -47 53q0 23 7 84.5t14 91.5q4 22 13.5 31.5t31.5 21.5 q44 22 135 34.5t168 12.5q59 0 112.5 -7.5t109 -28t95.5 -53t65.5 -86t25.5 -122.5q0 -57 -4.5 -212.5t-4.5 -198.5q0 -127 18.5 -183t57.5 -61q23 -2 49 -2q22 0 33 -14q4 -12 4 -25q0 -20 -20 -31q-53 -33 -118 -57.5t-112 -24.5q-58 0 -111.5 28t-80.5 91zM616 489 q-94 -10 -167 -38q-45 -18 -71 -57.5t-26 -94.5q0 -82 41 -126t92 -44q81 0 138 29q-7 69 -7 331zM332 1434q-43 43 -43 75q0 40 76 58q52 10 73 10q25 0 41.5 -14.5t34.5 -49.5q12 -23 54.5 -121t68.5 -145q14 -33 14 -41q0 -30 -35 -30q-23 0 -49 26q-47 47 -126 124.5 t-109 107.5z" glyph-name="agrave" horiz-adv-x="1073" unicode="à"/><glyph d="M629 92q-135 -119 -281 -119q-140 0 -218.5 88.5t-78.5 212.5q0 224 264 277q135 26 299 37q0 185 -7 243t-36 87q-45 45 -122 45q-46 0 -87 -23q-33 -17 -98 -125q-24 -40 -38 -52.5t-38 -12.5q-47 0 -47 53q0 23 7 84.5t14 91.5q4 22 13.5 31.5t31.5 21.5 q44 22 135 34.5t168 12.5q59 0 112.5 -7.5t109 -28t95.5 -53t65.5 -86t25.5 -122.5q0 -57 -4.5 -212.5t-4.5 -198.5q0 -127 18.5 -183t57.5 -61q23 -2 49 -2q22 0 33 -14q4 -12 4 -25q0 -20 -20 -31q-53 -33 -118 -57.5t-112 -24.5q-58 0 -111.5 28t-80.5 91zM616 489 q-94 -10 -167 -38q-45 -18 -71 -57.5t-26 -94.5q0 -82 41 -126t92 -44q81 0 138 29q-7 69 -7 331zM764 1434q-127 -120 -250 -232q-28 -26 -51 -26q-33 0 -33 30q0 8 14 41q25 47 73 144t61 122q30 64 77 64q24 0 76 -10q76 -18 76 -58q0 -32 -43 -75z" glyph-name="aacute" horiz-adv-x="1073" unicode="á"/><glyph d="M629 92q-135 -119 -281 -119q-140 0 -218.5 88.5t-78.5 212.5q0 224 264 277q135 26 299 37q0 185 -7 243t-36 87q-45 45 -122 45q-46 0 -87 -23q-33 -17 -98 -125q-24 -40 -38 -52.5t-38 -12.5q-47 0 -47 53q0 23 7 84.5t14 91.5q4 22 13.5 31.5t31.5 21.5 q44 22 135 34.5t168 12.5q59 0 112.5 -7.5t109 -28t95.5 -53t65.5 -86t25.5 -122.5q0 -57 -4.5 -212.5t-4.5 -198.5q0 -127 18.5 -183t57.5 -61q23 -2 49 -2q22 0 33 -14q4 -12 4 -25q0 -20 -20 -31q-53 -33 -118 -57.5t-112 -24.5q-58 0 -111.5 28t-80.5 91zM616 489 q-94 -10 -167 -38q-45 -18 -71 -57.5t-26 -94.5q0 -82 41 -126t92 -44q81 0 138 29q-7 69 -7 331zM780 1200q0 -11 -10.5 -20t-21.5 -9q-13 0 -37 17l-195 151l-197 -153q-15 -15 -30 -15q-12 0 -22.5 9t-10.5 20q0 10 10 27q133 201 211 325q16 29 43 29q23 0 41 -27 q36 -58 105.5 -166t105.5 -165q8 -13 8 -23z" glyph-name="acircumflex" horiz-adv-x="1073" unicode="â"/><glyph d="M629 92q-135 -119 -281 -119q-140 0 -218.5 88.5t-78.5 212.5q0 224 264 277q135 26 299 37q0 185 -7 243t-36 87q-45 45 -122 45q-46 0 -87 -23q-33 -17 -98 -125q-24 -40 -38 -52.5t-38 -12.5q-47 0 -47 53q0 23 7 84.5t14 91.5q4 22 13.5 31.5t31.5 21.5 q44 22 135 34.5t168 12.5q59 0 112.5 -7.5t109 -28t95.5 -53t65.5 -86t25.5 -122.5q0 -57 -4.5 -212.5t-4.5 -198.5q0 -127 18.5 -183t57.5 -61q23 -2 49 -2q22 0 33 -14q4 -12 4 -25q0 -20 -20 -31q-53 -33 -118 -57.5t-112 -24.5q-58 0 -111.5 28t-80.5 91zM616 489 q-94 -10 -167 -38q-45 -18 -71 -57.5t-26 -94.5q0 -82 41 -126t92 -44q81 0 138 29q-7 69 -7 331zM504 1440l98 -31q62 -16 80 -16q29 0 45.5 12.5t40.5 50.5q12 21 33 21q24 0 24 -27q0 -13 -6 -31q-33 -106 -64.5 -149t-80.5 -43q-38 0 -113 24l-82 25q-63 20 -96 20 q-31 0 -49.5 -12t-42.5 -51q-15 -21 -31 -21q-10 0 -19.5 6.5t-9.5 18.5q0 16 9 31q44 107 82 149.5t88 42.5q41 0 94 -20z" glyph-name="atilde" horiz-adv-x="1073" unicode="ã"/><glyph d="M629 92q-135 -119 -281 -119q-140 0 -218.5 88.5t-78.5 212.5q0 224 264 277q135 26 299 37q0 185 -7 243t-36 87q-45 45 -122 45q-46 0 -87 -23q-33 -17 -98 -125q-24 -40 -38 -52.5t-38 -12.5q-47 0 -47 53q0 23 7 84.5t14 91.5q4 22 13.5 31.5t31.5 21.5 q44 22 135 34.5t168 12.5q59 0 112.5 -7.5t109 -28t95.5 -53t65.5 -86t25.5 -122.5q0 -57 -4.5 -212.5t-4.5 -198.5q0 -127 18.5 -183t57.5 -61q23 -2 49 -2q22 0 33 -14q4 -12 4 -25q0 -20 -20 -31q-53 -33 -118 -57.5t-112 -24.5q-58 0 -111.5 28t-80.5 91zM616 489 q-94 -10 -167 -38q-45 -18 -71 -57.5t-26 -94.5q0 -82 41 -126t92 -44q81 0 138 29q-7 69 -7 331zM330 1241q-52 0 -89.5 36.5t-37.5 90.5t37.5 89.5t91.5 35.5t89.5 -35.5t35.5 -89.5t-36.5 -90.5t-90.5 -36.5zM694 1241q-52 0 -89.5 36.5t-37.5 90.5t37.5 89.5t91.5 35.5 t89.5 -35.5t35.5 -89.5t-36.5 -90.5t-90.5 -36.5z" glyph-name="adieresis" horiz-adv-x="1073" unicode="ä"/><glyph d="M629 92q-135 -119 -281 -119q-140 0 -218.5 88.5t-78.5 212.5q0 224 264 277q135 26 299 37q0 185 -7 243t-36 87q-45 45 -122 45q-46 0 -87 -23q-33 -17 -98 -125q-24 -40 -38 -52.5t-38 -12.5q-47 0 -47 53q0 23 7 84.5t14 91.5q4 22 13.5 31.5t31.5 21.5 q44 22 135 34.5t168 12.5q59 0 112.5 -7.5t109 -28t95.5 -53t65.5 -86t25.5 -122.5q0 -57 -4.5 -212.5t-4.5 -198.5q0 -127 18.5 -183t57.5 -61q23 -2 49 -2q22 0 33 -14q4 -12 4 -25q0 -20 -20 -31q-53 -33 -118 -57.5t-112 -24.5q-58 0 -111.5 28t-80.5 91zM616 489 q-94 -10 -167 -38q-45 -18 -71 -57.5t-26 -94.5q0 -82 41 -126t92 -44q81 0 138 29q-7 69 -7 331zM526 1556q91 0 146 -53t55 -139t-59 -142.5t-146 -56.5t-143.5 53t-56.5 138t60 142.5t144 57.5zM430 1360q0 -51 26 -82t68 -31q39 0 66.5 30t27.5 83q0 56 -27.5 86.5 t-66.5 30.5q-38 0 -66 -31.5t-28 -85.5z" glyph-name="aring" horiz-adv-x="1073" unicode="å"/><glyph d="M1507 594h-592q-2 -16 -2 -57q4 -173 99 -274t241 -101q112 0 236 47q37 14 45 14q16 0 26.5 -15t10.5 -30q0 -14 -21 -35q-178 -178 -444 -178q-251 0 -373 168q-87 -76 -170.5 -118t-193.5 -42q-151 0 -234.5 88.5t-83.5 212.5q0 224 264 277q104 21 299 37 q0 185 -7 243t-36 87q-45 45 -122 45q-43 0 -87 -23q-33 -17 -98 -125q-25 -42 -38.5 -53.5t-39.5 -11.5q-45 0 -45 53q0 5 15 133q3 32 5 44t12.5 26.5t33.5 25.5q44 22 135 34.5t168 12.5q221 0 324 -121q127 121 321 121q88 0 159 -24.5t117.5 -65t77.5 -96.5 t44.5 -115.5t13.5 -124.5q0 -25 -15.5 -42t-44.5 -17zM616 489q-91 -11 -161 -38q-46 -18 -74.5 -58t-28.5 -94q0 -84 42 -125t100 -41q108 0 186 70q-55 113 -64 286zM926 688l336 25q0 142 -37 201t-113 59q-153 0 -186 -285z" glyph-name="ae" horiz-adv-x="1611" unicode="æ"/><glyph d="M625 -29l-33 -80q182 -19 182 -170q0 -153 -213 -231q-75 -27 -147 -27q-23 0 -36 10.5t-13 28.5q0 36 59 54q75 24 113 55.5t38 77.5q0 38 -20.5 62t-71.5 34q-20 3 -20 16q0 11 6 23l59 143q-207 12 -332.5 153t-125.5 355q0 134 50 248.5t134 191.5t194.5 120.5 t229.5 43.5q136 0 194 -24q27 -12 40.5 -28t17.5 -54q12 -110 12 -164q0 -32 -14.5 -42.5t-38.5 -10.5q-20 0 -33 10t-37 41q-71 105 -117 135q-30 21 -86 21q-32 0 -63.5 -10.5t-65 -38t-58.5 -69t-41.5 -110.5t-16.5 -157q0 -98 24 -174.5t66.5 -122.5t95 -69.5 t113.5 -23.5q106 0 196 33q40 15 49 15q21 0 31 -14t10 -29q0 -21 -22 -43q-54 -61 -134.5 -112t-174.5 -67z" glyph-name="ccedilla" horiz-adv-x="995" unicode="ç"/><glyph d="M379 688l336 25q0 142 -37 201t-113 59q-153 0 -186 -285zM367 537q4 -173 99 -274t241 -101q111 0 235 47q37 14 45 14q16 0 26.5 -15t10.5 -30t-20 -35q-178 -178 -445 -178q-212 0 -350.5 141t-138.5 386q0 259 145.5 423t392.5 164q88 0 159 -24.5t117.5 -65 t77.5 -96.5t44.5 -115.5t13.5 -124.5q0 -25 -15 -42t-44 -17h-592q-2 -16 -2 -57zM352 1434q-43 43 -43 75q0 40 76 58q52 10 74 10q25 0 41.5 -14.5t34.5 -49.5q12 -24 54.5 -122t67.5 -144q15 -35 15 -41q0 -30 -35 -30q-23 0 -49 26q-47 47 -126.5 124.5t-109.5 107.5z" glyph-name="egrave" horiz-adv-x="1064" unicode="è"/><glyph d="M379 688l336 25q0 142 -37 201t-113 59q-153 0 -186 -285zM367 537q4 -173 99 -274t241 -101q111 0 235 47q37 14 45 14q16 0 26.5 -15t10.5 -30t-20 -35q-178 -178 -445 -178q-212 0 -350.5 141t-138.5 386q0 259 145.5 423t392.5 164q88 0 159 -24.5t117.5 -65 t77.5 -96.5t44.5 -115.5t13.5 -124.5q0 -25 -15 -42t-44 -17h-592q-2 -16 -2 -57zM803 1434q-127 -120 -250 -232q-28 -26 -51 -26q-33 0 -33 30q0 8 14 41q25 47 72.5 144t60.5 122q30 64 78 64q24 0 76 -10q76 -18 76 -58q0 -32 -43 -75z" glyph-name="eacute" horiz-adv-x="1064" unicode="é"/><glyph d="M379 688l336 25q0 142 -37 201t-113 59q-153 0 -186 -285zM367 537q4 -173 99 -274t241 -101q111 0 235 47q37 14 45 14q16 0 26.5 -15t10.5 -30t-20 -35q-178 -178 -445 -178q-212 0 -350.5 141t-138.5 386q0 259 145.5 423t392.5 164q88 0 159 -24.5t117.5 -65 t77.5 -96.5t44.5 -115.5t13.5 -124.5q0 -25 -15 -42t-44 -17h-592q-2 -16 -2 -57zM840 1200q0 -11 -11 -20t-22 -9q-13 0 -37 17l-195 151l-196 -153q-15 -15 -31 -15q-12 0 -22.5 9t-10.5 20q0 9 11 27q133 201 211 325q16 29 43 29q23 0 41 -27q36 -58 105 -166t105 -165 q9 -15 9 -23z" glyph-name="ecircumflex" horiz-adv-x="1064" unicode="ê"/><glyph d="M379 688l336 25q0 142 -37 201t-113 59q-153 0 -186 -285zM367 537q4 -173 99 -274t241 -101q111 0 235 47q37 14 45 14q16 0 26.5 -15t10.5 -30t-20 -35q-178 -178 -445 -178q-212 0 -350.5 141t-138.5 386q0 259 145.5 423t392.5 164q88 0 159 -24.5t117.5 -65 t77.5 -96.5t44.5 -115.5t13.5 -124.5q0 -25 -15 -42t-44 -17h-592q-2 -16 -2 -57zM393 1241q-52 0 -89.5 36.5t-37.5 90.5t37.5 89.5t91.5 35.5t89.5 -35.5t35.5 -89.5t-36.5 -90.5t-90.5 -36.5zM758 1241q-52 0 -89.5 36.5t-37.5 90.5t37.5 89.5t91.5 35.5t89.5 -35.5 t35.5 -89.5t-36.5 -90.5t-90.5 -36.5z" glyph-name="edieresis" horiz-adv-x="1064" unicode="ë"/><glyph d="M477 223q0 -73 25 -98q15 -15 90 -49q33 -12 33 -41q0 -22 -9 -29.5t-28 -7.5q-4 0 -39 1.5t-91.5 3t-111.5 1.5q-57 0 -157 -3t-105 -3q-37 0 -37 35q0 34 25 43q73 26 92 45q20 20 20 100q0 317 -4 418q-3 119 -24 154q-10 16 -24.5 26.5t-61.5 36.5q-23 13 -23 33 q0 23 25 39q43 29 179.5 87t176.5 58q57 0 57 -61q0 -252 -8 -789zM92 1434q-43 43 -43 75q0 40 76 58q52 10 74 10q25 0 40.5 -14.5t34.5 -49.5q12 -23 54.5 -121t68.5 -145q15 -35 15 -41q0 -30 -35 -30q-23 0 -49 26q-47 47 -126.5 124.5t-109.5 107.5z" glyph-name="igrave" horiz-adv-x="645" unicode="ì"/><glyph d="M477 223q0 -73 25 -98q15 -15 90 -49q33 -12 33 -41q0 -22 -9 -29.5t-28 -7.5q-4 0 -39 1.5t-91.5 3t-111.5 1.5q-57 0 -157 -3t-105 -3q-37 0 -37 35q0 34 25 43q73 26 92 45q20 20 20 100q0 317 -4 418q-3 119 -24 154q-10 16 -24.5 26.5t-61.5 36.5q-23 13 -23 33 q0 23 25 39q43 29 179.5 87t176.5 58q57 0 57 -61q0 -252 -8 -789zM543 1434q-127 -120 -250 -232q-28 -26 -51 -26q-33 0 -33 30q0 8 14 41q25 47 72.5 144t60.5 122q30 64 78 64q24 0 76 -10q76 -18 76 -58q0 -32 -43 -75z" glyph-name="iacute" horiz-adv-x="645" unicode="í"/><glyph d="M477 223q0 -73 25 -98q15 -15 90 -49q33 -12 33 -41q0 -22 -9 -29.5t-28 -7.5q-4 0 -39 1.5t-91.5 3t-111.5 1.5q-57 0 -157 -3t-105 -3q-37 0 -37 35q0 34 25 43q73 26 92 45q20 20 20 100q0 317 -4 418q-3 119 -24 154q-10 16 -24.5 26.5t-61.5 36.5q-23 13 -23 33 q0 23 25 39q43 29 179.5 87t176.5 58q57 0 57 -61q0 -252 -8 -789zM565 1200q0 -11 -11 -20t-22 -9q-12 0 -36 17l-195 151l-197 -153q-15 -15 -30 -15q-12 0 -22.5 9t-10.5 20q0 10 10 27q133 201 211 325q16 29 43 29q23 0 41 -27q36 -58 105.5 -166t105.5 -165 q8 -13 8 -23z" glyph-name="icircumflex" horiz-adv-x="645" unicode="î"/><glyph d="M477 223q0 -73 25 -98q15 -15 90 -49q33 -12 33 -41q0 -22 -9 -29.5t-28 -7.5q-4 0 -39 1.5t-91.5 3t-111.5 1.5q-57 0 -157 -3t-105 -3q-37 0 -37 35q0 34 25 43q73 26 92 45q20 20 20 100q0 317 -4 418q-3 119 -24 154q-10 16 -24.5 26.5t-61.5 36.5q-23 13 -23 33 q0 23 25 39q43 29 179.5 87t176.5 58q57 0 57 -61q0 -252 -8 -789zM135 1241q-52 0 -89.5 36.5t-37.5 90.5t37.5 89.5t91.5 35.5t89.5 -35.5t35.5 -89.5t-36.5 -90.5t-90.5 -36.5zM500 1241q-52 0 -89.5 36.5t-37.5 90.5t37.5 89.5t91.5 35.5t89.5 -35.5t35.5 -89.5 t-36.5 -90.5t-90.5 -36.5z" glyph-name="idieresis" horiz-adv-x="645" unicode="ï"/><glyph d="M803 987q-17 54 -53 128t-74 124l-203 -113q-13 -8 -24 -8q-12 0 -21 15l-22 38q-7 14 -7 21q0 12 19 22l188 107q-46 46 -110 88q-55 34 -107 55q-35 15 -35 35q0 49 39 49q45 0 101 -20q165 -63 251 -129l160 88q10 6 23 6q14 0 24 -16l21 -33q6 -12 6 -21 q0 -15 -18 -24l-134 -76q171 -175 254.5 -365t83.5 -426q0 -160 -68.5 -289t-195 -203.5t-289.5 -74.5q-159 0 -284 71.5t-191.5 193.5t-66.5 272q0 131 45 236.5t121.5 171t171.5 100t200 34.5q131 0 195 -57zM846 479q0 227 -55 346t-179 119q-225 0 -225 -395 q0 -103 12.5 -187t39.5 -151t74 -104t110 -37q65 0 110.5 32t69 91t33.5 128t10 158z" glyph-name="eth" horiz-adv-x="1234" unicode="ð"/><glyph d="M485 842q-8 -272 -8 -619q0 -73 25 -98q15 -15 90 -49q33 -12 33 -41q0 -22 -9 -29.5t-28 -7.5q-4 0 -39 1.5t-91.5 3t-111.5 1.5q-57 0 -157 -3t-105 -3q-37 0 -37 35q0 34 25 43q73 26 92 45q20 20 20 100q0 317 -4 418q-3 127 -24 154q-10 16 -24.5 26.5t-61.5 36.5 q-23 13 -23 33q0 23 25 39q46 30 180 87.5t174 57.5q30 0 43 -35q12 -67 14 -127q231 164 359 164q130 0 202 -96q40 -55 55 -172.5t15 -331.5q0 -19 -2 -119.5t-2 -132.5q0 -73 25 -98q15 -15 90 -49q32 -12 32 -41q0 -22 -8.5 -29.5t-27.5 -7.5q-4 0 -37 1.5t-87.5 3 t-109.5 1.5q-56 0 -160 -3t-110 -3q-37 0 -37 35q0 34 25 43q77 30 92 45q20 20 20 100q0 317 -12 440.5t-39 165.5q-38 50 -111 50q-88 0 -170 -35zM608 1440l99 -31q62 -16 79 -16q29 0 45.5 12.5t40.5 50.5q12 21 33 21q25 0 25 -27q0 -13 -6 -31q-33 -106 -65 -149 t-81 -43q-37 0 -112 24l-82 25q-62 20 -97 20q-31 0 -49.5 -12t-42.5 -51q-15 -21 -30 -21q-10 0 -19.5 6.5t-9.5 18.5q0 18 8 31q44 107 82 149.5t88 42.5q41 0 94 -20z" glyph-name="ntilde" horiz-adv-x="1267" unicode="ñ"/><glyph d="M70 502q0 175 77.5 308.5t203.5 201t278 67.5q241 0 388.5 -147t147.5 -393q0 -164 -68.5 -294.5t-195 -205t-289.5 -74.5q-244 0 -393 148.5t-149 388.5zM846 479q0 112 -13 200t-40.5 155.5t-73.5 104t-109 36.5t-108 -35.5t-69 -98.5t-35 -134.5t-11 -157.5 q0 -103 12.5 -187t39.5 -151t74 -104t110 -37q65 0 110.5 32t69 91t33.5 128t10 158zM397 1434q-43 43 -43 75q0 40 76 58q52 10 74 10q25 0 41.5 -14.5t34.5 -49.5q12 -24 54.5 -122t67.5 -144q15 -35 15 -41q0 -30 -35 -30q-23 0 -49 26q-47 47 -126.5 124.5t-109.5 107.5 z" glyph-name="ograve" horiz-adv-x="1234" unicode="ò"/><glyph d="M70 502q0 175 77.5 308.5t203.5 201t278 67.5q241 0 388.5 -147t147.5 -393q0 -164 -68.5 -294.5t-195 -205t-289.5 -74.5q-244 0 -393 148.5t-149 388.5zM846 479q0 112 -13 200t-40.5 155.5t-73.5 104t-109 36.5t-108 -35.5t-69 -98.5t-35 -134.5t-11 -157.5 q0 -103 12.5 -187t39.5 -151t74 -104t110 -37q65 0 110.5 32t69 91t33.5 128t10 158zM844 1434q-127 -120 -250 -232q-28 -26 -51 -26q-33 0 -33 30q0 8 14 41q25 47 72.5 144t60.5 122q30 64 78 64q24 0 76 -10q76 -18 76 -58q0 -32 -43 -75z" glyph-name="oacute" horiz-adv-x="1234" unicode="ó"/><glyph d="M70 502q0 175 77.5 308.5t203.5 201t278 67.5q241 0 388.5 -147t147.5 -393q0 -164 -68.5 -294.5t-195 -205t-289.5 -74.5q-244 0 -393 148.5t-149 388.5zM846 479q0 112 -13 200t-40.5 155.5t-73.5 104t-109 36.5t-108 -35.5t-69 -98.5t-35 -134.5t-11 -157.5 q0 -103 12.5 -187t39.5 -151t74 -104t110 -37q65 0 110.5 32t69 91t33.5 128t10 158zM879 1200q0 -11 -11 -20t-22 -9q-13 0 -37 17l-195 151l-196 -153q-15 -15 -31 -15q-12 0 -22.5 9t-10.5 20q0 9 11 27q111 169 210 325q16 29 43 29q23 0 41 -27q36 -58 105.5 -166 t105.5 -165q9 -15 9 -23z" glyph-name="ocircumflex" horiz-adv-x="1234" unicode="ô"/><glyph d="M70 502q0 175 77.5 308.5t203.5 201t278 67.5q241 0 388.5 -147t147.5 -393q0 -164 -68.5 -294.5t-195 -205t-289.5 -74.5q-244 0 -393 148.5t-149 388.5zM846 479q0 112 -13 200t-40.5 155.5t-73.5 104t-109 36.5t-108 -35.5t-69 -98.5t-35 -134.5t-11 -157.5 q0 -103 12.5 -187t39.5 -151t74 -104t110 -37q65 0 110.5 32t69 91t33.5 128t10 158zM592 1440l98 -31q62 -16 80 -16q29 0 45.5 12.5t40.5 50.5q12 21 33 21q24 0 24 -27q0 -13 -6 -31q-33 -106 -64.5 -149t-80.5 -43q-38 0 -113 24l-82 25q-62 20 -96 20q-31 0 -49.5 -12 t-42.5 -51q-15 -21 -31 -21q-10 0 -19.5 6.5t-9.5 18.5q0 16 9 31q44 107 82 149.5t88 42.5q41 0 94 -20z" glyph-name="otilde" horiz-adv-x="1234" unicode="õ"/><glyph d="M70 502q0 175 77.5 308.5t203.5 201t278 67.5q241 0 388.5 -147t147.5 -393q0 -164 -68.5 -294.5t-195 -205t-289.5 -74.5q-244 0 -393 148.5t-149 388.5zM846 479q0 112 -13 200t-40.5 155.5t-73.5 104t-109 36.5t-108 -35.5t-69 -98.5t-35 -134.5t-11 -157.5 q0 -103 12.5 -187t39.5 -151t74 -104t110 -37q65 0 110.5 32t69 91t33.5 128t10 158zM434 1241q-52 0 -89.5 36.5t-37.5 90.5t37.5 89.5t91.5 35.5t89.5 -35.5t35.5 -89.5t-36.5 -90.5t-90.5 -36.5zM799 1241q-52 0 -89.5 36.5t-37.5 90.5t37.5 89.5t91.5 35.5t89.5 -35.5 t35.5 -89.5t-36.5 -90.5t-90.5 -36.5z" glyph-name="odieresis" horiz-adv-x="1234" unicode="ö"/><glyph d="M1305 690v-123q0 -30 -31 -30h-1051q-30 0 -30 30v123q0 31 30 31h1051q31 0 31 -31zM895 983q0 -62 -40 -103.5t-110 -41.5q-62 0 -102.5 42.5t-40.5 104.5q0 63 42 105.5t108 42.5q61 0 102 -42t41 -108zM895 270q0 -62 -40 -103.5t-110 -41.5q-62 0 -102.5 42.5 t-40.5 104.5q0 63 42 105.5t108 42.5q61 0 102 -42t41 -108z" glyph-name="divide" horiz-adv-x="1497" unicode="÷"/><glyph d="M70 502q0 175 77.5 308.5t203.5 201t278 67.5q185 0 311 -90l92 115q9 12 21 12q9 0 18 -6l37 -29q12 -9 12 -20q0 -10 -6 -19l-94 -116q145 -145 145 -394q0 -160 -68.5 -289t-195 -203.5t-289.5 -74.5q-168 0 -299 76l-96 -115q-12 -12 -18 -12q-10 0 -21 8l-37 27 q-12 9 -12 20t8 19l92 116q-159 150 -159 398zM610 975q-63 0 -108 -35.5t-69 -98.5t-35 -134.5t-11 -157.5q0 -117 19 -225l395 491q-62 160 -191 160zM846 479q0 117 -15 211l-391 -485q64 -135 183 -135q65 0 110.5 32t69 91t33.5 128t10 158z" glyph-name="oslash" horiz-adv-x="1234" unicode="ø"/><glyph d="M786 188q-2 19 -3 55t-1.5 95t-0.5 118.5v156.5t-1 178q0 80 -26 100q-16 13 -97 45q-18 6 -25 14t-7 25q0 26 34 37q84 16 218 31.5t176 15.5q14 0 25.5 -8t11.5 -25q0 -5 -5.5 -99t-5.5 -161q-6 -273 -6 -492q0 -67 12.5 -96t38.5 -41q20 -10 43.5 -14t36.5 -7t17 -14 q4 -12 4 -18q0 -21 -21 -33q-45 -28 -146.5 -56t-164.5 -28q-37 0 -59 29.5t-39 112.5q-87 -72 -161.5 -104t-158.5 -32q-87 0 -154 31.5t-104 87.5q-40 59 -56 158t-16 274q0 17 1 128.5t1 142.5q0 68 -28 96q-27 27 -88 43q-31 9 -31 37q0 35 33 41q90 16 219.5 31.5 t167.5 15.5q14 0 25.5 -8t11.5 -25q0 -5 -11.5 -171t-11.5 -234q0 -314 41 -392q50 -92 131 -92q104 0 180 51zM379 1434q-43 43 -43 75q0 40 76 58q52 10 73 10q25 0 41.5 -14.5t34.5 -49.5q11 -23 54 -121t69 -145q14 -33 14 -41q0 -30 -34 -30q-24 0 -50 26 q-47 47 -126 124.5t-109 107.5z" glyph-name="ugrave" horiz-adv-x="1232" unicode="ù"/><glyph d="M786 188q-2 19 -3 55t-1.5 95t-0.5 118.5v156.5t-1 178q0 80 -26 100q-16 13 -97 45q-18 6 -25 14t-7 25q0 26 34 37q84 16 218 31.5t176 15.5q14 0 25.5 -8t11.5 -25q0 -5 -5.5 -99t-5.5 -161q-6 -273 -6 -492q0 -67 12.5 -96t38.5 -41q20 -10 43.5 -14t36.5 -7t17 -14 q4 -12 4 -18q0 -21 -21 -33q-45 -28 -146.5 -56t-164.5 -28q-37 0 -59 29.5t-39 112.5q-87 -72 -161.5 -104t-158.5 -32q-87 0 -154 31.5t-104 87.5q-40 59 -56 158t-16 274q0 17 1 128.5t1 142.5q0 68 -28 96q-27 27 -88 43q-31 9 -31 37q0 35 33 41q90 16 219.5 31.5 t167.5 15.5q14 0 25.5 -8t11.5 -25q0 -5 -11.5 -171t-11.5 -234q0 -314 41 -392q50 -92 131 -92q104 0 180 51zM829 1434q-154 -145 -249 -232q-28 -26 -52 -26q-32 0 -32 30q0 8 14 41q25 47 72.5 144t60.5 122q30 64 78 64q24 0 76 -10q75 -17 75 -58q0 -32 -43 -75z" glyph-name="uacute" horiz-adv-x="1232" unicode="ú"/><glyph d="M786 188q-2 19 -3 55t-1.5 95t-0.5 118.5v156.5t-1 178q0 80 -26 100q-16 13 -97 45q-18 6 -25 14t-7 25q0 26 34 37q84 16 218 31.5t176 15.5q14 0 25.5 -8t11.5 -25q0 -5 -5.5 -99t-5.5 -161q-6 -273 -6 -492q0 -67 12.5 -96t38.5 -41q20 -10 43.5 -14t36.5 -7t17 -14 q4 -12 4 -18q0 -21 -21 -33q-45 -28 -146.5 -56t-164.5 -28q-37 0 -59 29.5t-39 112.5q-87 -72 -161.5 -104t-158.5 -32q-87 0 -154 31.5t-104 87.5q-40 59 -56 158t-16 274q0 17 1 128.5t1 142.5q0 68 -28 96q-27 27 -88 43q-31 9 -31 37q0 35 33 41q90 16 219.5 31.5 t167.5 15.5q14 0 25.5 -8t11.5 -25q0 -5 -11.5 -171t-11.5 -234q0 -314 41 -392q50 -92 131 -92q104 0 180 51zM879 1200q0 -11 -11 -20t-22 -9q-13 0 -37 17l-195 151l-196 -153q-15 -15 -31 -15q-12 0 -22.5 9t-10.5 20q0 9 11 27q111 169 210 325q16 29 43 29 q23 0 41 -27q36 -58 105.5 -166t105.5 -165q9 -15 9 -23z" glyph-name="ucircumflex" horiz-adv-x="1232" unicode="û"/><glyph d="M786 188q-2 19 -3 55t-1.5 95t-0.5 118.5v156.5t-1 178q0 80 -26 100q-16 13 -97 45q-18 6 -25 14t-7 25q0 26 34 37q84 16 218 31.5t176 15.5q14 0 25.5 -8t11.5 -25q0 -5 -5.5 -99t-5.5 -161q-6 -273 -6 -492q0 -67 12.5 -96t38.5 -41q20 -10 43.5 -14t36.5 -7t17 -14 q4 -12 4 -18q0 -21 -21 -33q-45 -28 -146.5 -56t-164.5 -28q-37 0 -59 29.5t-39 112.5q-87 -72 -161.5 -104t-158.5 -32q-87 0 -154 31.5t-104 87.5q-40 59 -56 158t-16 274q0 17 1 128.5t1 142.5q0 68 -28 96q-27 27 -88 43q-31 9 -31 37q0 35 33 41q90 16 219.5 31.5 t167.5 15.5q14 0 25.5 -8t11.5 -25q0 -5 -11.5 -171t-11.5 -234q0 -314 41 -392q50 -92 131 -92q104 0 180 51zM434 1241q-52 0 -89.5 36.5t-37.5 90.5t37.5 89.5t91.5 35.5t89.5 -35.5t35.5 -89.5t-36.5 -90.5t-90.5 -36.5zM799 1241q-52 0 -89.5 36.5t-37.5 90.5 t37.5 89.5t91.5 35.5t89.5 -35.5t35.5 -89.5t-36.5 -90.5t-90.5 -36.5z" glyph-name="udieresis" horiz-adv-x="1232" unicode="ü"/><glyph d="M692 377q90 206 148 371q28 75 28 133q0 29 -19.5 50t-74.5 30q-35 6 -35 43q0 38 41 38q4 0 34.5 -1.5t77.5 -3t93 -1.5q25 0 79.5 3t63.5 3q41 0 41 -41q0 -17 -7 -25t-23 -15q-3 -2 -14 -8t-14.5 -8t-11.5 -7.5t-13.5 -10.5t-10.5 -12q-19 -24 -63 -110 q-50 -106 -137 -313.5t-115 -270.5q-14 -34 -45 -106.5t-43.5 -102t-36 -84t-39 -86t-36.5 -73t-42 -78.5q-53 -95 -130 -156t-171 -61q-52 0 -67 34q-11 25 -25 90.5t-14 88.5q0 47 39 47q16 0 25.5 -5.5t27.5 -23.5q36 -31 71 -31q58 0 99 52q71 94 170 299 q-46 107 -188.5 403t-184.5 387q-40 88 -64 107q-35 32 -63 39q-29 10 -29 40q0 41 37 41q5 0 112 -3t161 -3t115 1.5t101 3t44 1.5q37 0 37 -41q0 -32 -35 -38q-57 -11 -75.5 -30t-18.5 -52q0 -40 34 -127q23 -58 80 -182.5t86 -194.5zM868 1434q-127 -120 -250 -232 q-28 -26 -51 -26q-32 0 -32 30q0 8 14 41q25 47 72.5 144t60.5 122q30 64 78 64q24 0 76 -10q75 -17 75 -58q0 -32 -43 -75z" glyph-name="yacute" horiz-adv-x="1169" unicode="ý"/><glyph d="M442 852q0 -39 -1 -239t-1 -298q0 -75 7 -111.5t24 -53.5q25 -28 63.5 -43t75.5 -15q234 0 234 387q0 97 -17.5 174t-44 121.5t-60 73.5t-62 39t-54.5 10q-90 0 -164 -45zM442 920q163 149 301 149q180 0 300 -132t120 -374q0 -261 -156 -418t-427 -157q-78 0 -131 18 q0 -20 -1.5 -143t-1.5 -154q0 -77 37 -98q15 -8 58 -26t49 -21q31 -12 31 -41q0 -39 -35 -39q-4 0 -47 1.5t-107 3t-119 1.5q-57 0 -157 -3t-105 -3q-37 0 -37 35q0 34 25 43q73 26 92 45q21 21 21 100q0 392 -4.5 878.5t-10.5 612.5q-7 114 -31 141q-32 35 -86 54 q-24 9 -24 34q0 26 27 41q111 63 228 110.5t155 47.5q45 0 45 -45q0 -148 -9 -661z" glyph-name="thorn" horiz-adv-x="1232" unicode="þ"/><glyph d="M692 377q90 206 148 371q28 75 28 133q0 29 -19.5 50t-74.5 30q-35 6 -35 43q0 38 41 38q4 0 34.5 -1.5t77.5 -3t93 -1.5q25 0 79.5 3t63.5 3q41 0 41 -41q0 -17 -7 -25t-23 -15q-3 -2 -14 -8t-14.5 -8t-11.5 -7.5t-13.5 -10.5t-10.5 -12q-19 -24 -63 -110 q-50 -106 -137 -313.5t-115 -270.5q-14 -34 -45 -106.5t-43.5 -102t-36 -84t-39 -86t-36.5 -73t-42 -78.5q-53 -95 -130 -156t-171 -61q-52 0 -67 34q-11 25 -25 90.5t-14 88.5q0 47 39 47q16 0 25.5 -5.5t27.5 -23.5q36 -31 71 -31q58 0 99 52q71 94 170 299 q-46 107 -188.5 403t-184.5 387q-40 88 -64 107q-35 32 -63 39q-29 10 -29 40q0 41 37 41q5 0 112 -3t161 -3t115 1.5t101 3t44 1.5q37 0 37 -41q0 -32 -35 -38q-57 -11 -75.5 -30t-18.5 -52q0 -40 34 -127q23 -58 80 -182.5t86 -194.5zM426 1241q-52 0 -89.5 36.5 t-37.5 90.5t37.5 89.5t91.5 35.5t89.5 -35.5t35.5 -89.5t-36.5 -90.5t-90.5 -36.5zM791 1241q-52 0 -89.5 36.5t-37.5 90.5t37.5 89.5t91.5 35.5t89.5 -35.5t35.5 -89.5t-36.5 -90.5t-90.5 -36.5z" glyph-name="ydieresis" horiz-adv-x="1169" unicode="ÿ"/><glyph d="M500 614h309q-84 217 -150 410q-23 -57 -86.5 -222.5t-72.5 -187.5zM842 504h-381q-71 -186 -91 -247.5t-20 -100.5q0 -36 25 -52q8 -5 16.5 -8.5t15.5 -5.5t22.5 -6.5t29.5 -9.5q21 -7 30 -15.5t9 -27.5q0 -33 -31 -33q-7 0 -91 2t-128 2q-30 0 -112.5 -2t-94.5 -2 q-41 0 -41 37q0 22 7 29t26 12q41 12 60.5 20.5t44 33t44 63t51.5 112.5q217 508 449 1084q23 59 41.5 78.5t48.5 19.5q29 0 42 -14.5t32 -59.5q14 -38 58.5 -163t82.5 -228t113 -302.5t164 -426.5q48 -127 81.5 -164.5t116.5 -52.5q27 -6 27 -39q0 -39 -31 -39q-8 0 -90 2 t-125 2q-44 0 -243 -2t-205 -2q-16 0 -24.5 11t-8.5 26q0 22 9 30t30 13q96 21 117 39q22 19 22 51q0 46 -87 302q-7 22 -11 34zM471 1649v114q0 27 31 27h545q30 0 30 -27v-114q0 -16 -7 -20.5t-23 -4.5h-545q-31 0 -31 25z" glyph-name="Amacron" horiz-adv-x="1507" unicode="Ā"/><glyph d="M629 92q-135 -119 -281 -119q-140 0 -218.5 88.5t-78.5 212.5q0 224 264 277q135 26 299 37q0 185 -7 243t-36 87q-45 45 -122 45q-46 0 -87 -23q-33 -17 -98 -125q-24 -40 -38 -52.5t-38 -12.5q-47 0 -47 53q0 23 7 84.5t14 91.5q4 22 13.5 31.5t31.5 21.5 q44 22 135 34.5t168 12.5q59 0 112.5 -7.5t109 -28t95.5 -53t65.5 -86t25.5 -122.5q0 -57 -4.5 -212.5t-4.5 -198.5q0 -127 18.5 -183t57.5 -61q23 -2 49 -2q22 0 33 -14q4 -12 4 -25q0 -20 -20 -31q-53 -33 -118 -57.5t-112 -24.5q-58 0 -111.5 28t-80.5 91zM616 489 q-94 -10 -167 -38q-45 -18 -71 -57.5t-26 -94.5q0 -82 41 -126t92 -44q81 0 138 29q-7 69 -7 331zM266 1260v120q0 27 31 27h465q31 0 31 -27v-120q0 -16 -7.5 -20.5t-23.5 -4.5h-465q-31 0 -31 25z" glyph-name="amacron" horiz-adv-x="1073" unicode="ā"/><glyph d="M500 614h309q-84 217 -150 410q-23 -57 -86.5 -222.5t-72.5 -187.5zM842 504h-381q-71 -186 -91 -247.5t-20 -100.5q0 -36 25 -52q8 -5 16.5 -8.5t15.5 -5.5t22.5 -6.5t29.5 -9.5q21 -7 30 -15.5t9 -27.5q0 -33 -31 -33q-7 0 -91 2t-128 2q-30 0 -112.5 -2t-94.5 -2 q-41 0 -41 37q0 22 7 29t26 12q41 12 60.5 20.5t44 33t44 63t51.5 112.5q217 508 449 1084q23 59 41.5 78.5t48.5 19.5q29 0 42 -14.5t32 -59.5q14 -38 58.5 -163t82.5 -228t113 -302.5t164 -426.5q48 -127 81.5 -164.5t116.5 -52.5q27 -6 27 -39q0 -39 -31 -39q-8 0 -90 2 t-125 2q-44 0 -243 -2t-205 -2q-16 0 -24.5 11t-8.5 26q0 22 9 30t30 13q96 21 117 39q22 19 22 51q0 46 -87 302q-7 22 -11 34zM1034 1862q18 0 27.5 -12.5t9.5 -30.5q0 -95 -82 -171.5t-215 -76.5t-213 69t-80 179q0 45 45 45q11 0 19.5 -4.5t11.5 -8.5t7 -13l5 -9 q34 -60 84 -85.5t121 -25.5q85 0 135.5 23.5t75.5 81.5q17 39 49 39z" glyph-name="Abreve" horiz-adv-x="1507" unicode="Ă"/><glyph d="M629 92q-135 -119 -281 -119q-140 0 -218.5 88.5t-78.5 212.5q0 224 264 277q135 26 299 37q0 185 -7 243t-36 87q-45 45 -122 45q-46 0 -87 -23q-33 -17 -98 -125q-24 -40 -38 -52.5t-38 -12.5q-47 0 -47 53q0 23 7 84.5t14 91.5q4 22 13.5 31.5t31.5 21.5 q44 22 135 34.5t168 12.5q59 0 112.5 -7.5t109 -28t95.5 -53t65.5 -86t25.5 -122.5q0 -57 -4.5 -212.5t-4.5 -198.5q0 -127 18.5 -183t57.5 -61q23 -2 49 -2q22 0 33 -14q4 -12 4 -25q0 -20 -20 -31q-53 -33 -118 -57.5t-112 -24.5q-58 0 -111.5 28t-80.5 91zM616 489 q-94 -10 -167 -38q-45 -18 -71 -57.5t-26 -94.5q0 -82 41 -126t92 -44q81 0 138 29q-7 69 -7 331zM760 1493q37 0 37 -35q0 -118 -78 -198t-195 -80q-120 0 -192 65t-72 209q0 39 39 39q12 0 21 -5.5t11.5 -10.5t6.5 -15q25 -70 69.5 -98.5t114.5 -28.5q79 0 121.5 27.5 t77.5 101.5q7 15 15 22t24 7z" glyph-name="abreve" horiz-adv-x="1073" unicode="ă"/><glyph d="M842 504h-381q-71 -186 -91 -247.5t-20 -100.5q0 -36 25 -52q8 -5 16.5 -8.5t15.5 -5.5t22.5 -6.5t29.5 -9.5q21 -7 30 -15.5t9 -27.5q0 -33 -31 -33q-7 0 -91 2t-128 2q-30 0 -112.5 -2t-94.5 -2q-41 0 -41 37q0 22 7 29t26 12q41 12 60.5 20.5t44 33t44 63t51.5 112.5 q217 508 449 1084q23 59 41.5 78.5t48.5 19.5q29 0 42 -14.5t32 -59.5q14 -38 58.5 -163t82.5 -228t113 -302.5t164 -426.5q48 -127 81.5 -164.5t116.5 -52.5q27 -6 27 -39q0 -39 -31 -39q-4 0 -32 1t-48 1q-67 -72 -103 -136.5t-36 -142.5q0 -58 33.5 -90t79.5 -32 q67 0 102 18q17 10 31 10q11 0 18.5 -9.5t7.5 -20.5q0 -15 -24 -39q-45 -42 -103 -69.5t-114 -27.5q-111 0 -168.5 55t-57.5 140q0 181 226 346h-27q-44 0 -243 -2t-205 -2q-16 0 -24.5 11t-8.5 26q0 22 9 30t30 13q96 21 117 39q22 19 22 51q0 46 -87 302q-7 22 -11 34z M500 614h309q-84 217 -150 410q-23 -57 -86.5 -222.5t-72.5 -187.5z" glyph-name="Aogonek" horiz-adv-x="1507" unicode="Ą"/><glyph d="M629 92q-135 -119 -281 -119q-140 0 -218.5 88.5t-78.5 212.5q0 224 264 277q135 26 299 37q0 185 -7 243t-36 87q-45 45 -122 45q-46 0 -87 -23q-33 -17 -98 -125q-24 -40 -38 -52.5t-38 -12.5q-47 0 -47 53q0 23 7 84.5t14 91.5q4 22 13.5 31.5t31.5 21.5 q44 22 135 34.5t168 12.5q59 0 112.5 -7.5t109 -28t95.5 -53t65.5 -86t25.5 -122.5q0 -57 -4.5 -212.5t-4.5 -198.5q0 -127 18.5 -183t57.5 -61q23 -2 49 -2q22 0 33 -14q4 -12 4 -25q0 -20 -20 -31q-31 -21 -64 -35q-72 -72 -114 -141t-42 -149q0 -57 32 -88t77 -31 q59 0 100 18q15 9 29 9q12 0 19.5 -9t7.5 -20q0 -14 -25 -39q-41 -40 -97.5 -66t-113.5 -26q-106 0 -161.5 53t-55.5 135q0 162 184 307q-63 0 -117 28t-81 91zM616 489q-94 -10 -167 -38q-45 -18 -71 -57.5t-26 -94.5q0 -82 41 -126t92 -44q81 0 138 29q-7 69 -7 331z" glyph-name="aogonek" horiz-adv-x="1073" unicode="ą"/><glyph d="M852 1354q-88 0 -164 -37t-137 -110.5t-96 -196t-35 -281.5q0 -116 30.5 -210t79.5 -154.5t115.5 -101t135.5 -58t141 -17.5q136 0 252 45q4 1 17 7t22.5 9t15.5 3q18 0 29.5 -15.5t11.5 -35.5q0 -19 -21 -37q-37 -32 -79.5 -61.5t-106.5 -63.5t-144 -54t-163 -20 q-97 0 -191.5 26t-184.5 83.5t-158 140t-109 206t-41 271.5q0 166 61 310t174 250.5t283.5 167.5t378.5 61q47 0 115 -8t96 -21q46 -21 49 -72q10 -78 10 -211q0 -38 -11.5 -50.5t-37.5 -12.5q-24 0 -37 12.5t-41 55.5q-47 74 -72.5 106.5t-52.5 48.5q-48 25 -135 25z M1006 1757q-138 -79 -306 -170q-31 -16 -49 -16q-39 0 -39 35q0 18 23 41q105 105 213 225q29 29 45.5 38t40.5 9q32 0 92 -31q5 -3 15.5 -10l13.5 -9t9 -7.5t7.5 -9t3.5 -9.5t2 -14q0 -19 -14 -33t-57 -39z" glyph-name="Cacute" horiz-adv-x="1333" unicode="Ć"/><glyph d="M371 578q0 -98 24 -174.5t66.5 -122.5t95 -69.5t113.5 -23.5q106 0 196 33q40 15 49 15q21 0 31 -14t10 -29q0 -21 -22 -43q-62 -71 -160.5 -128t-210.5 -57q-145 0 -258 67t-174 183t-61 260q0 134 50 248.5t134 191.5t194.5 120.5t229.5 43.5q136 0 194 -24 q27 -12 40.5 -28t17.5 -54q12 -110 12 -164q0 -32 -14.5 -42.5t-38.5 -10.5q-20 0 -33 10t-37 41q-71 105 -117 135q-30 21 -86 21q-32 0 -63.5 -10.5t-65 -38t-58.5 -69t-41.5 -110.5t-16.5 -157zM786 1434q-154 -145 -249 -232q-28 -26 -52 -26q-32 0 -32 30q0 8 14 41 q25 47 72.5 144t60.5 122q30 64 78 64q24 0 76 -10q75 -17 75 -58q0 -32 -43 -75z" glyph-name="cacute" horiz-adv-x="995" unicode="ć"/><glyph d="M852 1354q-88 0 -164 -37t-137 -110.5t-96 -196t-35 -281.5q0 -116 30.5 -210t79.5 -154.5t115.5 -101t135.5 -58t141 -17.5q136 0 252 45q4 1 17 7t22.5 9t15.5 3q18 0 29.5 -15.5t11.5 -35.5q0 -19 -21 -37q-37 -32 -79.5 -61.5t-106.5 -63.5t-144 -54t-163 -20 q-97 0 -191.5 26t-184.5 83.5t-158 140t-109 206t-41 271.5q0 166 61 310t174 250.5t283.5 167.5t378.5 61q47 0 115 -8t96 -21q46 -21 49 -72q10 -78 10 -211q0 -38 -11.5 -50.5t-37.5 -12.5q-24 0 -37 12.5t-41 55.5q-47 74 -72.5 106.5t-52.5 48.5q-48 25 -135 25z M1079 1589q0 -14 -11.5 -26.5t-27.5 -12.5q-6 0 -36 13q-47 25 -135 71.5t-113 59.5q-126 -63 -248 -131q-22 -13 -35 -13q-17 0 -27 12.5t-10 26.5q0 12 15 27q16 15 258 235q32 29 53 29q26 0 51 -25q134 -128 254 -237q12 -12 12 -29z" glyph-name="Ccircumflex" horiz-adv-x="1333" unicode="Ĉ"/><glyph d="M371 578q0 -98 24 -174.5t66.5 -122.5t95 -69.5t113.5 -23.5q106 0 196 33q40 15 49 15q21 0 31 -14t10 -29q0 -21 -22 -43q-62 -71 -160.5 -128t-210.5 -57q-145 0 -258 67t-174 183t-61 260q0 134 50 248.5t134 191.5t194.5 120.5t229.5 43.5q136 0 194 -24 q27 -12 40.5 -28t17.5 -54q12 -110 12 -164q0 -32 -14.5 -42.5t-38.5 -10.5q-20 0 -33 10t-37 41q-71 105 -117 135q-30 21 -86 21q-32 0 -63.5 -10.5t-65 -38t-58.5 -69t-41.5 -110.5t-16.5 -157zM821 1200q0 -11 -11 -20t-22 -9q-12 0 -36 17l-195 151l-197 -153 q-15 -15 -30 -15q-12 0 -22.5 9t-10.5 20q0 10 10 27q133 201 211 325q16 29 43 29q23 0 41 -27q36 -58 105.5 -166t105.5 -165q8 -13 8 -23z" glyph-name="ccircumflex" horiz-adv-x="995" unicode="ĉ"/><glyph d="M852 1354q-88 0 -164 -37t-137 -110.5t-96 -196t-35 -281.5q0 -116 30.5 -210t79.5 -154.5t115.5 -101t135.5 -58t141 -17.5q136 0 252 45q4 1 17 7t22.5 9t15.5 3q18 0 29.5 -15.5t11.5 -35.5q0 -19 -21 -37q-37 -32 -79.5 -61.5t-106.5 -63.5t-144 -54t-163 -20 q-97 0 -191.5 26t-184.5 83.5t-158 140t-109 206t-41 271.5q0 166 61 310t174 250.5t283.5 167.5t378.5 61q47 0 115 -8t96 -21q46 -21 49 -72q10 -78 10 -211q0 -38 -11.5 -50.5t-37.5 -12.5q-24 0 -37 12.5t-41 55.5q-47 74 -72.5 106.5t-52.5 48.5q-48 25 -135 25z M791 1585q-52 0 -89.5 36.5t-37.5 90.5t37.5 89.5t91.5 35.5t89.5 -35.5t35.5 -89.5t-36.5 -90.5t-90.5 -36.5z" glyph-name="Cdotaccent" horiz-adv-x="1333" unicode="Ċ"/><glyph d="M371 578q0 -98 24 -174.5t66.5 -122.5t95 -69.5t113.5 -23.5q106 0 196 33q40 15 49 15q21 0 31 -14t10 -29q0 -21 -22 -43q-62 -71 -160.5 -128t-210.5 -57q-145 0 -258 67t-174 183t-61 260q0 134 50 248.5t134 191.5t194.5 120.5t229.5 43.5q136 0 194 -24 q27 -12 40.5 -28t17.5 -54q12 -110 12 -164q0 -32 -14.5 -42.5t-38.5 -10.5q-20 0 -33 10t-37 41q-71 105 -117 135q-30 21 -86 21q-32 0 -63.5 -10.5t-65 -38t-58.5 -69t-41.5 -110.5t-16.5 -157zM582 1237q-52 0 -89.5 36.5t-37.5 90.5t37.5 89.5t91.5 35.5t89.5 -35.5 t35.5 -89.5t-36.5 -90.5t-90.5 -36.5z" glyph-name="cdotaccent" horiz-adv-x="995" unicode="ċ"/><glyph d="M852 1354q-88 0 -164 -37t-137 -110.5t-96 -196t-35 -281.5q0 -116 30.5 -210t79.5 -154.5t115.5 -101t135.5 -58t141 -17.5q136 0 252 45q4 1 17 7t22.5 9t15.5 3q18 0 29.5 -15.5t11.5 -35.5q0 -19 -21 -37q-37 -32 -79.5 -61.5t-106.5 -63.5t-144 -54t-163 -20 q-97 0 -191.5 26t-184.5 83.5t-158 140t-109 206t-41 271.5q0 166 61 310t174 250.5t283.5 167.5t378.5 61q47 0 115 -8t96 -21q46 -21 49 -72q10 -78 10 -211q0 -38 -11.5 -50.5t-37.5 -12.5q-24 0 -37 12.5t-41 55.5q-47 74 -72.5 106.5t-52.5 48.5q-48 25 -135 25z M449 1841q0 15 11 27t27 12q9 0 37 -12q47 -25 135 -71.5t113 -59.5q126 63 248 131q20 12 35 12q17 0 27 -12.5t10 -26.5q0 -11 -15 -26q-51 -48 -258 -236q-32 -29 -53 -29q-26 0 -51 25q-134 128 -254 237q-12 12 -12 29z" glyph-name="Ccaron" horiz-adv-x="1333" unicode="Č"/><glyph d="M371 578q0 -98 24 -174.5t66.5 -122.5t95 -69.5t113.5 -23.5q106 0 196 33q40 15 49 15q21 0 31 -14t10 -29q0 -21 -22 -43q-62 -71 -160.5 -128t-210.5 -57q-145 0 -258 67t-174 183t-61 260q0 134 50 248.5t134 191.5t194.5 120.5t229.5 43.5q136 0 194 -24 q27 -12 40.5 -28t17.5 -54q12 -110 12 -164q0 -32 -14.5 -42.5t-38.5 -10.5q-20 0 -33 10t-37 41q-71 105 -117 135q-30 21 -86 21q-32 0 -63.5 -10.5t-65 -38t-58.5 -69t-41.5 -110.5t-16.5 -157zM317 1554q0 11 11 20t22 9q15 0 37 -16l195 -152l196 154q14 14 31 14 q12 0 22.5 -9t10.5 -20q0 -8 -11 -26q-98 -148 -210 -326q-16 -28 -43 -28q-24 0 -41 26q-36 57 -105.5 165.5t-105.5 166.5q-9 15 -9 22z" glyph-name="ccaron" horiz-adv-x="995" unicode="č"/><glyph d="M348 1442q45 0 139 2t144 2q856 0 856 -684q0 -191 -64.5 -337.5t-183 -239.5t-281.5 -140t-366 -47q-42 0 -128.5 3t-115.5 3q-68 0 -177 -3t-112 -3q-34 0 -34 37q0 30 26 39q8 2 22.5 7t20 6.5t16 5t15 5.5t12 5t11.5 5t9.5 5.5t9 6.5t7.5 7q16 16 16 96 q0 104 -4 517.5t-4 482.5q0 76 -16 94q-8 8 -20.5 15t-22.5 10.5t-37 11.5t-43 14q-27 9 -27 41q0 19 10 29t25 10q4 0 116.5 -3t180.5 -3zM526 1223q0 -155 -1.5 -388t-3 -410.5t-1.5 -197.5q0 -54 15 -74.5t57 -31.5q52 -10 102 -10q215 0 318.5 163t103.5 465 q0 146 -26 256t-82.5 191t-152 122.5t-228.5 41.5q-47 0 -66.5 -7t-25.5 -26q-9 -24 -9 -94zM344 1841q0 14 11.5 26.5t27.5 12.5q9 0 37 -12q47 -25 135 -71.5t113 -59.5q116 58 247 131q20 12 35 12q17 0 27 -12.5t10 -26.5q0 -12 -14 -26q-51 -48 -258 -236 q-32 -29 -53 -29q-27 0 -52 25q-134 128 -254 237q-12 12 -12 29z" glyph-name="Dcaron" horiz-adv-x="1558" unicode="Ď"/><glyph d="M801 186l-4 553q0 134 -45 166q-56 43 -142 43q-221 0 -221 -346q0 -107 20 -189.5t48.5 -128.5t67 -75.5t69.5 -39t61 -9.5q84 0 146 26zM793 1055q0 1 -5 143q-7 115 -30 141q-29 31 -86 54q-25 9 -25 34q0 26 27 41q98 59 218.5 108.5t160.5 49.5q43 0 43 -45 q0 -31 -1.5 -100.5t-4 -221.5t-5.5 -331q0 -15 1 -250.5t1 -405.5q0 -65 13 -92.5t37 -40.5q12 -5 69 -20q24 -6 31 -17q4 -12 4 -18q0 -22 -20 -33q-48 -28 -149 -56t-159 -28q-44 0 -65 28.5t-39 117.5q-153 -140 -303 -140q-189 0 -312.5 133.5t-123.5 354.5 q0 137 48.5 253t131 194t192 121.5t230.5 43.5q71 0 121 -18zM1540 1450q0 -97 -66 -183.5t-174 -142.5q-48 -26 -75 -26q-16 0 -25.5 13.5t-9.5 27.5q0 17 24 32q47 29 76.5 55t41 48t14 34.5t2.5 30.5q0 15 -13 35t-35 31q-32 19 -47.5 42t-15.5 62q0 46 39 82.5t98 36.5 q79 0 122.5 -46t43.5 -132z" glyph-name="dcaron" horiz-adv-x="1251" unicode="ď"/><glyph d="M348 1442q45 0 139 2t144 2q856 0 856 -684q0 -191 -64.5 -337.5t-183 -239.5t-281.5 -140t-366 -47q-42 0 -128.5 3t-115.5 3q-68 0 -177 -3t-112 -3q-34 0 -34 37q0 30 26 39q8 2 22.5 7t20 6.5t16 5t15 5.5t12 5t11.5 5t9.5 5.5t9 6.5t7.5 7q16 16 16 96q0 31 -2 198 t-2 275h-145q-29 0 -29 27v53q0 19 7.5 28t29.5 9h135q-2 180 -2 410q0 76 -16 94q-8 8 -20.5 15t-22.5 10.5t-37 11.5t-43 14q-27 9 -27 41q0 19 10 29t25 10q4 0 116.5 -3t180.5 -3zM526 1223q0 -265 -2 -410h273q37 0 37 -27v-61q0 -29 -35 -29h-275q0 -102 -1 -210.5 t-2 -179t-1 -79.5q0 -54 15 -74.5t57 -31.5q52 -10 102 -10q215 0 318.5 163t103.5 465q0 146 -26 256t-82.5 191t-152 122.5t-228.5 41.5q-47 0 -66.5 -7t-25.5 -26q-9 -24 -9 -94z" glyph-name="Dcroat" horiz-adv-x="1558" unicode="Đ"/><glyph d="M793 1055q0 11 -5 114h-239q-31 0 -31 25v53q0 27 31 27h233q-7 43 -24 65q-25 30 -86 54q-25 9 -25 34q0 26 27 41q98 59 218.5 108.5t160.5 49.5q43 0 43 -45q0 -143 -6 -307h122q31 0 31 -27v-53q0 -16 -7.5 -20.5t-23.5 -4.5h-125q0 -33 -1 -113t-1 -128 q0 -15 1 -250.5t1 -405.5q0 -65 13 -92.5t37 -40.5q12 -5 69 -20q24 -6 31 -17q4 -12 4 -18q0 -22 -20 -33q-48 -28 -149 -56t-159 -28q-44 0 -65 28.5t-39 117.5q-153 -140 -303 -140q-189 0 -312.5 133.5t-123.5 354.5q0 137 48.5 253t131 194t192 121.5t230.5 43.5 q71 0 121 -18zM801 186l-4 553q0 134 -45 166q-56 43 -142 43q-221 0 -221 -346q0 -107 20 -189.5t48.5 -128.5t67 -75.5t69.5 -39t61 -9.5q84 0 146 26z" glyph-name="dcroat" horiz-adv-x="1251" unicode="đ"/><glyph d="M518 799q142 0 268 12q83 11 103 33q21 24 59 112q13 37 51 37q41 0 41 -37q0 -5 -1 -66.5t-1 -115.5t0.5 -105t1 -82t0.5 -38q0 -39 -41 -39q-39 0 -53 39q-42 96 -65 119q-24 18 -105 24q-95 10 -258 10q0 -16 -1 -171.5t-1 -229.5q0 -68 6 -99.5t27 -47.5 q31 -22 86.5 -29.5t159.5 -7.5q102 0 150.5 11t74.5 32q34 24 113 200q15 35 55 35q45 0 45 -49q0 -26 -5 -145.5t-9 -165.5q-3 -37 -39 -37q-97 0 -296.5 1.5t-363 3t-172.5 1.5q-68 0 -177 -3t-112 -3q-34 0 -34 37q0 30 26 39q15 5 37 12.5t31.5 10.5t21.5 8t19 10t14 12 q16 16 16 96q0 104 -4 517.5t-4 482.5q0 76 -16 94q-8 8 -20.5 15t-22.5 10.5t-37 11.5t-43 14q-27 9 -27 41q0 19 10 29t25 10q3 0 112 -2t177 -2q9 0 154 1t326.5 2t277.5 1q41 0 41 -37q8 -148 8 -272q0 -41 -47 -41q-37 0 -51 32q-7 15 -16.5 34t-15 29.5t-12.5 24.5 t-11.5 22t-9.5 17.5t-9 15l-8 11t-7.5 9.5t-7.5 7q-26 22 -81 31.5t-201 9.5q-117 0 -133 -16q-3 -3 -5 -6t-3 -5.5t-2 -7t-2 -7t-1.5 -9t-0.5 -10t-0.5 -12t-0.5 -13.5q-4 -93 -4 -456zM303 1649v114q0 27 31 27h545q30 0 30 -27v-114q0 -16 -7 -20.5t-23 -4.5h-545 q-31 0 -31 25z" glyph-name="Emacron" horiz-adv-x="1296" unicode="Ē"/><glyph d="M379 688l336 25q0 142 -37 201t-113 59q-153 0 -186 -285zM367 537q4 -173 99 -274t241 -101q111 0 235 47q37 14 45 14q16 0 26.5 -15t10.5 -30t-20 -35q-178 -178 -445 -178q-212 0 -350.5 141t-138.5 386q0 259 145.5 423t392.5 164q88 0 159 -24.5t117.5 -65 t77.5 -96.5t44.5 -115.5t13.5 -124.5q0 -25 -15 -42t-44 -17h-592q-2 -16 -2 -57zM289 1260v120q0 27 30 27h465q31 0 31 -27v-120q0 -16 -7.5 -20.5t-23.5 -4.5h-465q-30 0 -30 25z" glyph-name="emacron" horiz-adv-x="1064" unicode="ē"/><glyph d="M518 799q142 0 268 12q83 11 103 33q21 24 59 112q13 37 51 37q41 0 41 -37q0 -5 -1 -66.5t-1 -115.5t0.5 -105t1 -82t0.5 -38q0 -39 -41 -39q-39 0 -53 39q-42 96 -65 119q-24 18 -105 24q-95 10 -258 10q0 -16 -1 -171.5t-1 -229.5q0 -68 6 -99.5t27 -47.5 q31 -22 86.5 -29.5t159.5 -7.5q102 0 150.5 11t74.5 32q34 24 113 200q15 35 55 35q45 0 45 -49q0 -26 -5 -145.5t-9 -165.5q-3 -37 -39 -37q-97 0 -296.5 1.5t-363 3t-172.5 1.5q-68 0 -177 -3t-112 -3q-34 0 -34 37q0 30 26 39q15 5 37 12.5t31.5 10.5t21.5 8t19 10t14 12 q16 16 16 96q0 104 -4 517.5t-4 482.5q0 76 -16 94q-8 8 -20.5 15t-22.5 10.5t-37 11.5t-43 14q-27 9 -27 41q0 19 10 29t25 10q3 0 112 -2t177 -2q9 0 154 1t326.5 2t277.5 1q41 0 41 -37q8 -148 8 -272q0 -41 -47 -41q-37 0 -51 32q-7 15 -16.5 34t-15 29.5t-12.5 24.5 t-11.5 22t-9.5 17.5t-9 15l-8 11t-7.5 9.5t-7.5 7q-26 22 -81 31.5t-201 9.5q-117 0 -133 -16q-3 -3 -5 -6t-3 -5.5t-2 -7t-2 -7t-1.5 -9t-0.5 -10t-0.5 -12t-0.5 -13.5q-4 -93 -4 -456zM885 1862q18 0 27.5 -12.5t9.5 -30.5q0 -95 -82 -171.5t-215 -76.5t-213 69t-80 179 q0 45 45 45q11 0 19.5 -4.5t11.5 -8.5t8 -13l4 -9q34 -60 84 -85.5t121 -25.5q85 0 135.5 23.5t75.5 81.5q17 39 49 39z" glyph-name="Ebreve" horiz-adv-x="1296" unicode="Ĕ"/><glyph d="M379 688l336 25q0 142 -37 201t-113 59q-153 0 -186 -285zM367 537q4 -173 99 -274t241 -101q111 0 235 47q37 14 45 14q16 0 26.5 -15t10.5 -30t-20 -35q-178 -178 -445 -178q-212 0 -350.5 141t-138.5 386q0 259 145.5 423t392.5 164q88 0 159 -24.5t117.5 -65 t77.5 -96.5t44.5 -115.5t13.5 -124.5q0 -25 -15 -42t-44 -17h-592q-2 -16 -2 -57zM805 1493q37 0 37 -35q0 -118 -78 -198t-195 -80q-120 0 -192 65t-72 209q0 39 39 39q12 0 21 -5.5t11.5 -10.5t6.5 -15q25 -70 69.5 -98.5t114.5 -28.5q79 0 121.5 27.5t77.5 101.5 q14 29 39 29z" glyph-name="ebreve" horiz-adv-x="1064" unicode="ĕ"/><glyph d="M518 799q142 0 268 12q83 11 103 33q21 24 59 112q13 37 51 37q41 0 41 -37q0 -5 -1 -66.5t-1 -115.5t0.5 -105t1 -82t0.5 -38q0 -39 -41 -39q-39 0 -53 39q-42 96 -65 119q-24 18 -105 24q-95 10 -258 10q0 -16 -1 -171.5t-1 -229.5q0 -68 6 -99.5t27 -47.5 q31 -22 86.5 -29.5t159.5 -7.5q102 0 150.5 11t74.5 32q34 24 113 200q15 35 55 35q45 0 45 -49q0 -26 -5 -145.5t-9 -165.5q-3 -37 -39 -37q-97 0 -296.5 1.5t-363 3t-172.5 1.5q-68 0 -177 -3t-112 -3q-34 0 -34 37q0 30 26 39q15 5 37 12.5t31.5 10.5t21.5 8t19 10t14 12 q16 16 16 96q0 104 -4 517.5t-4 482.5q0 76 -16 94q-8 8 -20.5 15t-22.5 10.5t-37 11.5t-43 14q-27 9 -27 41q0 19 10 29t25 10q3 0 112 -2t177 -2q9 0 154 1t326.5 2t277.5 1q41 0 41 -37q8 -148 8 -272q0 -41 -47 -41q-37 0 -51 32q-7 15 -16.5 34t-15 29.5t-12.5 24.5 t-11.5 22t-9.5 17.5t-9 15l-8 11t-7.5 9.5t-7.5 7q-26 22 -81 31.5t-201 9.5q-117 0 -133 -16q-3 -3 -5 -6t-3 -5.5t-2 -7t-2 -7t-1.5 -9t-0.5 -10t-0.5 -12t-0.5 -13.5q-4 -93 -4 -456zM623 1585q-52 0 -89.5 36.5t-37.5 90.5t37.5 89.5t91.5 35.5t89.5 -35.5t35.5 -89.5 t-36.5 -90.5t-90.5 -36.5z" glyph-name="Edotaccent" horiz-adv-x="1296" unicode="Ė"/><glyph d="M379 688l336 25q0 142 -37 201t-113 59q-153 0 -186 -285zM367 537q4 -173 99 -274t241 -101q111 0 235 47q37 14 45 14q16 0 26.5 -15t10.5 -30t-20 -35q-178 -178 -445 -178q-212 0 -350.5 141t-138.5 386q0 259 145.5 423t392.5 164q88 0 159 -24.5t117.5 -65 t77.5 -96.5t44.5 -115.5t13.5 -124.5q0 -25 -15 -42t-44 -17h-592q-2 -16 -2 -57zM573 1237q-52 0 -89.5 36.5t-37.5 90.5t37.5 89.5t91.5 35.5t89.5 -35.5t35.5 -89.5t-36.5 -90.5t-90.5 -36.5z" glyph-name="edotaccent" horiz-adv-x="1064" unicode="ė"/><glyph d="M518 799q142 0 268 12q83 11 103 33q21 24 59 112q13 37 51 37q41 0 41 -37q0 -5 -1 -66.5t-1 -115.5t0.5 -105t1 -82t0.5 -38q0 -39 -41 -39q-39 0 -53 39q-42 96 -65 119q-24 18 -105 24q-95 10 -258 10q0 -16 -1 -171.5t-1 -229.5q0 -68 6 -99.5t27 -47.5 q31 -22 86.5 -29.5t159.5 -7.5q102 0 150.5 11t74.5 32q34 24 113 200q15 35 55 35q45 0 45 -49q0 -26 -5 -145.5t-9 -165.5q-3 -37 -39 -37h-64q-67 -71 -103 -134.5t-36 -142.5q0 -58 33.5 -90t79.5 -32q67 0 102 18q17 10 31 10q11 0 18.5 -9.5t7.5 -20.5q0 -15 -24 -39 q-45 -42 -103 -69.5t-114 -27.5q-111 0 -168.5 55t-57.5 140q0 174 224 342q-116 0 -273 1.5t-268.5 3t-116.5 1.5q-68 0 -177 -3t-112 -3q-34 0 -34 37q0 30 26 39q15 5 37 12.5t31.5 10.5t21.5 8t19 10t14 12q16 16 16 96q0 104 -4 517.5t-4 482.5q0 76 -16 94 q-8 8 -20.5 15t-22.5 10.5t-37 11.5t-43 14q-27 9 -27 41q0 19 10 29t25 10q3 0 112 -2t177 -2q9 0 154 1t326.5 2t277.5 1q41 0 41 -37q8 -148 8 -272q0 -41 -47 -41q-37 0 -51 32q-7 15 -16.5 34t-15 29.5t-12.5 24.5t-11.5 22t-9.5 17.5t-9 15l-8 11t-7.5 9.5t-7.5 7 q-26 22 -81 31.5t-201 9.5q-117 0 -133 -16q-3 -3 -5 -6t-3 -5.5t-2 -7t-2 -7t-1.5 -9t-0.5 -10t-0.5 -12t-0.5 -13.5q-4 -93 -4 -456z" glyph-name="Eogonek" horiz-adv-x="1296" unicode="Ę"/><glyph d="M367 537q4 -173 99 -274t241 -101q111 0 235 47q37 14 45 14q16 0 26.5 -15t10.5 -30t-20 -35q-72 -72 -158 -114q-41 -42 -63 -68t-49 -65.5t-39.5 -80t-12.5 -85.5q0 -57 32 -88t77 -31q59 0 100 18q15 9 29 9q11 0 18.5 -9t7.5 -20q0 -15 -24 -39q-41 -40 -97.5 -66 t-113.5 -26q-106 0 -161.5 53t-55.5 135q0 86 49 160.5t137 148.5q-65 -10 -121 -10q-212 0 -350.5 141t-138.5 386q0 259 145.5 423t392.5 164q88 0 159 -24.5t117.5 -65t77.5 -96.5t44.5 -115.5t13.5 -124.5q0 -25 -15 -42t-44 -17h-592q-2 -16 -2 -57zM379 688l336 25 q0 142 -37 201t-113 59q-153 0 -186 -285z" glyph-name="eogonek" horiz-adv-x="1064" unicode="ę"/><glyph d="M518 799q142 0 268 12q83 11 103 33q21 24 59 112q13 37 51 37q41 0 41 -37q0 -5 -1 -66.5t-1 -115.5t0.5 -105t1 -82t0.5 -38q0 -39 -41 -39q-39 0 -53 39q-42 96 -65 119q-24 18 -105 24q-95 10 -258 10q0 -16 -1 -171.5t-1 -229.5q0 -68 6 -99.5t27 -47.5 q31 -22 86.5 -29.5t159.5 -7.5q102 0 150.5 11t74.5 32q34 24 113 200q15 35 55 35q45 0 45 -49q0 -26 -5 -145.5t-9 -165.5q-3 -37 -39 -37q-97 0 -296.5 1.5t-363 3t-172.5 1.5q-68 0 -177 -3t-112 -3q-34 0 -34 37q0 30 26 39q15 5 37 12.5t31.5 10.5t21.5 8t19 10t14 12 q16 16 16 96q0 104 -4 517.5t-4 482.5q0 76 -16 94q-8 8 -20.5 15t-22.5 10.5t-37 11.5t-43 14q-27 9 -27 41q0 19 10 29t25 10q3 0 112 -2t177 -2q9 0 154 1t326.5 2t277.5 1q41 0 41 -37q8 -148 8 -272q0 -41 -47 -41q-37 0 -51 32q-7 15 -16.5 34t-15 29.5t-12.5 24.5 t-11.5 22t-9.5 17.5t-9 15l-8 11t-7.5 9.5t-7.5 7q-26 22 -81 31.5t-201 9.5q-117 0 -133 -16q-3 -3 -5 -6t-3 -5.5t-2 -7t-2 -7t-1.5 -9t-0.5 -10t-0.5 -12t-0.5 -13.5q-4 -93 -4 -456zM285 1841q0 14 11.5 26.5t27.5 12.5q8 0 36 -12q47 -25 135 -71.5t113 -59.5 q125 63 248 131q20 12 35 12q17 0 27 -12.5t10 -26.5q0 -11 -15 -26q-51 -48 -258 -236q-32 -29 -53 -29q-26 0 -51 25q-134 128 -254 237q-12 12 -12 29z" glyph-name="Ecaron" horiz-adv-x="1296" unicode="Ě"/><glyph d="M379 688l336 25q0 142 -37 201t-113 59q-153 0 -186 -285zM367 537q4 -173 99 -274t241 -101q111 0 235 47q37 14 45 14q16 0 26.5 -15t10.5 -30t-20 -35q-178 -178 -445 -178q-212 0 -350.5 141t-138.5 386q0 259 145.5 423t392.5 164q88 0 159 -24.5t117.5 -65 t77.5 -96.5t44.5 -115.5t13.5 -124.5q0 -25 -15 -42t-44 -17h-592q-2 -16 -2 -57zM311 1554q0 11 11 20t22 9q15 0 37 -16l194 -152l197 154q14 14 31 14q12 0 22.5 -9t10.5 -20q0 -8 -11 -26q-119 -180 -211 -326q-16 -28 -43 -28q-24 0 -41 26q-36 57 -105.5 165.5 t-105.5 166.5q-8 13 -8 22z" glyph-name="ecaron" horiz-adv-x="1064" unicode="ě"/><glyph d="M993 438q-2 48 -5 65t-13 29q-23 23 -123 54q-27 9 -27 41q0 35 35 35q7 0 70 -2t145.5 -3.5t136.5 -1.5q68 0 133 3.5t68 3.5q37 0 37 -41q0 -17 -5 -24t-22 -13q-10 -4 -25 -9.5t-21.5 -8t-15 -6.5t-13.5 -8t-9 -9q-20 -23 -20 -94q0 -11 1 -91t1 -122t5 -82t5 -45 q0 -23 -20 -37q-65 -42 -212 -74.5t-302 -32.5q-151 0 -282 47t-230 136t-156 227.5t-57 310.5q0 364 253 579.5t697 215.5q148 0 225 -27q25 -8 37 -23t16 -49q11 -108 11 -213q0 -36 -12 -49.5t-37 -13.5q-22 0 -37.5 14.5t-40.5 53.5q-44 73 -68 106t-47 45 q-50 29 -172 29q-99 0 -180 -34.5t-135.5 -93.5t-91.5 -139.5t-53.5 -170t-16.5 -187.5q0 -129 24 -235.5t65 -178.5t96 -121t116.5 -71.5t128.5 -22.5q90 0 119 27q26 20 26 102q0 119 -2 209zM1133 1589q0 -14 -11.5 -26.5t-27.5 -12.5q-7 0 -37 13q-47 25 -135 71.5 t-113 59.5q-125 -63 -248 -131q-22 -13 -35 -13q-17 0 -27 12.5t-10 26.5q0 12 15 27q16 15 258 235q32 29 53 29q26 0 51 -25q134 -128 254 -237q13 -13 13 -29z" glyph-name="Gcircumflex" horiz-adv-x="1486" unicode="Ĝ"/><glyph d="M379 332q-324 70 -324 358q0 164 131 278.5t332 114.5q169 0 289 -98q33 0 76 16q57 24 100 76q10 11 15.5 16.5t15 10t20.5 4.5q37 0 37 -35q0 -65 -24 -135q-13 -45 -66 -45q-69 0 -100 2q49 -79 49 -172q0 -71 -21.5 -130.5t-56.5 -101t-83 -73.5t-97 -51t-103 -29 q-65 -13 -107 -41.5t-42 -58.5q0 -18 13.5 -29t49.5 -21q36 -9 172 -38.5t201 -49.5q108 -33 155.5 -87t47.5 -152q0 -77 -44 -153t-119.5 -136.5t-186 -98.5t-232.5 -38q-213 0 -346 72t-133 182q0 36 18 77t54 74q48 42 104 76q41 25 68 25q15 0 23.5 -9.5t8.5 -19.5 q0 -17 -14 -37q-47 -55 -47 -133q0 -58 53.5 -100.5t130 -61t162.5 -18.5q113 0 178.5 42t65.5 122q0 78 -98 112q-52 18 -173.5 51.5t-179.5 51.5q-176 53 -176 165q0 98 203 226zM635 668q0 150 -37.5 231.5t-110.5 81.5q-63 0 -99 -56.5t-36 -174.5q0 -161 37 -242.5 t119 -81.5q70 0 98.5 59t28.5 183zM764 1200q0 -11 -11 -20t-22 -9q-13 0 -37 17l-194 151l-197 -153q-15 -15 -31 -15q-12 0 -22 9t-10 20q0 10 10 27q133 201 211 325q16 29 43 29q23 0 41 -27q36 -58 105.5 -166t105.5 -165q8 -13 8 -23z" glyph-name="gcircumflex" horiz-adv-x="1028" unicode="ĝ"/><glyph d="M993 438q-2 48 -5 65t-13 29q-23 23 -123 54q-27 9 -27 41q0 35 35 35q7 0 70 -2t145.5 -3.5t136.5 -1.5q68 0 133 3.5t68 3.5q37 0 37 -41q0 -17 -5 -24t-22 -13q-10 -4 -25 -9.5t-21.5 -8t-15 -6.5t-13.5 -8t-9 -9q-20 -23 -20 -94q0 -11 1 -91t1 -122t5 -82t5 -45 q0 -23 -20 -37q-65 -42 -212 -74.5t-302 -32.5q-151 0 -282 47t-230 136t-156 227.5t-57 310.5q0 364 253 579.5t697 215.5q148 0 225 -27q25 -8 37 -23t16 -49q11 -108 11 -213q0 -36 -12 -49.5t-37 -13.5q-22 0 -37.5 14.5t-40.5 53.5q-44 73 -68 106t-47 45 q-50 29 -172 29q-99 0 -180 -34.5t-135.5 -93.5t-91.5 -139.5t-53.5 -170t-16.5 -187.5q0 -129 24 -235.5t65 -178.5t96 -121t116.5 -71.5t128.5 -22.5q90 0 119 27q26 20 26 102q0 119 -2 209zM1069 1862q18 0 27.5 -12.5t9.5 -30.5q0 -95 -82 -171.5t-215 -76.5t-213 69 t-80 179q0 45 45 45q11 0 19.5 -4.5t11.5 -8.5t8 -13l4 -9q34 -60 84 -85.5t121 -25.5q85 0 135.5 23.5t75.5 81.5q17 39 49 39z" glyph-name="Gbreve" horiz-adv-x="1486" unicode="Ğ"/><glyph d="M379 332q-324 70 -324 358q0 164 131 278.5t332 114.5q169 0 289 -98q33 0 76 16q57 24 100 76q10 11 15.5 16.5t15 10t20.5 4.5q37 0 37 -35q0 -65 -24 -135q-13 -45 -66 -45q-69 0 -100 2q49 -79 49 -172q0 -71 -21.5 -130.5t-56.5 -101t-83 -73.5t-97 -51t-103 -29 q-65 -13 -107 -41.5t-42 -58.5q0 -18 13.5 -29t49.5 -21q36 -9 172 -38.5t201 -49.5q108 -33 155.5 -87t47.5 -152q0 -77 -44 -153t-119.5 -136.5t-186 -98.5t-232.5 -38q-213 0 -346 72t-133 182q0 36 18 77t54 74q48 42 104 76q41 25 68 25q15 0 23.5 -9.5t8.5 -19.5 q0 -17 -14 -37q-47 -55 -47 -133q0 -58 53.5 -100.5t130 -61t162.5 -18.5q113 0 178.5 42t65.5 122q0 78 -98 112q-52 18 -173.5 51.5t-179.5 51.5q-176 53 -176 165q0 98 203 226zM635 668q0 150 -37.5 231.5t-110.5 81.5q-63 0 -99 -56.5t-36 -174.5q0 -161 37 -242.5 t119 -81.5q70 0 98.5 59t28.5 183zM745 1493q37 0 37 -35q0 -118 -78 -198t-194 -80q-120 0 -192 65t-72 209q0 39 39 39q12 0 21 -5.5t11.5 -10.5t6.5 -15q25 -70 69.5 -98.5t114.5 -28.5q79 0 121.5 27.5t77.5 101.5q5 10 8.5 15t11 9.5t18.5 4.5z" glyph-name="gbreve" horiz-adv-x="1028" unicode="ğ"/><glyph d="M993 438q-2 48 -5 65t-13 29q-23 23 -123 54q-27 9 -27 41q0 35 35 35q7 0 70 -2t145.5 -3.5t136.5 -1.5q68 0 133 3.5t68 3.5q37 0 37 -41q0 -17 -5 -24t-22 -13q-10 -4 -25 -9.5t-21.5 -8t-15 -6.5t-13.5 -8t-9 -9q-20 -23 -20 -94q0 -11 1 -91t1 -122t5 -82t5 -45 q0 -23 -20 -37q-65 -42 -212 -74.5t-302 -32.5q-151 0 -282 47t-230 136t-156 227.5t-57 310.5q0 364 253 579.5t697 215.5q148 0 225 -27q25 -8 37 -23t16 -49q11 -108 11 -213q0 -36 -12 -49.5t-37 -13.5q-22 0 -37.5 14.5t-40.5 53.5q-44 73 -68 106t-47 45 q-50 29 -172 29q-99 0 -180 -34.5t-135.5 -93.5t-91.5 -139.5t-53.5 -170t-16.5 -187.5q0 -129 24 -235.5t65 -178.5t96 -121t116.5 -71.5t128.5 -22.5q90 0 119 27q26 20 26 102q0 119 -2 209zM807 1585q-52 0 -89.5 36.5t-37.5 90.5t37.5 89.5t91.5 35.5t89.5 -35.5 t35.5 -89.5t-36.5 -90.5t-90.5 -36.5z" glyph-name="Gdotaccent" horiz-adv-x="1486" unicode="Ġ"/><glyph d="M379 332q-324 70 -324 358q0 164 131 278.5t332 114.5q169 0 289 -98q33 0 76 16q57 24 100 76q10 11 15.5 16.5t15 10t20.5 4.5q37 0 37 -35q0 -65 -24 -135q-13 -45 -66 -45q-69 0 -100 2q49 -79 49 -172q0 -71 -21.5 -130.5t-56.5 -101t-83 -73.5t-97 -51t-103 -29 q-65 -13 -107 -41.5t-42 -58.5q0 -18 13.5 -29t49.5 -21q36 -9 172 -38.5t201 -49.5q108 -33 155.5 -87t47.5 -152q0 -77 -44 -153t-119.5 -136.5t-186 -98.5t-232.5 -38q-213 0 -346 72t-133 182q0 36 18 77t54 74q48 42 104 76q41 25 68 25q15 0 23.5 -9.5t8.5 -19.5 q0 -17 -14 -37q-47 -55 -47 -133q0 -58 53.5 -100.5t130 -61t162.5 -18.5q113 0 178.5 42t65.5 122q0 78 -98 112q-52 18 -173.5 51.5t-179.5 51.5q-176 53 -176 165q0 98 203 226zM635 668q0 150 -37.5 231.5t-110.5 81.5q-63 0 -99 -56.5t-36 -174.5q0 -161 37 -242.5 t119 -81.5q70 0 98.5 59t28.5 183zM514 1237q-52 0 -89.5 36.5t-37.5 90.5t37.5 89.5t91.5 35.5t89.5 -35.5t35.5 -89.5t-36.5 -90.5t-90.5 -36.5z" glyph-name="gdotaccent" horiz-adv-x="1028" unicode="ġ"/><glyph d="M993 438q-2 48 -5 65t-13 29q-23 23 -123 54q-27 9 -27 41q0 35 35 35q7 0 70 -2t145.5 -3.5t136.5 -1.5q68 0 133 3.5t68 3.5q37 0 37 -41q0 -17 -5 -24t-22 -13q-10 -4 -25 -9.5t-21.5 -8t-15 -6.5t-13.5 -8t-9 -9q-20 -23 -20 -94q0 -11 1 -91t1 -122t5 -82t5 -45 q0 -23 -20 -37q-65 -42 -212 -74.5t-302 -32.5q-151 0 -282 47t-230 136t-156 227.5t-57 310.5q0 364 253 579.5t697 215.5q148 0 225 -27q25 -8 37 -23t16 -49q11 -108 11 -213q0 -36 -12 -49.5t-37 -13.5q-22 0 -37.5 14.5t-40.5 53.5q-44 73 -68 106t-47 45 q-50 29 -172 29q-99 0 -180 -34.5t-135.5 -93.5t-91.5 -139.5t-53.5 -170t-16.5 -187.5q0 -129 24 -235.5t65 -178.5t96 -121t116.5 -71.5t128.5 -22.5q90 0 119 27q26 20 26 102q0 119 -2 209zM975 -305q0 -95 -63.5 -177.5t-170.5 -138.5q-48 -26 -73 -26q-16 0 -25.5 13 t-9.5 26q0 18 24 33q46 27 75 52t40 47t13.5 34t2.5 30q0 15 -12.5 34t-34.5 30q-32 19 -46.5 41t-14.5 61q0 45 37.5 80t95.5 35q76 0 119 -45t43 -129z" glyph-name="uni0122" horiz-adv-x="1486" unicode="Ģ"/><glyph d="M358 332q-162 46 -232.5 132.5t-70.5 225.5q0 164 131 278.5t332 114.5q169 0 289 -98q41 4 72 16q56 25 98 76q28 31 55 31q39 0 39 -41q0 -68 -24 -135q-10 -28 -25 -37.5t-41 -9.5q-5 0 -98 6q47 -77 47 -168q0 -72 -22 -131.5t-57 -100t-85.5 -72.5t-100.5 -50 t-108 -31q-67 -14 -112.5 -42.5t-45.5 -57.5q0 -18 14 -29t50 -21q44 -11 184.5 -39.5t204.5 -48.5q108 -33 155.5 -87t47.5 -152q0 -77 -44 -153t-118.5 -136.5t-184 -98.5t-231.5 -38q-212 0 -346.5 72.5t-134.5 181.5q0 43 16.5 75.5t57.5 67.5q42 35 108 72q43 24 68 24 q16 0 24.5 -9.5t8.5 -18.5q0 -16 -15 -37q-49 -59 -49 -129q0 -58 53 -98.5t128 -57t163 -16.5q112 0 177 43.5t65 124.5q0 40 -26 70t-75 42q-257 67 -356 90q-192 43 -192 164q0 47 39.5 95.5t166.5 140.5zM635 668q0 150 -37.5 231.5t-110.5 81.5q-63 0 -99 -56.5 t-36 -174.5q0 -161 37 -242.5t119 -81.5q70 0 98.5 59t28.5 183zM340 1370q0 95 63 177.5t170 138.5q48 26 74 26q16 0 25.5 -13t9.5 -26q0 -17 -25 -33q-46 -27 -75 -52t-40 -47t-13.5 -34t-2.5 -30q0 -15 12.5 -34t34.5 -30q32 -19 47 -41t15 -61q0 -45 -37.5 -80 t-95.5 -35q-76 0 -119 45t-43 129z" glyph-name="uni0123" horiz-adv-x="1028" unicode="ģ"/><glyph d="M1362 1208q0 -18 -2 -437t-2 -535q0 -85 18 -105q4 -4 10 -8.5t12.5 -7.5t20 -8t24.5 -8.5t33 -11t40 -13.5q28 -9 28 -39q0 -37 -33 -37q-5 0 -61 1.5t-132.5 3t-129.5 1.5q-68 0 -177 -3t-112 -3q-35 0 -35 37q0 30 27 39q8 2 22.5 7t20 6.5t16 5t15 5.5t12 5t11.5 5 t9.5 5.5t9 6.5t7.5 7q16 16 16 96q0 39 -1 155.5t-2 217.5t-1 102h-506q0 -4 -0.5 -88.5t-1 -195.5t-0.5 -178q0 -84 19 -105q3 -4 7.5 -7t11.5 -6.5t13.5 -6.5t19 -7.5t23 -8t29.5 -10t35 -11.5q29 -10 29 -39q0 -37 -33 -37q-5 0 -61.5 1.5t-133 3t-129.5 1.5 q-68 0 -177 -3t-112 -3q-34 0 -34 37q0 30 26 39q8 2 22.5 7t20 6.5t16 5t15 5.5t12 5t11.5 5t9.5 5.5t9 6.5t7.5 7q16 16 16 96q0 104 -4 517.5t-4 482.5q0 76 -16 94q-8 8 -20.5 15t-22.5 10.5t-37 11.5t-43 14q-27 9 -27 41q0 19 10 29t25 10q4 0 116.5 -3t180.5 -3 q53 0 130 1.5t134.5 3t63.5 1.5q33 0 33 -39q0 -31 -29 -41q-22 -7 -47 -15.5t-37 -12.5t-24.5 -8.5t-19 -9t-11.5 -9.5q-19 -21 -19 -105q0 -9 -0.5 -70t-1 -153t-0.5 -178h504q-2 182 -2 416q0 76 -16 94q-8 8 -20.5 15t-22.5 10.5t-37 11.5t-43 14q-27 9 -27 41 q0 19 10 29t25 10q4 0 116.5 -3t180.5 -3q53 0 130 1.5t134.5 3t63.5 1.5q32 0 32 -39q0 -32 -28 -41q-22 -8 -47 -16t-37 -12t-25 -8.5t-19.5 -9t-11.5 -9.5q-18 -20 -18 -105zM1087 1589q0 -15 -11 -27t-27 -12q-7 0 -37 13q-47 25 -135 71.5t-113 59.5 q-125 -63 -248 -131q-22 -13 -35 -13q-17 0 -27 12.5t-10 26.5q0 12 15 27q16 15 258 235q32 29 53 29q26 0 51 -25q134 -128 254 -237q12 -12 12 -29z" glyph-name="Hcircumflex" horiz-adv-x="1579" unicode="Ĥ"/><glyph d="M471 911q241 164 365 164t196 -96q40 -55 55 -172.5t15 -331.5q0 -19 -2 -119.5t-2 -132.5q0 -74 24 -98q15 -15 90 -49q33 -12 33 -41q0 -22 -9 -29.5t-28 -7.5q-4 0 -37 1.5t-87 3t-109 1.5q-56 0 -160 -3t-110 -3q-37 0 -37 35q0 34 24 43q77 30 92 45q21 21 21 100 q0 317 -12 440.5t-39 165.5q-38 50 -111 50q-88 0 -170 -35q-8 -272 -8 -619q0 -74 24 -98q14 -14 91 -49q32 -12 32 -41q0 -22 -9 -29.5t-28 -7.5q-4 0 -39 1.5t-91 3t-111 1.5q-57 0 -157 -3t-105 -3q-37 0 -37 35q0 34 24 43q75 27 93 45q20 20 20 100q0 576 -8 977 q-2 108 -31 141q-32 35 -86 54q-24 9 -24 34q0 27 26 41q111 64 227.5 111t155.5 47q45 0 45 -45q0 -242 -6 -670zM633 1673q0 -14 -11.5 -26.5t-27.5 -12.5q-7 0 -37 13q-47 25 -135 71.5t-113 59.5q-126 -63 -248 -131q-22 -13 -34 -13q-17 0 -27 12.5t-10 26.5 q0 13 14 27q16 15 258 235q32 29 53 29q27 0 52 -25q134 -128 254 -237q12 -12 12 -29z" glyph-name="hcircumflex" horiz-adv-x="1255" unicode="ĥ"/><glyph d="M1362 1208v-71h151q35 0 35 -29v-61q0 -27 -37 -27h-149q0 -133 -2 -427.5t-2 -356.5q0 -85 18 -105q4 -4 10 -8.5t12.5 -7.5t20 -8t24.5 -8.5t33 -11t40 -13.5q28 -9 28 -39q0 -37 -33 -37q-5 0 -61 1.5t-132.5 3t-129.5 1.5q-68 0 -177 -3t-112 -3q-35 0 -35 37 q0 30 27 39q8 2 22.5 7t20 6.5t16 5t15 5.5t12 5t11.5 5t9.5 5.5t9 6.5t7.5 7q16 16 16 96q0 39 -1 155.5t-2 217.5t-1 102h-506q0 -4 -0.5 -88.5t-1 -195.5t-0.5 -178q0 -84 19 -105q3 -4 7.5 -7t11.5 -6.5t13.5 -6.5t19 -7.5t23 -8t29.5 -10t35 -11.5q29 -10 29 -39 q0 -37 -33 -37q-5 0 -61.5 1.5t-133 3t-129.5 1.5q-68 0 -177 -3t-112 -3q-34 0 -34 37q0 30 26 39q8 2 22.5 7t20 6.5t16 5t15 5.5t12 5t11.5 5t9.5 5.5t9 6.5t7.5 7q16 16 16 96q0 57 -4 355.5t-4 441.5h-137q-22 0 -29.5 9t-7.5 28v53q0 27 29 27h145v86q0 76 -16 94 q-8 8 -20.5 15t-22.5 10.5t-37 11.5t-43 14q-27 9 -27 41q0 19 10 29t25 10q4 0 116.5 -3t180.5 -3q53 0 130 1.5t134.5 3t63.5 1.5q33 0 33 -39q0 -31 -29 -41q-22 -7 -47 -15.5t-37 -12.5t-24.5 -8.5t-19 -9t-11.5 -9.5q-19 -21 -19 -105v-71h500v86q0 76 -16 94 q-8 8 -20.5 15t-22.5 10.5t-37 11.5t-43 14q-27 9 -27 41q0 19 10 29t25 10q4 0 116.5 -3t180.5 -3q53 0 130 1.5t134.5 3t63.5 1.5q32 0 32 -39q0 -32 -28 -41q-22 -8 -47 -16t-37 -12t-25 -8.5t-19.5 -9t-11.5 -9.5q-18 -20 -18 -105zM520 1020v-213h504v213h-504z" glyph-name="Hbar" horiz-adv-x="1579" unicode="Ħ"/><glyph d="M471 911q241 164 365 164t196 -96q40 -55 55 -172.5t15 -331.5q0 -19 -2 -119.5t-2 -132.5q0 -74 24 -98q15 -15 90 -49q33 -12 33 -41q0 -22 -9 -29.5t-28 -7.5q-4 0 -37 1.5t-87 3t-109 1.5q-56 0 -160 -3t-110 -3q-37 0 -37 35q0 34 24 43q77 30 92 45q21 21 21 100 q0 317 -12 440.5t-39 165.5q-38 50 -111 50q-88 0 -170 -35q-8 -272 -8 -619q0 -74 24 -98q14 -14 91 -49q32 -12 32 -41q0 -22 -9 -29.5t-28 -7.5q-4 0 -39 1.5t-91 3t-111 1.5q-57 0 -157 -3t-105 -3q-37 0 -37 35q0 34 24 43q75 27 93 45q20 20 20 100q0 43 -4 408 t-4 540h-129q-31 0 -31 25v53q0 27 31 27h123q-4 29 -25 65q-32 35 -86 54q-24 9 -24 34q0 27 26 41q111 64 227.5 111t155.5 47q45 0 45 -45q0 -135 -2 -307h223q31 0 31 -27v-53q0 -16 -7.5 -20.5t-23.5 -4.5h-223q-4 -148 -4 -258z" glyph-name="hbar" horiz-adv-x="1255" unicode="ħ"/><glyph d="M522 1208q0 -18 -2 -437t-2 -535q0 -84 19 -105q3 -4 7.5 -7t11.5 -6.5t13.5 -6.5t19 -7.5t23 -8t29.5 -10t35 -11.5q29 -10 29 -39q0 -37 -33 -37q-5 0 -61.5 1.5t-133 3t-129.5 1.5q-68 0 -177 -3t-112 -3q-34 0 -34 37q0 30 26 39q8 2 22.5 7t20 6.5t16 5t15 5.5t12 5 t11.5 5t9.5 5.5t9 6.5t7.5 7q16 16 16 96q0 104 -4 517.5t-4 482.5q0 76 -16 94q-8 8 -20.5 15t-22.5 10.5t-37 11.5t-43 14q-27 9 -27 41q0 19 10 29t25 10q4 0 116.5 -3t180.5 -3q53 0 130 1.5t134.5 3t63.5 1.5q33 0 33 -39q0 -31 -29 -41q-22 -7 -47 -15.5t-37 -12.5 t-24.5 -8.5t-19 -9t-11.5 -9.5q-19 -21 -19 -105zM324 1812l139 -36q58 -15 80 -15q30 0 44.5 9.5t37.5 44.5q13 22 32 22q25 0 25 -25q0 -14 -6 -32q-33 -105 -64.5 -145t-85.5 -40q-22 0 -104 21l-123 33q-61 16 -96 16q-32 0 -49.5 -10.5t-40.5 -52.5q-13 -19 -31 -19 q-9 0 -18 6.5t-9 18.5q0 17 8 30q41 108 76.5 149.5t85.5 41.5q34 0 99 -17z" glyph-name="Itilde" horiz-adv-x="739" unicode="Ĩ"/><glyph d="M477 223q0 -73 25 -98q15 -15 90 -49q33 -12 33 -41q0 -22 -9 -29.5t-28 -7.5q-4 0 -39 1.5t-91.5 3t-111.5 1.5q-57 0 -157 -3t-105 -3q-37 0 -37 35q0 34 25 43q73 26 92 45q20 20 20 100q0 317 -4 418q-3 119 -24 154q-10 16 -24.5 26.5t-61.5 36.5q-23 13 -23 33 q0 23 25 39q43 29 179.5 87t176.5 58q57 0 57 -61q0 -252 -8 -789zM297 1440l98 -31q62 -16 80 -16q29 0 45.5 12.5t40.5 50.5q12 21 33 21q24 0 24 -27q0 -13 -6 -31q-33 -106 -64.5 -149t-80.5 -43q-38 0 -113 24l-82 25q-63 20 -96 20q-31 0 -49.5 -12t-42.5 -51 q-15 -21 -31 -21q-9 0 -18.5 6.5t-9.5 18.5q0 18 8 31q44 107 82 149.5t88 42.5q41 0 94 -20z" glyph-name="itilde" horiz-adv-x="645" unicode="ĩ"/><glyph d="M522 1208q0 -18 -2 -437t-2 -535q0 -84 19 -105q3 -4 7.5 -7t11.5 -6.5t13.5 -6.5t19 -7.5t23 -8t29.5 -10t35 -11.5q29 -10 29 -39q0 -37 -33 -37q-5 0 -61.5 1.5t-133 3t-129.5 1.5q-68 0 -177 -3t-112 -3q-34 0 -34 37q0 30 26 39q8 2 22.5 7t20 6.5t16 5t15 5.5t12 5 t11.5 5t9.5 5.5t9 6.5t7.5 7q16 16 16 96q0 104 -4 517.5t-4 482.5q0 76 -16 94q-8 8 -20.5 15t-22.5 10.5t-37 11.5t-43 14q-27 9 -27 41q0 19 10 29t25 10q4 0 116.5 -3t180.5 -3q53 0 130 1.5t134.5 3t63.5 1.5q33 0 33 -39q0 -31 -29 -41q-22 -7 -47 -15.5t-37 -12.5 t-24.5 -8.5t-19 -9t-11.5 -9.5q-19 -21 -19 -105zM68 1649v114q0 27 30 27h545q31 0 31 -27v-114q0 -16 -7.5 -20.5t-23.5 -4.5h-545q-30 0 -30 25z" glyph-name="Imacron" horiz-adv-x="739" unicode="Ī"/><glyph d="M477 223q0 -73 25 -98q15 -15 90 -49q33 -12 33 -41q0 -22 -9 -29.5t-28 -7.5q-4 0 -39 1.5t-91.5 3t-111.5 1.5q-57 0 -157 -3t-105 -3q-37 0 -37 35q0 34 25 43q73 26 92 45q20 20 20 100q0 317 -4 418q-3 119 -24 154q-10 16 -24.5 26.5t-61.5 36.5q-23 13 -23 33 q0 23 25 39q43 29 179.5 87t176.5 58q57 0 57 -61q0 -252 -8 -789zM59 1260v120q0 27 31 27h465q31 0 31 -27v-120q0 -16 -7.5 -20.5t-23.5 -4.5h-465q-31 0 -31 25z" glyph-name="imacron" horiz-adv-x="645" unicode="ī"/><glyph d="M522 1208q0 -18 -2 -437t-2 -535q0 -84 19 -105q3 -4 7.5 -7t11.5 -6.5t13.5 -6.5t19 -7.5t23 -8t29.5 -10t35 -11.5q29 -10 29 -39q0 -37 -33 -37q-5 0 -61.5 1.5t-133 3t-129.5 1.5q-68 0 -177 -3t-112 -3q-34 0 -34 37q0 30 26 39q8 2 22.5 7t20 6.5t16 5t15 5.5t12 5 t11.5 5t9.5 5.5t9 6.5t7.5 7q16 16 16 96q0 104 -4 517.5t-4 482.5q0 76 -16 94q-8 8 -20.5 15t-22.5 10.5t-37 11.5t-43 14q-27 9 -27 41q0 19 10 29t25 10q4 0 116.5 -3t180.5 -3q53 0 130 1.5t134.5 3t63.5 1.5q33 0 33 -39q0 -31 -29 -41q-22 -7 -47 -15.5t-37 -12.5 t-24.5 -8.5t-19 -9t-11.5 -9.5q-19 -21 -19 -105zM616 1862q18 0 27.5 -12.5t9.5 -30.5q0 -95 -82 -171.5t-215 -76.5t-213 69t-80 179q0 45 46 45q11 0 19.5 -4.5t11.5 -8.5t8 -13l4 -9q34 -60 83.5 -85.5t120.5 -25.5q85 0 135.5 23.5t75.5 81.5q17 39 49 39z" glyph-name="Ibreve" horiz-adv-x="739" unicode="Ĭ"/><glyph d="M477 223q0 -73 25 -98q15 -15 90 -49q33 -12 33 -41q0 -22 -9 -29.5t-28 -7.5q-4 0 -39 1.5t-91.5 3t-111.5 1.5q-57 0 -157 -3t-105 -3q-37 0 -37 35q0 34 25 43q73 26 92 45q20 20 20 100q0 317 -4 418q-3 119 -24 154q-10 16 -24.5 26.5t-61.5 36.5q-23 13 -23 33 q0 23 25 39q43 29 179.5 87t176.5 58q57 0 57 -61q0 -252 -8 -789zM553 1493q37 0 37 -35q0 -118 -78 -198t-195 -80q-120 0 -192 65t-72 209q0 39 39 39q12 0 21 -5.5t11.5 -10.5t6.5 -15q25 -70 69.5 -98.5t114.5 -28.5q79 0 121.5 27.5t77.5 101.5q14 29 39 29z" glyph-name="ibreve" horiz-adv-x="645" unicode="ĭ"/><glyph d="M522 1208q0 -18 -2 -437t-2 -535q0 -84 19 -105q3 -4 7.5 -7t11.5 -6.5t13.5 -6.5t19 -7.5t23 -8t29.5 -10t35 -11.5q29 -10 29 -39q0 -37 -33 -37q-11 0 -207 4q-69 -72 -106 -136.5t-37 -144.5q0 -58 33 -90t79 -32q68 0 103 18q17 10 30 10q11 0 19 -9.5t8 -20.5 q0 -14 -25 -39q-45 -42 -103 -69.5t-114 -27.5q-111 0 -168 55t-57 140q0 178 231 348h-10q-68 0 -177 -3t-112 -3q-34 0 -34 37q0 30 26 39q8 2 22.5 7t20 6.5t16 5t15 5.5t12 5t11.5 5t9.5 5.5t9 6.5t7.5 7q16 16 16 96q0 104 -4 517.5t-4 482.5q0 76 -16 94 q-8 8 -20.5 15t-22.5 10.5t-37 11.5t-43 14q-27 9 -27 41q0 19 10 29t25 10q4 0 116.5 -3t180.5 -3q53 0 130 1.5t134.5 3t63.5 1.5q33 0 33 -39q0 -31 -29 -41q-22 -7 -47 -15.5t-37 -12.5t-24.5 -8.5t-19 -9t-11.5 -9.5q-19 -21 -19 -105z" glyph-name="Iogonek" horiz-adv-x="739" unicode="Į"/><glyph d="M477 223q0 -73 25 -98q15 -15 90 -49q33 -12 33 -41q0 -22 -9 -29.5t-28 -7.5q-5 0 -27 1t-59.5 2.5t-73.5 2.5q-68 -74 -103.5 -135t-35.5 -139q0 -57 31.5 -88t76.5 -31q61 0 101 18q15 9 28 9q12 0 19.5 -9t7.5 -20q0 -14 -25 -39q-41 -40 -97.5 -66t-113.5 -26 q-106 0 -161.5 53t-55.5 135q0 94 59.5 175t164.5 163q-54 0 -144.5 -3t-95.5 -3q-37 0 -37 35q0 34 25 43q73 26 92 45q20 20 20 100q0 317 -4 418q-1 31 -2 52t-4.5 40t-4.5 30.5t-8 23.5t-9.5 16.5t-14.5 13.5t-17 12t-23 13.5t-27 15.5q-23 13 -23 33q0 23 25 39 q43 29 179.5 87t176.5 58q57 0 57 -61q0 -12 -4 -324t-4 -465zM485 1358q0 -72 -45.5 -118t-117.5 -46q-73 0 -121.5 46.5t-48.5 117.5q0 75 49.5 120.5t120.5 45.5q70 0 116.5 -46t46.5 -120z" glyph-name="iogonek" horiz-adv-x="645" unicode="į"/><glyph d="M522 1208q0 -18 -2 -437t-2 -535q0 -84 19 -105q3 -4 7.5 -7t11.5 -6.5t13.5 -6.5t19 -7.5t23 -8t29.5 -10t35 -11.5q29 -10 29 -39q0 -37 -33 -37q-5 0 -61.5 1.5t-133 3t-129.5 1.5q-68 0 -177 -3t-112 -3q-34 0 -34 37q0 30 26 39q8 2 22.5 7t20 6.5t16 5t15 5.5t12 5 t11.5 5t9.5 5.5t9 6.5t7.5 7q16 16 16 96q0 104 -4 517.5t-4 482.5q0 76 -16 94q-8 8 -20.5 15t-22.5 10.5t-37 11.5t-43 14q-27 9 -27 41q0 19 10 29t25 10q4 0 116.5 -3t180.5 -3q53 0 130 1.5t134.5 3t63.5 1.5q33 0 33 -39q0 -31 -29 -41q-22 -7 -47 -15.5t-37 -12.5 t-24.5 -8.5t-19 -9t-11.5 -9.5q-19 -21 -19 -105zM354 1585q-52 0 -89.5 36.5t-37.5 90.5t37.5 89.5t91.5 35.5t89.5 -35.5t35.5 -89.5t-36.5 -90.5t-90.5 -36.5z" glyph-name="Idotaccent" horiz-adv-x="739" unicode="İ"/><glyph d="M477 223q0 -73 25 -98q15 -15 90 -49q33 -12 33 -41q0 -22 -9 -29.5t-28 -7.5q-4 0 -39 1.5t-91.5 3t-111.5 1.5q-57 0 -157 -3t-105 -3q-37 0 -37 35q0 34 25 43q73 26 92 45q20 20 20 100q0 317 -4 418q-3 119 -24 154q-10 16 -24.5 26.5t-61.5 36.5q-23 13 -23 33 q0 23 25 39q43 29 179.5 87t176.5 58q57 0 57 -61q0 -252 -8 -789z" glyph-name="dotlessi" horiz-adv-x="645" unicode="ı"/><glyph d="M522 1208q0 -18 -2 -437t-2 -535q0 -84 19 -105q3 -4 7.5 -7t11.5 -6.5t13.5 -6.5t19 -7.5t23 -8t29.5 -10t35 -11.5q29 -10 29 -39q0 -37 -33 -37q-5 0 -61.5 1.5t-133 3t-129.5 1.5q-68 0 -177 -3t-112 -3q-34 0 -34 37q0 30 26 39q8 2 22.5 7t20 6.5t16 5t15 5.5t12 5 t11.5 5t9.5 5.5t9 6.5t7.5 7q16 16 16 96q0 104 -4 517.5t-4 482.5q0 76 -16 94q-8 8 -20.5 15t-22.5 10.5t-37 11.5t-43 14q-27 9 -27 41q0 19 10 29t25 10q4 0 116.5 -3t180.5 -3q53 0 130 1.5t134.5 3t63.5 1.5q33 0 33 -39q0 -31 -29 -41q-22 -7 -47 -15.5t-37 -12.5 t-24.5 -8.5t-19 -9t-11.5 -9.5q-19 -21 -19 -105zM961 150q0 109 -4.5 559.5t-4.5 492.5q0 87 -20 107q-7 7 -17 12.5t-25.5 11.5t-28.5 10.5t-36.5 12t-38.5 12.5q-26 9 -26 41q0 19 10 29t25 10q4 0 129.5 -3t193.5 -3q53 0 123.5 1.5t121 3t56.5 1.5q33 0 33 -39 q0 -31 -29 -41q-89 -28 -112 -51q-19 -19 -19 -109q0 -20 1 -436.5t1 -533.5q0 -148 -45.5 -266.5t-120.5 -190.5t-166 -110t-188 -38q-45 0 -94 9q-36 6 -45 41q-7 26 -14 83t-7 82q0 43 41 43q33 0 54 -36q25 -43 65 -82q25 -25 66 -25q27 0 46 14t37.5 54t28 123.5 t9.5 210.5z" glyph-name="IJ" horiz-adv-x="1488" unicode="Ĳ"/><glyph d="M485 1358q0 -72 -45.5 -118t-117.5 -46q-73 0 -121.5 46.5t-48.5 117.5q0 75 49.5 120.5t120.5 45.5q70 0 116.5 -46t46.5 -120zM477 223q0 -73 25 -98q15 -15 90 -49q33 -12 33 -41q0 -22 -9 -29.5t-28 -7.5q-4 0 -39 1.5t-91.5 3t-111.5 1.5q-57 0 -157 -3t-105 -3 q-37 0 -37 35q0 34 25 43q73 26 92 45q20 20 20 100q0 317 -4 418q-3 119 -24 154q-10 16 -24.5 26.5t-61.5 36.5q-23 13 -23 33q0 23 25 39q43 29 179.5 87t176.5 58q57 0 57 -61q0 -252 -8 -789zM817 14q0 526 -4 627q-2 115 -25 152q-9 14 -25.5 26t-49.5 31q-2 1 -3.5 2 t-3.5 2l-4 2q-22 13 -22 33q0 23 25 39q43 30 181 87.5t179 57.5q57 0 57 -61q0 -18 -3 -349.5t-3 -459.5q0 -176 -28.5 -298t-100.5 -231q-58 -88 -153 -148.5t-199 -60.5q-51 0 -100 11q-48 9 -54 47q-10 78 -10 164q0 49 47 49q16 0 27.5 -8.5t25.5 -30.5q8 -11 18 -24.5 t15.5 -20.5t12 -16t10 -13t8 -9t8 -8t6.5 -5q21 -15 47 -15q43 0 68.5 36t39 130.5t13.5 261.5zM1118 1358q0 -72 -46 -118t-118 -46q-73 0 -121.5 46.5t-48.5 117.5q0 75 49.5 120.5t120.5 45.5q70 0 117 -46t47 -120z" glyph-name="ij" horiz-adv-x="1259" unicode="ĳ"/><glyph d="M221 150q0 109 -4 559.5t-4 492.5q0 87 -20 107q-7 7 -17 12.5t-25.5 11.5t-28.5 10.5t-36.5 12t-38.5 12.5q-27 9 -27 41q0 19 10 29t25 10q4 0 130 -3t194 -3q53 0 123.5 1.5t121 3t56.5 1.5q33 0 33 -39q0 -31 -29 -41q-90 -28 -113 -51q-11 -11 -14.5 -32.5 t-3.5 -76.5q0 -20 1 -436.5t1 -533.5q0 -148 -45.5 -266.5t-120.5 -190.5t-166 -110t-188 -38q-45 0 -94 9q-36 6 -45 41q-7 26 -14 83t-7 82q0 43 41 43q32 0 53 -36q9 -16 17.5 -28t16 -21t12.5 -13.5t11.5 -11l8.5 -8.5q25 -25 65 -25q27 0 46 14t37.5 54t28 123.5 t9.5 210.5zM684 1589q0 -14 -11.5 -26.5t-27.5 -12.5q-7 0 -37 13q-47 25 -135 71.5t-113 59.5q-116 -58 -247 -131q-22 -13 -35 -13q-17 0 -27 12.5t-10 26.5q0 13 14 27q16 15 258 235q32 29 54 29q26 0 51 -25q134 -128 254 -237q12 -12 12 -29z" glyph-name="Jcircumflex" horiz-adv-x="749" unicode="Ĵ"/><glyph d="M172 14q0 524 -4 625q-2 100 -31 147q-25 40 -80 70q-22 13 -22 33q0 24 24 39q43 30 181.5 87.5t179.5 57.5q57 0 57 -61q0 -18 -3 -349.5t-3 -459.5q0 -176 -28.5 -298t-100.5 -231q-58 -88 -153 -148.5t-199 -60.5q-51 0 -101 11q-47 9 -53 47q-10 78 -10 164 q0 49 47 49q16 0 27.5 -8.5t25.5 -30.5q8 -11 18 -24.5t15.5 -20.5t12 -16t10 -13t8 -9t8 -8t6.5 -5q21 -15 47 -15q43 0 68.5 36t39 130.5t13.5 261.5zM561 1200q0 -11 -11 -20t-22 -9q-12 0 -36 17l-195 151l-197 -153q-15 -15 -30 -15q-12 0 -22.5 9t-10.5 20q0 10 10 27 q133 201 211 325q16 29 43 29q23 0 41 -27q36 -58 105.5 -166t105.5 -165q8 -13 8 -23z" glyph-name="jcircumflex" horiz-adv-x="614" unicode="ĵ"/><glyph d="M522 1208q0 -44 -2 -463t-2 -509q0 -84 19 -105q3 -4 7.5 -7t11.5 -6.5t13.5 -6.5t19 -7.5t23 -8t29.5 -10t35 -11.5q29 -10 29 -39q0 -37 -33 -37q-5 0 -61.5 1.5t-133 3t-129.5 1.5q-68 0 -177 -3t-112 -3q-34 0 -34 37q0 30 26 39q8 2 22.5 7t20 6.5t16 5t15 5.5t12 5 t11.5 5t9.5 5.5t9 6.5t7.5 7q16 16 16 96q0 104 -4 517.5t-4 482.5q0 76 -16 94q-8 8 -20.5 15t-22.5 10.5t-37 11.5t-43 14q-27 9 -27 41q0 19 10 29t25 10q4 0 116.5 -3t180.5 -3q53 0 130 1.5t134.5 3t63.5 1.5q33 0 33 -39q0 -31 -29 -41q-22 -7 -47 -15.5t-37 -12.5 t-24.5 -8.5t-19 -9t-11.5 -9.5q-19 -21 -19 -105zM883 870q279 -407 452 -639q57 -76 99 -102q44 -29 96 -49q14 -5 20 -8t10.5 -11.5t4.5 -23.5q0 -37 -39 -37q-6 0 -64 1t-110 1q-7 0 -104 -2t-111 -2q-22 0 -31.5 0.5t-24.5 5.5t-26 16q-9 9 -45 70q-22 34 -63.5 94.5 t-67.5 102.5q-149 222 -211 307q-19 31 -58 70q-10 10 -28.5 24.5t-26.5 24.5t-8 24q0 17 11.5 29t37.5 25q67 35 111 75q146 131 270 289q72 91 72 150q0 22 -23.5 37t-85.5 26q-31 6 -31 37q0 43 33 43q8 0 94.5 -3t132.5 -3q43 0 101 1.5t101 3t48 1.5q33 0 33 -41 q0 -30 -33 -39q-90 -23 -145 -78q-158 -165 -391 -420zM936 -305q0 -95 -63.5 -177.5t-170.5 -138.5q-48 -26 -73 -26q-16 0 -25.5 13t-9.5 26q0 18 24 33q46 27 75.5 52t40.5 47t13.5 34.5t2.5 29.5q0 15 -13 34t-35 30q-32 19 -46.5 41t-14.5 61q0 45 37.5 80t95.5 35 q76 0 119 -45t43 -129z" glyph-name="uni0136" horiz-adv-x="1531" unicode="Ķ"/><glyph d="M817 -305q0 -95 -63 -177.5t-170 -138.5q-48 -26 -74 -26q-16 0 -25.5 13t-9.5 26q0 17 25 33q46 27 75 52t40 47t13.5 34t2.5 30q0 15 -12.5 34t-34.5 30q-32 19 -47 41t-15 61q0 45 37.5 80t95.5 35q76 0 119 -45t43 -129zM471 1219q-8 -388 -8 -996q0 -74 24 -98 q14 -14 91 -49q32 -12 32 -41q0 -22 -9 -29.5t-28 -7.5q-4 0 -39 1.5t-91 3t-111 1.5q-58 0 -156 -3t-104 -3q-37 0 -37 35q0 34 24 43q75 27 93 45q20 20 20 100q0 576 -8 977q-2 108 -31 141q-32 35 -86 54q-24 9 -24 34q0 27 26 41q117 63 229 110.5t148 47.5 q49 0 49 -45q0 -7 -0.5 -53t-1.5 -135.5t-2 -173.5zM766 631q64 -99 165 -231t159 -199q54 -63 79 -80q16 -14 74 -29q22 -6 29.5 -16t7.5 -29q0 -34 -37 -37q-105 -16 -291 -16q-35 0 -58 11t-48 40q-89 107 -281 379q-35 49 -51 65q-2 3 -7 9t-7 8.5t-5 7t-4.5 7.5t-3 7 t-2 8t-0.5 9q0 27 29 43q8 6 19.5 13t26 15t22.5 13q71 53 178 166q39 45 52 67.5t13 42.5t-18 31t-76 31q-31 12 -31 39q0 21 11.5 31t25.5 10q8 0 90 -3.5t127 -3.5q53 0 101 2t76.5 3.5t35.5 1.5q35 0 35 -39q0 -19 -11.5 -30t-40.5 -24t-38 -18q-22 -12 -51 -33 q-38 -27 -88.5 -72.5t-89 -83t-117.5 -116.5z" glyph-name="uni0137" horiz-adv-x="1271" unicode="ķ"/><glyph d="M479 993q0 -123 -2 -369t-2 -401q0 -73 25 -98q15 -15 90 -49q33 -12 33 -41q0 -22 -9 -29.5t-28 -7.5q-4 0 -39 1.5t-91.5 3t-111.5 1.5q-58 0 -156 -3t-104 -3q-37 0 -37 35q0 34 25 43q73 26 92 45q20 20 20 100q0 353 -4 418q-8 128 -24 154q-33 38 -86 63 q-23 13 -23 35t27 37q115 61 216.5 103t135.5 42q53 0 53 -80zM770 639q68 -105 168.5 -241t153.5 -197q54 -63 79 -80q16 -14 74 -29q22 -6 29.5 -16t7.5 -29q0 -34 -37 -37q-105 -16 -291 -16q-35 0 -58 11t-48 40q-23 28 -49.5 62.5t-58.5 79.5t-53 74.5t-59.5 86 t-52.5 76.5q-35 49 -51 65q-2 2 -5.5 7t-5 7t-4.5 5.5t-4 5.5t-3 5.5t-3 6t-1.5 6t-1 6.5t-0.5 7q0 27 28 43q8 6 19.5 13t26 15t22.5 13q71 53 178 166q40 46 53 68t13 42q0 19 -18.5 30.5t-76.5 31.5q-30 11 -30 39q0 21 11.5 31t25.5 10q7 0 88.5 -3.5t126.5 -3.5 q53 0 97.5 2t70 3.5t32.5 1.5q35 0 35 -39q0 -19 -11.5 -30t-40.5 -24t-38 -18q-22 -12 -51 -33q-17 -12 -33.5 -25t-37.5 -32t-35.5 -32t-42 -39.5t-40.5 -39t-48.5 -47.5t-49.5 -49z" glyph-name="kgreenlandic" horiz-adv-x="1271" unicode="ĸ"/><glyph d="M522 1221q0 -24 -1.5 -166.5t-3 -352.5t-1.5 -397q0 -68 6 -99.5t27 -47.5q32 -24 88 -30.5t154 -6.5q152 0 194 31q11 6 19 14.5t18 26t18.5 35.5t27.5 57t38 75q9 15 13.5 21t14.5 11t25 5q49 0 49 -47q0 -55 -14 -323q-3 -29 -27 -29q-97 0 -293.5 1.5t-356.5 3 t-169 1.5q-68 0 -177 -3t-112 -3q-34 0 -34 37q0 30 26 39q8 2 22.5 7t20 6.5t16 5t15 5.5t12 5t11.5 5t9.5 5.5t9 6.5t7.5 7q16 16 16 96q0 104 -4 517.5t-4 482.5q0 76 -16 94q-8 8 -20.5 15t-22.5 10.5t-37 11.5t-43 14q-27 9 -27 41q0 19 10 29t25 10q4 0 116.5 -3 t180.5 -3q53 0 130 1.5t134.5 3t63.5 1.5q33 0 33 -39q0 -31 -29 -41q-22 -7 -47 -15.5t-37 -12.5t-24.5 -8.5t-19 -9t-11.5 -9.5q-19 -21 -19 -92zM637 1757q-155 -89 -305 -170q-31 -16 -49 -16q-39 0 -39 35q0 19 22 41q105 105 213 225q29 29 45.5 38t40.5 9 q32 0 92 -31q5 -4 15.5 -10t14 -8.5t9.5 -7.5t7.5 -9t3.5 -10t2 -14q0 -19 -14.5 -33t-57.5 -39z" glyph-name="Lacute" horiz-adv-x="1247" unicode="Ĺ"/><glyph d="M477 1581q0 -5 -3 -243t-6 -565.5t-3 -549.5q0 -74 24 -98q14 -14 91 -49q32 -12 32 -41q0 -22 -9 -29.5t-28 -7.5q-4 0 -39 1.5t-91 3t-111 1.5q-57 0 -157 -3t-105 -3q-37 0 -37 35q0 34 24 43q75 27 93 45q20 20 20 100q0 576 -8 977q-2 108 -31 141q-32 35 -86 54 q-24 9 -24 34q0 27 26 41q111 63 228 110.5t155 47.5q45 0 45 -45zM506 1839q-155 -89 -305 -170q-31 -16 -49 -16q-39 0 -39 35q0 19 22 41q105 105 213 225q29 29 45.5 38t40.5 9q32 0 92 -31q5 -4 15.5 -10t14 -8.5t9.5 -7.5t7.5 -9t3.5 -10t2 -14q0 -19 -14.5 -33 t-57.5 -39z" glyph-name="lacute" horiz-adv-x="632" unicode="ĺ"/><glyph d="M522 1221q0 -24 -1.5 -166.5t-3 -352.5t-1.5 -397q0 -68 6 -99.5t27 -47.5q32 -24 88 -30.5t154 -6.5q152 0 194 31q11 6 19 14.5t18 26t18.5 35.5t27.5 57t38 75q9 15 13.5 21t14.5 11t25 5q49 0 49 -47q0 -55 -14 -323q-3 -29 -27 -29q-97 0 -293.5 1.5t-356.5 3 t-169 1.5q-68 0 -177 -3t-112 -3q-34 0 -34 37q0 30 26 39q8 2 22.5 7t20 6.5t16 5t15 5.5t12 5t11.5 5t9.5 5.5t9 6.5t7.5 7q16 16 16 96q0 104 -4 517.5t-4 482.5q0 76 -16 94q-8 8 -20.5 15t-22.5 10.5t-37 11.5t-43 14q-27 9 -27 41q0 19 10 29t25 10q4 0 116.5 -3 t180.5 -3q53 0 130 1.5t134.5 3t63.5 1.5q33 0 33 -39q0 -31 -29 -41q-22 -7 -47 -15.5t-37 -12.5t-24.5 -8.5t-19 -9t-11.5 -9.5q-19 -21 -19 -92zM795 -305q0 -95 -63.5 -177.5t-170.5 -138.5q-48 -26 -74 -26q-16 0 -25 13t-9 26q0 18 24 33q46 27 75 52t40 47t13.5 34 t2.5 30q0 15 -12.5 34t-34.5 30q-32 19 -46.5 41t-14.5 61q0 45 37.5 80t95.5 35q76 0 119 -45t43 -129z" glyph-name="uni013B" horiz-adv-x="1247" unicode="Ļ"/><glyph d="M477 1581q0 -5 -3 -243t-6 -565.5t-3 -549.5q0 -74 24 -98q14 -14 91 -49q32 -12 32 -41q0 -22 -9 -29.5t-28 -7.5q-4 0 -39 1.5t-91 3t-111 1.5q-57 0 -157 -3t-105 -3q-37 0 -37 35q0 34 24 43q75 27 93 45q20 20 20 100q0 576 -8 977q-2 108 -31 141q-32 35 -86 54 q-24 9 -24 34q0 27 26 41q111 63 228 110.5t155 47.5q45 0 45 -45zM487 -305q0 -95 -63 -177.5t-170 -138.5q-48 -26 -74 -26q-16 0 -25.5 13t-9.5 26q0 17 25 33q46 27 75 52t40 47t13.5 34t2.5 30q0 15 -12.5 34t-34.5 30q-32 19 -46.5 41t-14.5 61q0 45 37.5 80t95.5 35 q76 0 118.5 -45t42.5 -129z" glyph-name="uni013C" horiz-adv-x="632" unicode="ļ"/><glyph d="M522 1221q0 -24 -1.5 -166.5t-3 -352.5t-1.5 -397q0 -68 6 -99.5t27 -47.5q32 -24 88 -30.5t154 -6.5q152 0 194 31q11 6 19 14.5t18 26t18.5 35.5t27.5 57t38 75q9 15 13.5 21t14.5 11t25 5q49 0 49 -47q0 -55 -14 -323q-3 -29 -27 -29q-97 0 -293.5 1.5t-356.5 3 t-169 1.5q-68 0 -177 -3t-112 -3q-34 0 -34 37q0 30 26 39q8 2 22.5 7t20 6.5t16 5t15 5.5t12 5t11.5 5t9.5 5.5t9 6.5t7.5 7q16 16 16 96q0 104 -4 517.5t-4 482.5q0 76 -16 94q-8 8 -20.5 15t-22.5 10.5t-37 11.5t-43 14q-27 9 -27 41q0 19 10 29t25 10q4 0 116.5 -3 t180.5 -3q53 0 130 1.5t134.5 3t63.5 1.5q33 0 33 -39q0 -31 -29 -41q-22 -7 -47 -15.5t-37 -12.5t-24.5 -8.5t-19 -9t-11.5 -9.5q-19 -21 -19 -92zM1157 1298q0 -97 -65.5 -183t-173.5 -142q-50 -27 -76 -27q-16 0 -25.5 13.5t-9.5 27.5q0 18 24 33q47 29 76.5 55t41 48 t14 34.5t2.5 30.5q0 15 -12.5 34.5t-34.5 30.5q-32 19 -48 42.5t-16 62.5q0 46 39 82.5t98 36.5q78 0 122 -46.5t44 -132.5z" glyph-name="Lcaron" horiz-adv-x="1247" unicode="Ľ"/><glyph d="M477 1581q0 -5 -3 -243t-6 -565.5t-3 -549.5q0 -74 24 -98q14 -14 91 -49q32 -12 32 -41q0 -22 -9 -29.5t-28 -7.5q-4 0 -39 1.5t-91 3t-111 1.5q-57 0 -157 -3t-105 -3q-37 0 -37 35q0 34 24 43q75 27 93 45q20 20 20 100q0 576 -8 977q-2 108 -31 141q-32 35 -86 54 q-24 9 -24 34q0 27 26 41q111 63 228 110.5t155 47.5q45 0 45 -45zM911 1454q0 -97 -65.5 -183.5t-173.5 -142.5q-48 -26 -76 -26q-16 0 -25.5 13.5t-9.5 27.5q0 17 25 33q47 29 76.5 54.5t40.5 47.5t13.5 34.5t2.5 30.5q0 15 -12.5 35t-34.5 31q-32 19 -48 42t-16 62 q0 46 39 82.5t98 36.5q79 0 122.5 -46t43.5 -132z" glyph-name="lcaron" horiz-adv-x="632" unicode="ľ"/><glyph d="M190 223q0 104 -4 517.5t-4 482.5q0 76 -16 94q-8 8 -20.5 15t-22.5 10.5t-37 11.5t-43 14q-27 9 -27 41q0 19 10 29t25 10q4 0 116.5 -3t180.5 -3q53 0 130 1.5t134.5 3t63.5 1.5q33 0 33 -39q0 -31 -29 -41q-22 -7 -47 -15.5t-37 -12.5t-24.5 -8.5t-19 -9t-11.5 -9.5 q-19 -21 -19 -92q0 -24 -1.5 -166.5t-3 -352.5t-1.5 -397q0 -68 6 -99.5t27 -47.5q32 -24 88 -30.5t154 -6.5q105 0 145.5 12.5t77.5 44.5q40 37 94 193q9 26 55 26q45 0 45 -32q0 -52 -14 -334q0 -29 -27 -29q-97 0 -293.5 0.5t-356.5 1t-169 0.5q-68 0 -177 -3t-112 -3 q-34 0 -34 37q0 30 26 39q8 2 22.5 7t20 6.5t16 5t15 5.5t12 5t11.5 5t9.5 5.5t9 6.5t7.5 7q16 16 16 96zM1120 752q0 -74 -46 -125.5t-122 -51.5q-83 0 -130.5 49t-47.5 124q0 71 47 121.5t123 50.5q77 0 126.5 -45.5t49.5 -122.5z" glyph-name="Ldot" horiz-adv-x="1247" unicode="Ŀ"/><glyph d="M477 1581q0 -5 -3 -243t-6 -565.5t-3 -549.5q0 -74 24 -98q14 -14 91 -49q32 -12 32 -41q0 -22 -9 -29.5t-28 -7.5q-4 0 -39 1.5t-91 3t-111 1.5q-57 0 -157 -3t-105 -3q-37 0 -37 35q0 34 24 43q75 27 93 45q20 20 20 100q0 576 -8 977q-2 108 -31 141q-32 35 -86 54 q-24 9 -24 34q0 27 26 41q111 63 228 110.5t155 47.5q45 0 45 -45zM909 788q0 -74 -44 -123t-117 -49q-80 0 -125 47t-45 121q0 69 45.5 118.5t117.5 49.5q73 0 120.5 -45t47.5 -119z" glyph-name="ldot" horiz-adv-x="851" unicode="ŀ"/><glyph d="M522 1221q0 -21 -0.5 -71.5t-1.5 -148.5t-2 -172l301 205q17 10 27 10q18 0 18 -20v-78q0 -16 -5 -23t-17 -16l-326 -221v-381q0 -68 6 -99.5t27 -47.5q32 -24 88 -30.5t154 -6.5q152 0 194 31q11 6 19 14.5t18 26t18.5 35.5t27.5 57t38 75q9 15 13.5 21t14.5 11t25 5 q49 0 49 -47q0 -55 -14 -323q-3 -29 -27 -29q-97 0 -293.5 1.5t-356.5 3t-169 1.5q-68 0 -177 -3t-112 -3q-34 0 -34 37q0 30 26 39q8 2 22.5 7t20 6.5t16 5t15 5.5t12 5t11.5 5t9.5 5.5t9 6.5t7.5 7q16 16 16 96q0 160 -2 260l-139 -94q-17 -10 -26 -10q-19 0 -19 20v78 q0 26 23 39l161 109q0 146 -3 359t-3 239q0 76 -16 94q-8 8 -20.5 15t-22.5 10.5t-37 11.5t-43 14q-27 9 -27 41q0 19 10 29t25 10q4 0 116.5 -3t180.5 -3q53 0 130 1.5t134.5 3t63.5 1.5q33 0 33 -39q0 -31 -29 -41q-22 -7 -47 -15.5t-37 -12.5t-24.5 -8.5t-19 -9 t-11.5 -9.5q-19 -21 -19 -92z" glyph-name="Lslash" horiz-adv-x="1247" unicode="Ł"/><glyph d="M477 1581q0 -2 -2 -98.5t-4 -254.5t-2 -308l84 53q17 10 27 10q18 0 18 -20v-62q0 -26 -23 -39l-108 -69q-2 -199 -2 -570q0 -74 24 -98q14 -14 91 -49q32 -12 32 -41q0 -22 -9 -29.5t-28 -7.5q-4 0 -39 1.5t-91 3t-111 1.5q-57 0 -157 -3t-105 -3q-37 0 -37 35 q0 34 24 43q75 27 93 45q20 20 20 100q0 17 -1 159.5t-1 242.5l-94 -60q-17 -10 -27 -10q-18 0 -18 20v62q0 26 22 39l115 74q0 188 -4 450q-2 108 -31 141q-32 35 -86 54q-24 9 -24 34q0 27 26 41q111 63 228 110.5t155 47.5q45 0 45 -45z" glyph-name="lslash" horiz-adv-x="622" unicode="ł"/><glyph d="M336 1130q8 -757 18 -909q3 -75 27 -94q32 -27 143 -51q29 -8 29 -41q0 -37 -35 -37q-2 0 -81 3t-148 3q-54 0 -106.5 -1.5t-85.5 -3t-40 -1.5q-39 0 -39 39q0 31 29 41q113 32 133 55q20 29 23 105q10 344 10 981q0 54 -23 77q-43 50 -157 72q-27 7 -27 41q0 19 12 29 t27 10q8 0 117 -2t157 -2q17 0 83.5 1t80.5 1q24 0 38 -9t32 -34q29 -40 100 -131.5t143.5 -183t203.5 -257t217 -274.5q-12 490 -19 647q-3 96 -31 113q-34 25 -141 49q-31 8 -31 43q0 19 10 29t25 10q2 0 84 -3t150 -3q54 0 105.5 1.5t83 3t38.5 1.5q33 0 33 -39 q0 -29 -29 -39q-66 -19 -94 -31.5t-39 -31.5q-16 -20 -19 -107q-8 -292 -8 -596q0 -160 5.5 -365.5t5.5 -222.5q0 -49 -52 -49q-42 0 -61 29q-122 169 -476 607t-421 527zM1014 1757q-155 -89 -305 -170q-31 -16 -50 -16q-38 0 -38 35q0 19 22 41q105 105 213 225 q29 29 45.5 38t40.5 9q32 0 92 -31q5 -3 15.5 -10l13.5 -9t9 -7.5t7.5 -9t3.5 -9.5t2 -14q0 -19 -14 -33t-57 -39z" glyph-name="Nacute" horiz-adv-x="1527" unicode="Ń"/><glyph d="M485 842q-8 -272 -8 -619q0 -73 25 -98q15 -15 90 -49q33 -12 33 -41q0 -22 -9 -29.5t-28 -7.5q-4 0 -39 1.5t-91.5 3t-111.5 1.5q-57 0 -157 -3t-105 -3q-37 0 -37 35q0 34 25 43q73 26 92 45q20 20 20 100q0 317 -4 418q-3 127 -24 154q-10 16 -24.5 26.5t-61.5 36.5 q-23 13 -23 33q0 23 25 39q46 30 180 87.5t174 57.5q30 0 43 -35q12 -67 14 -127q231 164 359 164q130 0 202 -96q40 -55 55 -172.5t15 -331.5q0 -19 -2 -119.5t-2 -132.5q0 -73 25 -98q15 -15 90 -49q32 -12 32 -41q0 -22 -8.5 -29.5t-27.5 -7.5q-4 0 -37 1.5t-87.5 3 t-109.5 1.5q-56 0 -160 -3t-110 -3q-37 0 -37 35q0 34 25 43q77 30 92 45q20 20 20 100q0 317 -12 440.5t-39 165.5q-38 50 -111 50q-88 0 -170 -35zM860 1434q-127 -120 -250 -232q-28 -26 -51 -26q-33 0 -33 30q0 6 15 41q25 47 72.5 144t60.5 122q30 64 78 64 q23 0 75 -10q76 -18 76 -58q0 -32 -43 -75z" glyph-name="nacute" horiz-adv-x="1267" unicode="ń"/></font>
</defs>
</svg>
